<svg xmlns="http://www.w3.org/2000/svg" xmlns:xlink="http://www.w3.org/1999/xlink" width="300" zoomAndPan="magnify" viewBox="0 0 224.87999 225" height="300" preserveAspectRatio="xMidYMid meet" version="1.0"><defs><clipPath id="89f106aa05"><path d="M 48.933594 67 L 163 67 L 163 181 L 48.933594 181 Z M 48.933594 67 " clip-rule="nonzero"/></clipPath></defs><path fill="#ffffff" d="M 189.296875 58.96875 L 176.5625 46.277344 C 175.246094 44.964844 173.515625 44.304688 171.789062 44.304688 C 170.0625 44.304688 168.339844 44.960938 167.023438 46.273438 L 156.835938 56.410156 L 179.109375 78.605469 L 189.296875 68.46875 C 191.929688 65.84375 191.929688 61.585938 189.296875 58.96875 Z M 189.296875 58.96875 " fill-opacity="1" fill-rule="nonzero"/><path fill="#ffffff" d="M 90.699219 122.292969 L 112.976562 144.488281 L 174.34375 83.359375 L 152.0625 61.164062 Z M 90.699219 122.292969 " fill-opacity="1" fill-rule="nonzero"/><path fill="#ffffff" d="M 85.890625 127.042969 L 81.132812 153.964844 L 108.167969 149.234375 Z M 85.890625 127.042969 " fill-opacity="1" fill-rule="nonzero"/><g clip-path="url(#89f106aa05)"><path fill="#ffffff" d="M 147.472656 165.964844 L 63.476562 165.964844 L 63.476562 82.136719 L 122.757812 82.136719 L 137.363281 67.585938 L 58.324219 67.585938 C 53.136719 67.585938 48.894531 71.820312 48.894531 76.996094 L 48.894531 171.105469 C 48.894531 176.285156 53.136719 180.519531 58.324219 180.519531 L 152.625 180.519531 C 157.8125 180.519531 162.054688 176.285156 162.054688 171.105469 L 162.054688 103.824219 L 147.472656 118.347656 Z M 147.472656 165.964844 " fill-opacity="1" fill-rule="nonzero"/></g></svg>