<svg xmlns="http://www.w3.org/2000/svg" xmlns:xlink="http://www.w3.org/1999/xlink" width="300" zoomAndPan="magnify" viewBox="0 0 224.87999 225" height="300" preserveAspectRatio="xMidYMid meet" version="1.0"><defs><clipPath id="09c7793d56"><path d="M 50.777344 45.136719 L 185.707031 45.136719 L 185.707031 180.0625 L 50.777344 180.0625 Z M 50.777344 45.136719 " clip-rule="nonzero"/></clipPath></defs><g clip-path="url(#09c7793d56)"><path fill="#000000" d="M 185.707031 112.601562 C 185.707031 149.792969 155.4375 180.0625 118.242188 180.0625 C 92.292969 180.0625 68.363281 164.953125 57.300781 141.519531 C 56.222656 139.269531 57.210938 136.617188 59.460938 135.539062 C 61.707031 134.457031 64.363281 135.449219 65.441406 137.695312 C 75.019531 157.933594 95.753906 171.070312 118.242188 171.070312 C 150.492188 171.070312 176.710938 144.847656 176.710938 112.601562 C 176.710938 80.351562 150.492188 54.132812 118.242188 54.132812 C 95.753906 54.132812 75.019531 67.265625 65.394531 87.546875 C 64.316406 89.796875 61.664062 90.785156 59.414062 89.707031 C 57.164062 88.628906 56.222656 85.972656 57.253906 83.726562 C 68.363281 60.246094 92.292969 45.136719 118.242188 45.136719 C 155.4375 45.136719 185.707031 75.40625 185.707031 112.601562 Z M 51.230469 114.445312 C 51.453125 114.9375 51.722656 115.386719 52.128906 115.792969 L 70.117188 133.785156 C 70.972656 134.636719 72.097656 135.085938 73.265625 135.085938 C 74.4375 135.085938 75.5625 134.636719 76.460938 133.785156 C 78.214844 132.03125 78.214844 129.195312 76.460938 127.441406 L 66.117188 117.097656 L 118.242188 117.097656 C 120.714844 117.097656 122.742188 115.074219 122.742188 112.601562 C 122.742188 110.125 120.714844 108.101562 118.242188 108.101562 L 66.117188 108.101562 L 76.414062 97.800781 C 78.167969 96.046875 78.167969 93.214844 76.414062 91.460938 C 74.660156 89.707031 71.828125 89.707031 70.074219 91.460938 L 52.082031 109.453125 C 52.039062 109.496094 52.039062 109.542969 51.992188 109.585938 C 51.632812 109.992188 51.320312 110.394531 51.09375 110.890625 C 51.09375 110.9375 51.09375 110.980469 51.050781 111.027344 C 50.867188 111.476562 50.777344 111.96875 50.777344 112.464844 C 50.777344 112.601562 50.777344 112.78125 50.824219 112.914062 C 50.867188 113.320312 50.914062 113.679688 51.050781 114.039062 C 51.09375 114.175781 51.140625 114.308594 51.230469 114.445312 Z M 51.230469 114.445312 " fill-opacity="1" fill-rule="nonzero"/></g></svg>