<svg xmlns="http://www.w3.org/2000/svg" xmlns:xlink="http://www.w3.org/1999/xlink" width="300" zoomAndPan="magnify" viewBox="0 0 224.87999 225" height="300" preserveAspectRatio="xMidYMid meet" version="1.0"><defs><clipPath id="92994c52a5"><path d="M 67.347656 52.375 L 157.300781 52.375 L 157.300781 172.3125 L 67.347656 172.3125 Z M 67.347656 52.375 " clip-rule="nonzero"/></clipPath></defs><g clip-path="url(#92994c52a5)"><path fill="#ffffff" d="M 151.015625 66.332031 L 134.898438 66.332031 L 134.898438 58.933594 C 134.894531 58.511719 134.855469 58.09375 134.773438 57.683594 C 134.691406 57.269531 134.566406 56.867188 134.40625 56.480469 C 134.246094 56.089844 134.046875 55.722656 133.8125 55.371094 C 133.582031 55.023438 133.316406 54.699219 133.015625 54.402344 C 132.71875 54.105469 132.394531 53.839844 132.046875 53.605469 C 131.695312 53.371094 131.328125 53.171875 130.9375 53.011719 C 130.550781 52.851562 130.148438 52.730469 129.738281 52.648438 C 129.324219 52.5625 128.90625 52.523438 128.488281 52.523438 L 96.375 52.523438 C 95.953125 52.523438 95.535156 52.5625 95.125 52.648438 C 94.710938 52.730469 94.3125 52.851562 93.921875 53.011719 C 93.535156 53.171875 93.164062 53.371094 92.816406 53.605469 C 92.464844 53.839844 92.140625 54.105469 91.84375 54.402344 C 91.546875 54.699219 91.28125 55.023438 91.046875 55.371094 C 90.8125 55.722656 90.613281 56.089844 90.453125 56.480469 C 90.292969 56.867188 90.171875 57.269531 90.089844 57.683594 C 90.007812 58.09375 89.964844 58.511719 89.964844 58.933594 L 89.964844 66.332031 L 73.84375 66.332031 C 73.421875 66.332031 73.003906 66.375 72.59375 66.457031 C 72.179688 66.539062 71.777344 66.660156 71.390625 66.824219 C 71.003906 66.984375 70.632812 67.179688 70.28125 67.414062 C 69.933594 67.648438 69.609375 67.914062 69.3125 68.210938 C 69.015625 68.507812 68.75 68.832031 68.515625 69.183594 C 68.28125 69.53125 68.082031 69.902344 67.921875 70.289062 C 67.761719 70.679688 67.640625 71.078125 67.558594 71.492188 C 67.472656 71.90625 67.433594 72.320312 67.433594 72.742188 L 67.433594 77.441406 C 67.445312 77.925781 67.511719 78.402344 67.628906 78.871094 C 67.742188 79.339844 67.910156 79.792969 68.121094 80.226562 C 68.335938 80.65625 68.59375 81.0625 68.894531 81.441406 C 69.199219 81.820312 69.535156 82.160156 69.910156 82.464844 C 70.289062 82.769531 70.691406 83.03125 71.121094 83.246094 C 71.554688 83.464844 72.003906 83.632812 72.472656 83.75 C 72.941406 83.871094 73.417969 83.941406 73.898438 83.957031 C 74.382812 83.972656 74.863281 83.9375 75.339844 83.851562 L 79.121094 162 C 79.152344 162.679688 79.25 163.347656 79.410156 164.007812 C 79.570312 164.671875 79.789062 165.308594 80.074219 165.929688 C 80.355469 166.546875 80.695312 167.132812 81.089844 167.6875 C 81.484375 168.242188 81.925781 168.753906 82.417969 169.222656 C 82.910156 169.691406 83.445312 170.109375 84.015625 170.476562 C 84.589844 170.84375 85.191406 171.152344 85.820312 171.40625 C 86.453125 171.65625 87.101562 171.847656 87.769531 171.976562 C 88.4375 172.101562 89.113281 172.167969 89.792969 172.164062 L 135.066406 172.164062 C 135.746094 172.167969 136.421875 172.101562 137.089844 171.976562 C 137.757812 171.847656 138.40625 171.65625 139.039062 171.40625 C 139.667969 171.152344 140.269531 170.84375 140.84375 170.476562 C 141.414062 170.109375 141.945312 169.691406 142.4375 169.222656 C 142.929688 168.75 143.375 168.242188 143.769531 167.6875 C 144.164062 167.132812 144.503906 166.546875 144.785156 165.929688 C 145.066406 165.308594 145.289062 164.671875 145.449219 164.007812 C 145.609375 163.347656 145.707031 162.679688 145.738281 162 L 149.519531 83.851562 C 149.996094 83.9375 150.472656 83.972656 150.957031 83.957031 C 151.441406 83.9375 151.917969 83.871094 152.382812 83.75 C 152.851562 83.632812 153.304688 83.464844 153.734375 83.246094 C 154.167969 83.027344 154.570312 82.769531 154.945312 82.464844 C 155.320312 82.160156 155.660156 81.816406 155.960938 81.441406 C 156.261719 81.0625 156.519531 80.65625 156.734375 80.222656 C 156.949219 79.789062 157.113281 79.339844 157.230469 78.871094 C 157.347656 78.402344 157.410156 77.925781 157.425781 77.441406 L 157.425781 72.742188 C 157.425781 72.320312 157.382812 71.902344 157.300781 71.492188 C 157.21875 71.078125 157.097656 70.679688 156.933594 70.289062 C 156.773438 69.902344 156.578125 69.53125 156.34375 69.183594 C 156.109375 68.832031 155.84375 68.511719 155.546875 68.210938 C 155.25 67.914062 154.925781 67.648438 154.574219 67.414062 C 154.226562 67.183594 153.855469 66.984375 153.46875 66.824219 C 153.078125 66.660156 152.679688 66.539062 152.265625 66.457031 C 151.855469 66.375 151.4375 66.332031 151.015625 66.332031 Z M 94.238281 58.933594 C 94.238281 58.648438 94.292969 58.375 94.402344 58.113281 C 94.507812 57.851562 94.664062 57.621094 94.863281 57.421875 C 95.0625 57.222656 95.296875 57.066406 95.558594 56.957031 C 95.816406 56.851562 96.089844 56.796875 96.375 56.796875 L 128.484375 56.796875 C 128.769531 56.796875 129.042969 56.851562 129.304688 56.957031 C 129.566406 57.066406 129.796875 57.222656 129.996094 57.421875 C 130.195312 57.621094 130.351562 57.851562 130.460938 58.113281 C 130.566406 58.375 130.621094 58.648438 130.621094 58.933594 L 130.621094 66.332031 L 94.238281 66.332031 Z M 141.46875 161.792969 C 141.449219 162.203125 141.390625 162.605469 141.296875 163 C 141.199219 163.394531 141.066406 163.78125 140.898438 164.152344 C 140.726562 164.523438 140.523438 164.875 140.289062 165.207031 C 140.050781 165.539062 139.785156 165.84375 139.488281 166.125 C 139.195312 166.40625 138.875 166.660156 138.53125 166.878906 C 138.1875 167.097656 137.828125 167.285156 137.449219 167.4375 C 137.070312 167.585938 136.679688 167.703125 136.28125 167.777344 C 135.878906 167.855469 135.476562 167.894531 135.066406 167.894531 L 89.792969 167.894531 C 89.386719 167.894531 88.980469 167.855469 88.582031 167.777344 C 88.179688 167.703125 87.789062 167.585938 87.410156 167.4375 C 87.03125 167.285156 86.671875 167.097656 86.328125 166.878906 C 85.984375 166.660156 85.664062 166.40625 85.371094 166.125 C 85.074219 165.84375 84.808594 165.539062 84.570312 165.207031 C 84.335938 164.875 84.132812 164.523438 83.960938 164.152344 C 83.792969 163.78125 83.660156 163.394531 83.5625 163 C 83.46875 162.601562 83.410156 162.199219 83.390625 161.792969 L 79.617188 83.851562 L 145.242188 83.851562 Z M 153.152344 77.441406 C 153.152344 77.726562 153.097656 77.996094 152.992188 78.257812 C 152.882812 78.519531 152.726562 78.75 152.527344 78.953125 C 152.328125 79.152344 152.097656 79.304688 151.835938 79.414062 C 151.574219 79.523438 151.300781 79.578125 151.015625 79.578125 L 73.84375 79.578125 C 73.558594 79.578125 73.285156 79.523438 73.023438 79.414062 C 72.761719 79.304688 72.53125 79.152344 72.332031 78.953125 C 72.132812 78.75 71.976562 78.519531 71.867188 78.257812 C 71.761719 77.996094 71.707031 77.726562 71.707031 77.441406 L 71.707031 72.742188 C 71.707031 72.457031 71.761719 72.1875 71.867188 71.925781 C 71.976562 71.664062 72.132812 71.429688 72.332031 71.230469 C 72.53125 71.03125 72.761719 70.875 73.023438 70.769531 C 73.285156 70.660156 73.558594 70.605469 73.84375 70.605469 L 151.015625 70.605469 C 151.300781 70.605469 151.574219 70.660156 151.835938 70.769531 C 152.097656 70.875 152.328125 71.03125 152.527344 71.230469 C 152.726562 71.429688 152.882812 71.664062 152.992188 71.925781 C 153.097656 72.1875 153.152344 72.457031 153.152344 72.742188 Z M 153.152344 77.441406 " fill-opacity="1" fill-rule="nonzero"/></g><path fill="#ffffff" d="M 112.429688 150.085938 C 112.714844 150.085938 112.984375 150.03125 113.246094 149.925781 C 113.507812 149.816406 113.742188 149.660156 113.941406 149.460938 C 114.140625 149.261719 114.296875 149.03125 114.402344 148.769531 C 114.511719 148.507812 114.566406 148.234375 114.566406 147.949219 L 114.566406 103.792969 C 114.566406 103.511719 114.511719 103.238281 114.402344 102.976562 C 114.296875 102.714844 114.140625 102.484375 113.941406 102.28125 C 113.742188 102.082031 113.507812 101.925781 113.246094 101.820312 C 112.984375 101.710938 112.714844 101.65625 112.429688 101.65625 C 112.148438 101.65625 111.875 101.710938 111.613281 101.820312 C 111.351562 101.925781 111.121094 102.082031 110.917969 102.28125 C 110.71875 102.484375 110.5625 102.714844 110.457031 102.976562 C 110.347656 103.238281 110.292969 103.511719 110.292969 103.792969 L 110.292969 147.949219 C 110.292969 148.234375 110.347656 148.507812 110.457031 148.769531 C 110.5625 149.03125 110.71875 149.261719 110.917969 149.460938 C 111.121094 149.660156 111.351562 149.816406 111.613281 149.925781 C 111.875 150.03125 112.148438 150.085938 112.429688 150.085938 Z M 112.429688 150.085938 " fill-opacity="1" fill-rule="nonzero"/><path fill="#ffffff" d="M 129.523438 150.085938 C 129.804688 150.085938 130.078125 150.03125 130.339844 149.925781 C 130.601562 149.816406 130.832031 149.660156 131.035156 149.460938 C 131.234375 149.261719 131.386719 149.03125 131.496094 148.769531 C 131.605469 148.507812 131.660156 148.234375 131.660156 147.949219 L 131.660156 103.792969 C 131.660156 103.511719 131.605469 103.238281 131.496094 102.976562 C 131.386719 102.714844 131.234375 102.484375 131.035156 102.28125 C 130.832031 102.082031 130.601562 101.925781 130.339844 101.820312 C 130.078125 101.710938 129.804688 101.65625 129.523438 101.65625 C 129.238281 101.65625 128.96875 101.710938 128.707031 101.820312 C 128.445312 101.925781 128.210938 102.082031 128.011719 102.28125 C 127.8125 102.484375 127.65625 102.714844 127.550781 102.976562 C 127.441406 103.238281 127.386719 103.511719 127.386719 103.792969 L 127.386719 147.949219 C 127.386719 148.234375 127.441406 148.507812 127.550781 148.769531 C 127.65625 149.03125 127.8125 149.261719 128.011719 149.460938 C 128.210938 149.660156 128.445312 149.816406 128.707031 149.925781 C 128.96875 150.03125 129.238281 150.085938 129.523438 150.085938 Z M 129.523438 150.085938 " fill-opacity="1" fill-rule="nonzero"/><path fill="#ffffff" d="M 95.335938 150.085938 C 95.621094 150.085938 95.894531 150.03125 96.15625 149.925781 C 96.417969 149.816406 96.648438 149.660156 96.847656 149.460938 C 97.046875 149.261719 97.203125 149.03125 97.3125 148.769531 C 97.417969 148.507812 97.472656 148.234375 97.472656 147.949219 L 97.472656 103.792969 C 97.472656 103.511719 97.417969 103.238281 97.3125 102.976562 C 97.203125 102.714844 97.046875 102.484375 96.847656 102.28125 C 96.648438 102.082031 96.417969 101.925781 96.15625 101.820312 C 95.894531 101.710938 95.621094 101.65625 95.335938 101.65625 C 95.054688 101.65625 94.78125 101.710938 94.519531 101.820312 C 94.257812 101.925781 94.027344 102.082031 93.824219 102.28125 C 93.625 102.484375 93.472656 102.714844 93.363281 102.976562 C 93.253906 103.238281 93.199219 103.511719 93.199219 103.792969 L 93.199219 147.949219 C 93.199219 148.234375 93.253906 148.507812 93.363281 148.769531 C 93.472656 149.03125 93.625 149.261719 93.824219 149.460938 C 94.027344 149.660156 94.257812 149.816406 94.519531 149.925781 C 94.78125 150.03125 95.054688 150.085938 95.335938 150.085938 Z M 95.335938 150.085938 " fill-opacity="1" fill-rule="nonzero"/></svg>