<svg xmlns="http://www.w3.org/2000/svg" xmlns:xlink="http://www.w3.org/1999/xlink" width="300" zoomAndPan="magnify" viewBox="0 0 224.87999 225" height="300" preserveAspectRatio="xMidYMid meet" version="1.0"><defs><clipPath id="e1e4bd6d44"><path d="M 35 46 L 190 46 L 190 181.53125 L 35 181.53125 Z M 35 46 " clip-rule="nonzero"/></clipPath></defs><g clip-path="url(#e1e4bd6d44)"><path fill="#ffffff" d="M 112.371094 181.496094 C 111.332031 181.492188 110.660156 180.90625 110.503906 180.765625 L 50.617188 120.808594 C 36.363281 107.898438 31.460938 88.214844 38.105469 71.875 C 45.847656 52.832031 65.390625 47.863281 66.707031 47.554688 C 83.5 43.632812 101.449219 50.941406 112.386719 65.851562 C 123.328125 50.941406 141.277344 43.632812 158.070312 47.554688 C 158.914062 47.753906 178.839844 52.605469 186.671875 71.875 C 193.367188 88.34375 188.335938 108 174.160156 120.808594 L 114.269531 180.765625 C 114.121094 180.902344 113.429688 181.503906 112.371094 181.496094 Z M 112.371094 181.496094 " fill-opacity="1" fill-rule="nonzero"/></g></svg>