<svg xmlns="http://www.w3.org/2000/svg" xmlns:xlink="http://www.w3.org/1999/xlink" width="300" zoomAndPan="magnify" viewBox="0 0 224.87999 225" height="300" preserveAspectRatio="xMidYMid meet" version="1.0"><defs><clipPath id="7a4b96e8a6"><path d="M 96 170 L 130 170 L 130 183.738281 L 96 183.738281 Z M 96 170 " clip-rule="nonzero"/></clipPath><clipPath id="12ce4ae216"><path d="M 47.726562 41.316406 L 177.40625 41.316406 L 177.40625 165 L 47.726562 165 Z M 47.726562 41.316406 " clip-rule="nonzero"/></clipPath></defs><g clip-path="url(#7a4b96e8a6)"><path fill="#ffffff" d="M 128.867188 171.339844 C 128.550781 170.878906 127.914062 170.5625 127.511719 170.621094 L 97.710938 170.792969 C 97.710938 170.792969 96.644531 171.082031 96.355469 171.542969 C 96.066406 172.003906 96.007812 172.582031 96.238281 173.070312 C 99.066406 179.558594 105.507812 183.738281 112.582031 183.738281 C 119.773438 183.738281 126.210938 179.472656 129.011719 172.871094 C 129.214844 172.351562 129.15625 171.773438 128.867188 171.339844 Z M 128.867188 171.339844 " fill-opacity="1" fill-rule="nonzero"/></g><g clip-path="url(#12ce4ae216)"><path fill="#ffffff" d="M 176.253906 155.371094 L 157.976562 140.148438 L 157.976562 99.582031 C 157.976562 79.027344 144.171875 61.644531 125.34375 56.105469 C 125.433594 55.5 125.546875 54.894531 125.546875 54.261719 C 125.546875 47.113281 119.742188 41.316406 112.582031 41.316406 C 105.421875 41.316406 99.617188 47.113281 99.617188 54.261719 C 99.617188 54.894531 99.730469 55.5 99.820312 56.105469 C 80.992188 61.644531 67.1875 79 67.1875 99.582031 L 67.1875 140.148438 L 48.882812 155.371094 C 48.132812 155.976562 47.726562 156.898438 47.726562 157.847656 L 47.726562 161.078125 C 47.726562 162.867188 49.171875 164.308594 50.960938 164.308594 L 174.175781 164.308594 C 175.964844 164.308594 177.40625 162.867188 177.40625 161.078125 L 177.40625 157.847656 C 177.40625 156.898438 176.976562 155.976562 176.253906 155.371094 Z M 106.144531 54.78125 C 106.144531 54.609375 106.085938 54.433594 106.085938 54.261719 C 106.085938 50.6875 109 47.777344 112.582031 47.777344 C 116.164062 47.777344 119.050781 50.6875 119.050781 54.261719 C 119.050781 54.433594 119.019531 54.609375 118.992188 54.78125 C 116.882812 54.492188 114.746094 54.261719 112.554688 54.261719 C 110.359375 54.261719 108.25 54.464844 106.144531 54.78125 Z M 106.144531 54.78125 " fill-opacity="1" fill-rule="nonzero"/></g></svg>