<svg xmlns="http://www.w3.org/2000/svg" xmlns:xlink="http://www.w3.org/1999/xlink" width="300" zoomAndPan="magnify" viewBox="0 0 224.87999 225" height="300" preserveAspectRatio="xMidYMid meet" version="1.0"><defs><clipPath id="e794f8ef27"><path d="M 40.375 40.4375 L 184.503906 40.4375 L 184.503906 184.5625 L 40.375 184.5625 Z M 40.375 40.4375 " clip-rule="nonzero"/></clipPath><clipPath id="8ffaa2e657"><path d="M 112.441406 40.4375 C 72.640625 40.4375 40.375 72.699219 40.375 112.5 C 40.375 152.300781 72.640625 184.5625 112.441406 184.5625 C 152.238281 184.5625 184.503906 152.300781 184.503906 112.5 C 184.503906 72.699219 152.238281 40.4375 112.441406 40.4375 " clip-rule="nonzero"/></clipPath><clipPath id="c2ba1853a0"><path d="M 67 71.15625 L 158.523438 71.15625 L 158.523438 151.542969 L 67 151.542969 Z M 67 71.15625 " clip-rule="nonzero"/></clipPath></defs><g clip-path="url(#e794f8ef27)"><g clip-path="url(#8ffaa2e657)"><path fill="#ffffff" d="M 40.375 40.4375 L 184.503906 40.4375 L 184.503906 184.5625 L 40.375 184.5625 Z M 40.375 40.4375 " fill-opacity="1" fill-rule="nonzero"/></g></g><g clip-path="url(#c2ba1853a0)"><path fill="#136035" d="M 112.589844 151.542969 C 111.6875 151.542969 110.796875 151.242188 110.082031 150.6875 C 86.300781 132.417969 66.65625 115.964844 67.175781 99.617188 C 67.183594 91.929688 69.363281 85.246094 73.472656 80.277344 C 77.207031 75.761719 82.457031 72.804688 88.242188 71.957031 C 93.691406 71.15625 99.257812 72.257812 103.925781 75.078125 C 107.574219 77.277344 110.511719 80.382812 112.589844 84.214844 C 114.664062 80.382812 117.609375 77.269531 121.25 75.078125 C 125.917969 72.265625 131.484375 71.15625 136.933594 71.957031 C 142.71875 72.8125 147.96875 75.761719 151.703125 80.277344 C 155.8125 85.246094 157.992188 91.929688 158 99.617188 C 158.523438 115.964844 138.875 132.417969 115.09375 150.6875 C 114.378906 151.242188 113.488281 151.542969 112.589844 151.542969 Z M 91.714844 77.230469 C 90.832031 77.230469 89.957031 77.292969 89.101562 77.417969 C 81.613281 78.515625 72.878906 85.003906 72.878906 99.664062 C 72.878906 99.695312 72.878906 99.730469 72.878906 99.753906 C 72.40625 113.304688 91.269531 129.148438 112.589844 145.570312 C 133.914062 129.148438 152.769531 113.304688 152.308594 99.753906 C 152.308594 99.722656 152.308594 99.6875 152.308594 99.664062 C 152.308594 85.003906 143.570312 78.515625 136.085938 77.417969 C 128.558594 76.308594 119.433594 79.949219 116.019531 90.585938 C 115.203125 93.136719 113.523438 93.519531 112.589844 93.519531 C 111.65625 93.519531 109.980469 93.136719 109.15625 90.585938 C 106.136719 81.15625 98.628906 77.230469 91.714844 77.230469 Z M 158.007812 99.664062 Z M 158.007812 99.664062 " fill-opacity="1" fill-rule="nonzero"/></g></svg>