<svg xmlns="http://www.w3.org/2000/svg" xmlns:xlink="http://www.w3.org/1999/xlink" width="300" zoomAndPan="magnify" viewBox="0 0 224.87999 225" height="300" preserveAspectRatio="xMidYMid meet" version="1.0"><defs><clipPath id="e7dcc1363a"><path d="M 44 46 L 179 46 L 179 180.976562 L 44 180.976562 Z M 44 46 " clip-rule="nonzero"/></clipPath></defs><g clip-path="url(#e7dcc1363a)"><path fill="#000000" d="M 111.621094 180.667969 C 106.257812 180.667969 100.972656 180.035156 95.765625 178.761719 C 90.554688 177.492188 85.574219 175.617188 80.820312 173.144531 C 79.914062 172.714844 78.960938 172.472656 77.957031 172.414062 C 76.957031 172.355469 75.980469 172.488281 75.03125 172.808594 L 62.714844 176.644531 C 61.738281 176.949219 60.734375 177.117188 59.710938 177.140625 C 58.683594 177.164062 57.675781 177.046875 56.683594 176.792969 C 55.691406 176.535156 54.753906 176.144531 53.871094 175.625 C 52.988281 175.105469 52.195312 174.472656 51.492188 173.730469 C 50.789062 172.988281 50.199219 172.160156 49.726562 171.253906 C 49.257812 170.347656 48.917969 169.390625 48.71875 168.390625 C 48.515625 167.386719 48.453125 166.378906 48.539062 165.359375 C 48.621094 164.339844 48.84375 163.351562 49.203125 162.398438 L 53.0625 152.132812 C 53.460938 151.136719 53.636719 150.101562 53.585938 149.027344 C 53.53125 147.953125 53.257812 146.941406 52.761719 145.984375 C 52.09375 144.773438 51.460938 143.542969 50.867188 142.292969 C 50.273438 141.042969 49.71875 139.777344 49.203125 138.492188 C 48.6875 137.207031 48.214844 135.910156 47.78125 134.59375 C 47.347656 133.28125 46.953125 131.957031 46.601562 130.617188 C 46.25 129.28125 45.941406 127.933594 45.671875 126.574219 C 45.402344 125.21875 45.179688 123.855469 44.996094 122.484375 C 44.8125 121.113281 44.671875 119.738281 44.574219 118.359375 C 44.472656 116.976562 44.417969 115.597656 44.40625 114.214844 C 44.394531 112.832031 44.425781 111.449219 44.5 110.066406 C 44.574219 108.6875 44.691406 107.308594 44.847656 105.933594 C 45.007812 104.5625 45.210938 103.195312 45.453125 101.832031 C 45.699219 100.472656 45.984375 99.117188 46.3125 97.773438 C 46.640625 96.429688 47.011719 95.097656 47.421875 93.777344 C 47.832031 92.457031 48.285156 91.148438 48.777344 89.855469 C 49.269531 88.5625 49.800781 87.285156 50.375 86.027344 C 50.945312 84.765625 51.554688 83.523438 52.203125 82.300781 C 52.851562 81.078125 53.539062 79.878906 54.261719 78.699219 C 54.984375 77.515625 55.746094 76.359375 56.539062 75.226562 C 57.335938 74.09375 58.164062 72.984375 59.027344 71.902344 C 59.894531 70.820312 60.789062 69.765625 61.71875 68.742188 C 62.648438 67.714844 63.609375 66.714844 64.601562 65.75 C 65.59375 64.78125 66.613281 63.84375 67.664062 62.941406 C 68.710938 62.035156 69.789062 61.164062 70.894531 60.328125 C 71.996094 59.488281 73.125 58.6875 74.277344 57.917969 C 75.433594 57.148438 76.609375 56.417969 77.808594 55.722656 C 79.007812 55.023438 80.226562 54.367188 81.46875 53.746094 C 82.707031 53.125 83.964844 52.542969 85.242188 52 C 86.519531 51.457031 87.808594 50.957031 89.117188 50.492188 C 90.425781 50.027344 91.746094 49.605469 93.078125 49.226562 C 94.414062 48.84375 95.757812 48.503906 97.113281 48.203125 C 98.464844 47.90625 99.828125 47.648438 101.199219 47.433594 C 102.570312 47.21875 103.945312 47.046875 105.328125 46.917969 C 107.441406 46.71875 109.554688 46.621094 111.675781 46.621094 C 113.800781 46.621094 115.914062 46.71875 118.027344 46.921875 C 120.140625 47.121094 122.238281 47.417969 124.320312 47.816406 C 126.402344 48.214844 128.464844 48.710938 130.5 49.300781 C 132.535156 49.894531 134.539062 50.578125 136.511719 51.359375 C 138.484375 52.140625 140.414062 53.011719 142.300781 53.976562 C 144.191406 54.9375 146.027344 55.988281 147.816406 57.125 C 149.605469 58.261719 151.335938 59.480469 153.011719 60.777344 C 154.683594 62.078125 156.292969 63.453125 157.835938 64.90625 C 159.378906 66.355469 160.847656 67.875 162.246094 69.464844 C 163.644531 71.054688 164.964844 72.707031 166.207031 74.421875 C 167.449219 76.136719 168.605469 77.90625 169.679688 79.730469 C 170.753906 81.550781 171.738281 83.421875 172.636719 85.339844 C 173.53125 87.253906 174.335938 89.210938 175.046875 91.203125 C 175.757812 93.195312 176.371094 95.214844 176.890625 97.265625 C 177.410156 99.316406 177.832031 101.386719 178.152344 103.476562 C 178.476562 105.566406 178.699219 107.664062 178.820312 109.777344 C 178.945312 111.886719 178.96875 114 178.890625 116.113281 C 178.8125 118.226562 178.636719 120.328125 178.359375 122.425781 C 178.082031 124.523438 177.707031 126.601562 177.230469 128.660156 C 176.757812 130.722656 176.1875 132.757812 175.519531 134.761719 C 174.851562 136.769531 174.089844 138.742188 173.234375 140.675781 C 172.382812 142.613281 171.4375 144.503906 170.402344 146.347656 C 169.371094 148.195312 168.25 149.988281 167.046875 151.730469 C 165.84375 153.46875 164.558594 155.148438 163.195312 156.769531 C 161.832031 158.390625 160.394531 159.941406 158.882812 161.425781 C 157.371094 162.910156 155.792969 164.320312 154.148438 165.65625 C 152.503906 166.988281 150.800781 168.246094 149.035156 169.417969 C 147.273438 170.59375 145.457031 171.683594 143.589844 172.6875 C 141.722656 173.691406 139.8125 174.601562 137.859375 175.425781 C 135.902344 176.25 133.914062 176.980469 131.890625 177.613281 C 129.871094 178.25 127.820312 178.789062 125.746094 179.230469 C 121.085938 180.1875 116.378906 180.664062 111.621094 180.667969 Z M 77.609375 163.046875 C 80.257812 163.035156 82.761719 163.636719 85.117188 164.847656 C 86.109375 165.359375 87.117188 165.839844 88.140625 166.292969 C 89.164062 166.746094 90.199219 167.167969 91.242188 167.558594 C 92.289062 167.953125 93.347656 168.316406 94.414062 168.648438 C 95.484375 168.980469 96.558594 169.28125 97.644531 169.546875 C 98.730469 169.816406 99.824219 170.054688 100.921875 170.261719 C 102.023438 170.46875 103.125 170.644531 104.234375 170.785156 C 105.34375 170.925781 106.457031 171.039062 107.574219 171.117188 C 108.6875 171.195312 109.804688 171.238281 110.925781 171.253906 C 112.042969 171.265625 113.160156 171.246094 114.277344 171.195312 C 115.394531 171.144531 116.507812 171.0625 117.621094 170.945312 C 118.734375 170.832031 119.84375 170.683594 120.945312 170.503906 C 122.050781 170.324219 123.148438 170.113281 124.238281 169.867188 C 125.332031 169.625 126.414062 169.351562 127.488281 169.046875 C 128.566406 168.738281 129.632812 168.402344 130.6875 168.035156 C 131.742188 167.667969 132.789062 167.269531 133.820312 166.84375 C 134.851562 166.414062 135.871094 165.957031 136.878906 165.46875 C 137.886719 164.984375 138.875 164.46875 139.851562 163.925781 C 140.828125 163.378906 141.789062 162.808594 142.730469 162.207031 C 143.675781 161.609375 144.597656 160.980469 145.503906 160.328125 C 146.410156 159.675781 147.296875 158.996094 148.164062 158.292969 C 149.03125 157.589844 149.878906 156.859375 150.703125 156.105469 C 151.527344 155.351562 152.328125 154.578125 153.109375 153.777344 C 153.886719 152.976562 154.644531 152.15625 155.375 151.3125 C 156.105469 150.46875 156.8125 149.605469 157.496094 148.722656 C 158.175781 147.835938 158.832031 146.933594 159.460938 146.011719 C 160.085938 145.089844 160.6875 144.152344 161.261719 143.195312 C 161.835938 142.238281 162.382812 141.265625 162.902344 140.277344 C 163.417969 139.289062 163.90625 138.285156 164.363281 137.269531 C 164.824219 136.25 165.253906 135.222656 165.652344 134.179688 C 166.050781 133.140625 166.421875 132.085938 166.757812 131.023438 C 167.097656 129.960938 167.402344 128.890625 167.679688 127.808594 C 167.953125 126.730469 168.199219 125.640625 168.410156 124.546875 C 168.621094 123.453125 168.804688 122.351562 168.949219 121.25 C 169.097656 120.144531 169.214844 119.035156 169.300781 117.921875 C 169.382812 116.8125 169.433594 115.699219 169.453125 114.582031 C 169.472656 113.46875 169.457031 112.355469 169.414062 111.242188 C 169.367188 110.125 169.289062 109.015625 169.179688 107.90625 C 169.066406 106.796875 168.925781 105.691406 168.75 104.589844 C 168.574219 103.488281 168.367188 102.394531 168.128906 101.304688 C 167.890625 100.214844 167.621094 99.132812 167.320312 98.058594 C 167.019531 96.988281 166.683594 95.921875 166.320312 94.867188 C 165.957031 93.8125 165.5625 92.769531 165.140625 91.738281 C 164.714844 90.707031 164.261719 89.691406 163.777344 88.683594 C 163.296875 87.679688 162.78125 86.6875 162.242188 85.714844 C 161.699219 84.738281 161.132812 83.777344 160.535156 82.835938 C 159.9375 81.890625 159.3125 80.96875 158.664062 80.0625 C 158.011719 79.15625 157.335938 78.265625 156.632812 77.398438 C 155.929688 76.53125 155.203125 75.683594 154.453125 74.859375 C 153.699219 74.035156 152.925781 73.230469 152.125 72.449219 C 151.328125 71.667969 150.507812 70.914062 149.664062 70.179688 C 148.824219 69.445312 147.960938 68.738281 147.074219 68.054688 C 146.191406 67.371094 145.289062 66.714844 144.367188 66.082031 C 143.445312 65.453125 142.507812 64.847656 141.546875 64.269531 C 140.589844 63.695312 139.617188 63.144531 138.628906 62.625 C 137.640625 62.105469 136.636719 61.613281 135.621094 61.148438 C 134.601562 60.6875 133.570312 60.253906 132.527344 59.851562 C 131.484375 59.449219 130.433594 59.078125 129.367188 58.734375 C 128.304688 58.390625 127.230469 58.082031 126.148438 57.800781 C 125.0625 57.519531 123.972656 57.273438 122.878906 57.054688 C 121.78125 56.839844 120.675781 56.652344 119.570312 56.5 C 118.460938 56.347656 117.351562 56.226562 116.234375 56.136719 C 115.121094 56.046875 114.003906 55.992188 112.886719 55.96875 C 111.769531 55.945312 110.648438 55.953125 109.53125 55.992188 C 108.414062 56.03125 107.296875 56.105469 106.183594 56.210938 C 104.996094 56.320312 103.8125 56.46875 102.632812 56.652344 C 101.453125 56.835938 100.28125 57.058594 99.113281 57.316406 C 97.949219 57.570312 96.789062 57.863281 95.644531 58.191406 C 94.496094 58.519531 93.359375 58.882812 92.234375 59.28125 C 91.109375 59.679688 89.996094 60.113281 88.898438 60.582031 C 87.800781 61.046875 86.71875 61.546875 85.648438 62.082031 C 84.582031 62.617188 83.53125 63.183594 82.5 63.78125 C 81.46875 64.378906 80.457031 65.007812 79.464844 65.671875 C 78.46875 66.332031 77.5 67.023438 76.550781 67.742188 C 75.597656 68.464844 74.671875 69.214844 73.769531 69.992188 C 72.867188 70.773438 71.988281 71.578125 71.132812 72.410156 C 70.28125 73.242188 69.453125 74.101562 68.652344 74.984375 C 67.855469 75.867188 67.082031 76.773438 66.339844 77.707031 C 65.59375 78.636719 64.882812 79.589844 64.195312 80.566406 C 63.511719 81.542969 62.859375 82.539062 62.238281 83.554688 C 61.613281 84.570312 61.023438 85.601562 60.464844 86.65625 C 59.90625 87.707031 59.382812 88.773438 58.890625 89.859375 C 58.398438 90.945312 57.941406 92.042969 57.515625 93.15625 C 57.09375 94.269531 56.703125 95.394531 56.351562 96.53125 C 55.996094 97.667969 55.679688 98.8125 55.394531 99.96875 C 55.113281 101.125 54.867188 102.289062 54.65625 103.460938 C 54.445312 104.632812 54.273438 105.8125 54.136719 106.992188 C 54 108.175781 53.898438 109.359375 53.835938 110.550781 C 53.773438 111.738281 53.746094 112.925781 53.757812 114.117188 C 53.765625 115.308594 53.816406 116.496094 53.898438 117.683594 C 53.984375 118.871094 54.105469 120.054688 54.261719 121.234375 C 54.421875 122.414062 54.613281 123.589844 54.847656 124.753906 C 55.078125 125.921875 55.34375 127.082031 55.648438 128.234375 C 55.949219 129.386719 56.289062 130.527344 56.660156 131.65625 C 57.035156 132.789062 57.445312 133.90625 57.886719 135.011719 C 58.332031 136.117188 58.808594 137.207031 59.320312 138.28125 C 59.832031 139.355469 60.375 140.417969 60.949219 141.457031 C 61.523438 142.519531 61.980469 143.632812 62.3125 144.792969 C 62.644531 145.953125 62.847656 147.136719 62.925781 148.339844 C 63 149.542969 62.945312 150.742188 62.761719 151.9375 C 62.574219 153.128906 62.265625 154.289062 61.828125 155.414062 L 57.96875 165.683594 C 57.863281 165.960938 57.839844 166.246094 57.898438 166.539062 C 57.957031 166.832031 58.085938 167.085938 58.292969 167.300781 C 58.496094 167.519531 58.742188 167.664062 59.03125 167.742188 C 59.320312 167.816406 59.609375 167.808594 59.894531 167.722656 L 72.210938 163.886719 C 73.96875 163.332031 75.765625 163.050781 77.609375 163.046875 Z M 105.757812 51.550781 Z M 105.757812 51.550781 " fill-opacity="1" fill-rule="nonzero"/></g><path fill="#000000" d="M 111.621094 137.019531 C 111.3125 137.019531 111.007812 136.988281 110.707031 136.929688 C 110.402344 136.871094 110.109375 136.78125 109.824219 136.664062 C 109.542969 136.546875 109.269531 136.402344 109.015625 136.230469 C 108.757812 136.058594 108.523438 135.867188 108.304688 135.648438 C 108.085938 135.433594 107.890625 135.195312 107.71875 134.941406 C 107.550781 134.683594 107.40625 134.414062 107.285156 134.132812 C 107.167969 133.847656 107.078125 133.554688 107.019531 133.253906 C 106.960938 132.953125 106.929688 132.648438 106.929688 132.34375 L 106.929688 123.488281 C 106.914062 122.667969 106.957031 121.851562 107.0625 121.035156 C 107.171875 120.222656 107.335938 119.421875 107.558594 118.632812 C 107.785156 117.839844 108.066406 117.074219 108.40625 116.324219 C 108.742188 115.578125 109.136719 114.859375 109.582031 114.167969 C 110.027344 113.476562 110.523438 112.824219 111.0625 112.207031 C 111.605469 111.589844 112.191406 111.015625 112.820312 110.484375 C 113.449219 109.953125 114.113281 109.472656 114.8125 109.039062 C 115.511719 108.605469 116.238281 108.226562 116.996094 107.898438 C 117.691406 107.613281 118.363281 107.273438 119.007812 106.878906 C 119.648438 106.488281 120.257812 106.042969 120.828125 105.554688 C 121.398438 105.0625 121.929688 104.53125 122.414062 103.953125 C 122.898438 103.378906 123.335938 102.765625 123.722656 102.121094 C 124.109375 101.476562 124.441406 100.804688 124.722656 100.105469 C 125 99.40625 125.21875 98.691406 125.382812 97.957031 C 125.546875 97.222656 125.648438 96.476562 125.691406 95.726562 C 125.734375 94.976562 125.71875 94.226562 125.640625 93.480469 C 125.5625 92.730469 125.425781 91.992188 125.230469 91.265625 C 125.03125 90.542969 124.777344 89.835938 124.46875 89.148438 C 124.15625 88.464844 123.792969 87.808594 123.378906 87.179688 C 122.960938 86.554688 122.496094 85.964844 121.984375 85.410156 C 121.472656 84.859375 120.921875 84.351562 120.328125 83.886719 C 119.734375 83.421875 119.105469 83.007812 118.445312 82.644531 C 117.785156 82.28125 117.097656 81.972656 116.390625 81.71875 C 115.679688 81.464844 114.953125 81.269531 114.210938 81.132812 C 113.703125 81.039062 113.195312 80.972656 112.679688 80.933594 C 112.167969 80.898438 111.652344 80.886719 111.136719 80.90625 C 110.621094 80.921875 110.109375 80.96875 109.597656 81.042969 C 109.089844 81.117188 108.585938 81.21875 108.085938 81.351562 C 107.589844 81.480469 107.097656 81.636719 106.617188 81.820312 C 106.136719 82 105.664062 82.210938 105.207031 82.445312 C 104.746094 82.679688 104.304688 82.9375 103.875 83.222656 C 103.445312 83.503906 103.03125 83.808594 102.632812 84.136719 C 102.238281 84.464844 101.859375 84.816406 101.503906 85.183594 C 101.144531 85.554688 100.808594 85.941406 100.492188 86.347656 C 100.175781 86.753906 99.886719 87.175781 99.617188 87.613281 C 99.347656 88.054688 99.101562 88.503906 98.882812 88.96875 C 98.664062 89.433594 98.472656 89.910156 98.304688 90.394531 C 98.136719 90.882812 98 91.375 97.886719 91.875 C 97.773438 92.378906 97.6875 92.882812 97.632812 93.394531 C 97.574219 93.90625 97.546875 94.417969 97.546875 94.929688 C 97.546875 95.238281 97.515625 95.542969 97.457031 95.84375 C 97.394531 96.144531 97.308594 96.4375 97.1875 96.71875 C 97.070312 97.003906 96.925781 97.273438 96.753906 97.527344 C 96.585938 97.785156 96.390625 98.019531 96.171875 98.238281 C 95.953125 98.453125 95.71875 98.648438 95.460938 98.820312 C 95.203125 98.988281 94.933594 99.132812 94.648438 99.25 C 94.367188 99.367188 94.070312 99.457031 93.769531 99.515625 C 93.46875 99.578125 93.164062 99.605469 92.855469 99.605469 C 92.546875 99.605469 92.242188 99.578125 91.9375 99.515625 C 91.636719 99.457031 91.34375 99.367188 91.058594 99.25 C 90.773438 99.132812 90.503906 98.988281 90.246094 98.820312 C 89.992188 98.648438 89.753906 98.453125 89.535156 98.238281 C 89.320312 98.019531 89.125 97.785156 88.953125 97.527344 C 88.78125 97.273438 88.636719 97.003906 88.519531 96.71875 C 88.402344 96.4375 88.3125 96.144531 88.253906 95.84375 C 88.191406 95.542969 88.164062 95.238281 88.164062 94.929688 C 88.164062 94.226562 88.195312 93.527344 88.257812 92.828125 C 88.320312 92.128906 88.414062 91.433594 88.539062 90.742188 C 88.667969 90.050781 88.824219 89.367188 89.011719 88.691406 C 89.199219 88.015625 89.417969 87.347656 89.664062 86.6875 C 89.914062 86.03125 90.191406 85.386719 90.496094 84.753906 C 90.804688 84.121094 91.136719 83.503906 91.5 82.902344 C 91.863281 82.300781 92.25 81.714844 92.664062 81.148438 C 93.082031 80.582031 93.519531 80.03125 93.984375 79.503906 C 94.449219 78.976562 94.9375 78.46875 95.449219 77.984375 C 95.957031 77.5 96.488281 77.042969 97.039062 76.605469 C 97.59375 76.167969 98.164062 75.757812 98.753906 75.371094 C 99.339844 74.988281 99.945312 74.628906 100.566406 74.296875 C 101.1875 73.964844 101.824219 73.664062 102.472656 73.390625 C 103.121094 73.117188 103.78125 72.871094 104.453125 72.65625 C 105.121094 72.441406 105.800781 72.257812 106.488281 72.105469 C 107.175781 71.949219 107.871094 71.828125 108.570312 71.734375 C 109.265625 71.644531 109.96875 71.585938 110.671875 71.554688 C 111.375 71.527344 112.082031 71.53125 112.785156 71.566406 C 113.488281 71.597656 114.1875 71.664062 114.886719 71.761719 C 115.582031 71.859375 116.277344 71.988281 116.960938 72.148438 C 117.648438 72.308594 118.324219 72.5 118.996094 72.71875 C 119.664062 72.941406 120.320312 73.191406 120.96875 73.46875 C 121.613281 73.75 122.246094 74.054688 122.863281 74.394531 C 123.484375 74.730469 124.085938 75.09375 124.671875 75.484375 C 125.257812 75.875 125.824219 76.289062 126.371094 76.730469 C 126.917969 77.171875 127.445312 77.636719 127.953125 78.125 C 128.460938 78.613281 128.941406 79.125 129.402344 79.65625 C 129.863281 80.1875 130.296875 80.738281 130.707031 81.3125 C 131.117188 81.882812 131.5 82.46875 131.859375 83.074219 C 132.214844 83.679688 132.542969 84.300781 132.84375 84.9375 C 133.144531 85.570312 133.417969 86.21875 133.660156 86.878906 C 133.902344 87.539062 134.113281 88.207031 134.296875 88.882812 C 134.476562 89.5625 134.628906 90.25 134.75 90.941406 C 134.867188 91.632812 134.957031 92.328125 135.015625 93.027344 C 135.070312 93.726562 135.097656 94.429688 135.089844 95.132812 C 135.085938 95.835938 135.046875 96.535156 134.976562 97.234375 C 134.90625 97.933594 134.808594 98.625 134.675781 99.316406 C 134.542969 100.007812 134.378906 100.6875 134.183594 101.363281 C 133.992188 102.039062 133.765625 102.703125 133.511719 103.359375 C 133.257812 104.015625 132.976562 104.65625 132.664062 105.285156 C 132.351562 105.914062 132.011719 106.53125 131.644531 107.128906 C 131.277344 107.726562 130.882812 108.308594 130.460938 108.875 C 130.042969 109.4375 129.597656 109.980469 129.128906 110.503906 C 128.660156 111.027344 128.167969 111.53125 127.652344 112.011719 C 127.136719 112.488281 126.601562 112.945312 126.046875 113.375 C 125.492188 113.808594 124.917969 114.214844 124.324219 114.59375 C 123.730469 114.972656 123.125 115.328125 122.5 115.652344 C 121.875 115.976562 121.238281 116.273438 120.585938 116.542969 C 119.929688 116.851562 119.328125 117.246094 118.789062 117.726562 C 118.246094 118.210938 117.785156 118.761719 117.40625 119.378906 C 117.027344 119.996094 116.746094 120.652344 116.558594 121.355469 C 116.371094 122.054688 116.289062 122.765625 116.3125 123.488281 L 116.3125 132.34375 C 116.3125 132.648438 116.28125 132.953125 116.222656 133.253906 C 116.164062 133.554688 116.074219 133.847656 115.957031 134.132812 C 115.835938 134.414062 115.691406 134.683594 115.523438 134.941406 C 115.351562 135.195312 115.15625 135.433594 114.9375 135.648438 C 114.722656 135.867188 114.484375 136.058594 114.226562 136.230469 C 113.972656 136.402344 113.703125 136.546875 113.417969 136.664062 C 113.132812 136.78125 112.839844 136.871094 112.535156 136.929688 C 112.234375 136.988281 111.929688 137.019531 111.621094 137.019531 Z M 111.621094 137.019531 " fill-opacity="1" fill-rule="nonzero"/><path fill="#000000" d="M 117.875 151.046875 C 117.875 151.457031 117.835938 151.863281 117.757812 152.265625 C 117.675781 152.667969 117.558594 153.054688 117.402344 153.433594 C 117.242188 153.8125 117.050781 154.171875 116.824219 154.511719 C 116.59375 154.851562 116.335938 155.167969 116.042969 155.457031 C 115.753906 155.746094 115.4375 156.003906 115.097656 156.234375 C 114.753906 156.460938 114.394531 156.652344 114.015625 156.808594 C 113.636719 156.964844 113.246094 157.085938 112.839844 157.164062 C 112.4375 157.242188 112.03125 157.285156 111.621094 157.285156 C 111.210938 157.285156 110.804688 157.242188 110.402344 157.164062 C 109.996094 157.085938 109.605469 156.964844 109.226562 156.808594 C 108.847656 156.652344 108.488281 156.460938 108.144531 156.234375 C 107.804688 156.003906 107.488281 155.746094 107.199219 155.457031 C 106.90625 155.167969 106.648438 154.851562 106.417969 154.511719 C 106.191406 154.171875 106 153.8125 105.839844 153.433594 C 105.683594 153.054688 105.566406 152.667969 105.484375 152.265625 C 105.40625 151.863281 105.367188 151.457031 105.367188 151.046875 C 105.367188 150.640625 105.40625 150.234375 105.484375 149.832031 C 105.566406 149.429688 105.683594 149.039062 105.839844 148.664062 C 106 148.285156 106.191406 147.925781 106.417969 147.585938 C 106.648438 147.242188 106.90625 146.929688 107.199219 146.640625 C 107.488281 146.351562 107.804688 146.089844 108.144531 145.863281 C 108.488281 145.636719 108.847656 145.445312 109.226562 145.289062 C 109.605469 145.132812 109.996094 145.011719 110.402344 144.933594 C 110.804688 144.851562 111.210938 144.8125 111.621094 144.8125 C 112.03125 144.8125 112.4375 144.851562 112.839844 144.933594 C 113.246094 145.011719 113.636719 145.132812 114.015625 145.289062 C 114.394531 145.445312 114.753906 145.636719 115.097656 145.863281 C 115.4375 146.089844 115.753906 146.351562 116.042969 146.640625 C 116.335938 146.929688 116.59375 147.242188 116.824219 147.585938 C 117.050781 147.925781 117.242188 148.285156 117.402344 148.664062 C 117.558594 149.039062 117.675781 149.429688 117.757812 149.832031 C 117.835938 150.234375 117.875 150.640625 117.875 151.046875 Z M 117.875 151.046875 " fill-opacity="1" fill-rule="nonzero"/></svg>