<svg xmlns="http://www.w3.org/2000/svg" xmlns:xlink="http://www.w3.org/1999/xlink" width="300" zoomAndPan="magnify" viewBox="0 0 224.87999 225" height="300" preserveAspectRatio="xMidYMid meet" version="1.0"><defs><clipPath id="e8c0f6f9af"><path d="M 52.585938 51.265625 L 172.519531 51.265625 L 172.519531 173.453125 L 52.585938 173.453125 Z M 52.585938 51.265625 " clip-rule="nonzero"/></clipPath></defs><g clip-path="url(#e8c0f6f9af)"><path fill="#000000" d="M 135.8125 78.441406 C 136.070312 64.207031 127.675781 51.675781 112.484375 51.675781 C 97.304688 51.675781 88.886719 64.402344 89.132812 78.582031 C 89.273438 86.738281 92.390625 95.378906 98.992188 100.539062 C 92.066406 101.144531 85.910156 103.222656 81.410156 107.167969 C 75.847656 112.089844 74.257812 117.898438 74.019531 125.019531 L 74.019531 141.0625 L 150.949219 141.0625 L 150.949219 125.019531 C 150.6875 117.703125 148.925781 111.660156 143.007812 106.789062 C 138.234375 102.855469 131.992188 101.078125 125.902344 100.539062 C 132.511719 95.355469 135.648438 86.617188 135.800781 78.441406 Z M 158.933594 106.917969 C 161.910156 109.363281 162.90625 112.714844 162.90625 116.464844 L 162.90625 122.8125 L 155.621094 122.8125 L 155.675781 129.914062 L 170.023438 129.914062 L 170.023438 116.464844 C 170.023438 110.601562 168.085938 105.257812 163.46875 101.457031 C 160.003906 98.601562 155.613281 97.125 151.199219 96.53125 C 152.246094 95.519531 153.1875 94.386719 153.988281 93.179688 C 158.816406 85.917969 159.34375 75.457031 155.4375 67.6875 C 151.425781 59.851562 143.148438 56.234375 134.589844 58.054688 C 136.058594 60.113281 137.261719 62.375 138.179688 64.722656 C 143.148438 64.53125 146.824219 66.578125 149.097656 70.898438 C 151.890625 76.359375 151.457031 84.183594 148.058594 89.28125 C 146.382812 91.800781 144.585938 92.726562 142.195312 94.226562 L 142.195312 103.105469 L 147.292969 103.289062 C 151.261719 103.425781 155.785156 104.332031 158.933594 106.917969 Z M 158.316406 148.273438 L 154.238281 152.832031 L 160.222656 154.125 L 163.304688 159.390625 L 166.398438 154.125 L 172.382812 152.832031 L 168.304688 148.273438 L 168.921875 142.207031 L 163.304688 144.664062 L 157.699219 142.207031 Z M 130.824219 160.675781 L 136.816406 161.96875 L 139.902344 167.238281 L 142.984375 161.96875 L 148.96875 160.675781 L 144.898438 156.117188 L 145.507812 150.050781 L 139.902344 152.507812 L 134.296875 150.050781 L 134.914062 156.117188 Z M 106.273438 159.21875 L 101.199219 164.878906 L 108.644531 166.484375 L 112.484375 173.042969 L 116.324219 166.484375 L 123.769531 164.878906 L 118.695312 159.21875 L 119.460938 151.667969 L 112.484375 154.726562 L 105.503906 151.667969 Z M 80.078125 156.117188 L 76 160.675781 L 81.984375 161.96875 L 85.066406 167.238281 L 88.148438 161.96875 L 94.144531 160.675781 L 90.066406 156.117188 L 90.671875 150.050781 L 85.066406 152.507812 L 79.460938 150.050781 Z M 67.269531 142.207031 L 61.652344 144.664062 L 56.046875 142.207031 L 56.664062 148.273438 L 52.585938 152.832031 L 58.578125 154.125 L 61.664062 159.390625 L 64.746094 154.125 L 70.730469 152.832031 L 66.652344 148.273438 Z M 86.820312 64.722656 C 87.75 62.351562 88.941406 60.121094 90.421875 58.042969 C 81.789062 56.234375 73.566406 59.875 69.519531 67.785156 C 65.589844 75.507812 66.121094 86.046875 70.96875 93.253906 C 71.757812 94.441406 72.667969 95.539062 73.707031 96.519531 C 68.761719 97.179688 64.367188 98.847656 61.046875 101.757812 C 57.238281 105.097656 54.945312 109.902344 54.945312 116.453125 L 54.945312 129.902344 L 69.28125 129.902344 L 69.34375 122.8125 L 62.0625 122.8125 L 62.0625 116.464844 C 62.0625 112.15625 63.460938 109.105469 65.753906 107.089844 C 68.554688 104.625 72.808594 103.460938 77.675781 103.289062 L 82.773438 103.105469 L 82.773438 94.257812 C 80.382812 92.761719 78.554688 91.832031 76.863281 89.324219 C 73.457031 84.226562 73.089844 76.425781 75.871094 70.972656 C 78.085938 66.628906 81.886719 64.496094 86.820312 64.722656 Z M 123.21875 107.457031 C 128.464844 107.652344 134.339844 108.847656 138.472656 112.253906 C 142.453125 115.527344 143.828125 120.019531 143.828125 125.019531 L 143.828125 133.972656 L 81.140625 133.972656 L 81.140625 125.019531 C 81.140625 119.289062 83.019531 115.203125 86.117188 112.488281 C 89.828125 109.222656 95.398438 107.683594 101.75 107.457031 L 107.28125 107.273438 L 107.28125 97.511719 C 99.707031 92.769531 96.394531 87.761719 96.234375 78.472656 C 96.058594 68.3125 101.328125 58.777344 112.484375 58.777344 C 123.617188 58.777344 128.898438 68.140625 128.714844 78.320312 C 128.53125 87.621094 125.25 92.695312 117.6875 97.46875 L 117.6875 107.273438 L 123.21875 107.457031 " fill-opacity="1" fill-rule="nonzero"/></g></svg>