<svg xmlns="http://www.w3.org/2000/svg" xmlns:xlink="http://www.w3.org/1999/xlink" width="300" zoomAndPan="magnify" viewBox="0 0 224.87999 225" height="300" preserveAspectRatio="xMidYMid meet" version="1.0"><defs><clipPath id="abe479f0e1"><path d="M 40.890625 39.304688 L 184 39.304688 L 184 185 L 40.890625 185 Z M 40.890625 39.304688 " clip-rule="nonzero"/></clipPath></defs><g clip-path="url(#abe479f0e1)"><path fill="#136035" d="M 140.242188 71.8125 C 140.550781 54.78125 130.527344 39.792969 112.394531 39.792969 C 94.273438 39.792969 84.222656 55.015625 84.519531 71.980469 C 84.6875 81.738281 88.410156 92.074219 96.289062 98.25 C 88.023438 98.972656 80.671875 101.457031 75.300781 106.175781 C 68.660156 112.066406 66.761719 119.015625 66.476562 127.535156 L 66.476562 146.730469 L 158.3125 146.730469 L 158.3125 127.535156 C 158 118.78125 155.894531 111.550781 148.832031 105.726562 C 143.136719 101.019531 135.683594 98.894531 128.410156 98.25 C 136.300781 92.046875 140.046875 81.59375 140.230469 71.8125 Z M 167.84375 105.878906 C 171.394531 108.804688 172.585938 112.816406 172.585938 117.300781 L 172.585938 124.894531 L 163.890625 124.894531 L 163.957031 133.386719 L 181.082031 133.386719 L 181.082031 117.300781 C 181.082031 110.289062 178.769531 103.894531 173.253906 99.34375 C 169.121094 95.929688 163.878906 94.164062 158.609375 93.453125 C 159.863281 92.242188 160.984375 90.886719 161.941406 89.445312 C 167.703125 80.757812 168.335938 68.242188 163.671875 58.945312 C 158.878906 49.574219 149 45.246094 138.78125 47.421875 C 140.539062 49.882812 141.972656 52.589844 143.070312 55.402344 C 149 55.167969 153.390625 57.617188 156.101562 62.789062 C 159.433594 69.324219 158.917969 78.679688 154.863281 84.777344 C 152.859375 87.792969 150.71875 88.902344 147.863281 90.695312 L 147.863281 101.316406 L 153.945312 101.535156 C 158.6875 101.703125 164.085938 102.785156 167.84375 105.878906 Z M 167.109375 155.351562 L 162.238281 160.804688 L 169.378906 162.351562 L 173.0625 168.65625 L 176.757812 162.351562 L 183.898438 160.804688 L 179.027344 155.351562 L 179.765625 148.09375 L 173.0625 151.035156 L 166.371094 148.09375 Z M 134.289062 170.1875 L 141.441406 171.734375 L 145.125 178.039062 L 148.804688 171.734375 L 155.949219 170.1875 L 151.089844 164.738281 L 151.816406 157.480469 L 145.125 160.417969 L 138.433594 157.480469 L 139.167969 164.738281 Z M 104.980469 168.449219 L 98.921875 175.214844 L 107.808594 177.136719 L 112.394531 184.988281 L 116.980469 177.136719 L 125.867188 175.214844 L 119.808594 168.449219 L 120.726562 159.414062 L 112.394531 163.074219 L 104.0625 159.414062 Z M 73.710938 164.738281 L 68.839844 170.1875 L 75.984375 171.734375 L 79.664062 178.039062 L 83.347656 171.734375 L 90.5 170.1875 L 85.632812 164.738281 L 86.355469 157.480469 L 79.664062 160.417969 L 72.972656 157.480469 Z M 58.417969 148.09375 L 51.714844 151.035156 L 45.023438 148.09375 L 45.757812 155.351562 L 40.890625 160.804688 L 48.046875 162.351562 L 51.726562 168.65625 L 55.40625 162.351562 L 62.550781 160.804688 L 57.679688 155.351562 Z M 81.757812 55.402344 C 82.867188 52.566406 84.289062 49.898438 86.058594 47.410156 C 75.75 45.246094 65.933594 49.601562 61.105469 59.0625 C 56.414062 68.304688 57.046875 80.910156 62.835938 89.535156 C 63.777344 90.953125 64.863281 92.269531 66.101562 93.441406 C 60.199219 94.226562 54.957031 96.226562 50.992188 99.707031 C 46.445312 103.703125 43.707031 109.449219 43.707031 117.289062 L 43.707031 133.375 L 60.820312 133.375 L 60.898438 124.894531 L 52.203125 124.894531 L 52.203125 117.300781 C 52.203125 112.144531 53.871094 108.496094 56.609375 106.085938 C 59.953125 103.132812 65.03125 101.742188 70.84375 101.535156 L 76.925781 101.316406 L 76.925781 90.734375 C 74.070312 88.941406 71.890625 87.832031 69.875 84.832031 C 65.804688 78.734375 65.367188 69.402344 68.6875 62.878906 C 71.332031 57.683594 75.867188 55.132812 81.757812 55.402344 Z M 125.207031 106.523438 C 131.472656 106.757812 138.484375 108.1875 143.417969 112.261719 C 148.171875 116.179688 149.8125 121.554688 149.8125 127.535156 L 149.8125 138.246094 L 74.976562 138.246094 L 74.976562 127.535156 C 74.976562 120.679688 77.222656 115.792969 80.917969 112.542969 C 85.347656 108.636719 92 106.796875 99.582031 106.523438 L 106.183594 106.304688 L 106.183594 94.625 C 97.140625 88.953125 93.1875 82.960938 92.996094 71.851562 C 92.789062 59.695312 99.078125 48.285156 112.394531 48.285156 C 125.683594 48.285156 131.988281 59.488281 131.769531 71.667969 C 131.550781 82.792969 127.636719 88.863281 118.605469 94.574219 L 118.605469 106.304688 L 125.207031 106.523438 " fill-opacity="1" fill-rule="nonzero"/></g></svg>