<svg xmlns="http://www.w3.org/2000/svg" xmlns:xlink="http://www.w3.org/1999/xlink" width="300" zoomAndPan="magnify" viewBox="0 0 224.87999 225" height="300" preserveAspectRatio="xMidYMid meet" version="1.0"><defs><clipPath id="74742d28ff"><path d="M 6.648438 52 L 218 52 L 218 173.347656 L 6.648438 173.347656 Z M 6.648438 52 " clip-rule="nonzero"/></clipPath><clipPath id="e9efa211f8"><path d="M 32 74 L 218 74 L 218 173.347656 L 32 173.347656 Z M 32 74 " clip-rule="nonzero"/></clipPath><clipPath id="a072c4a606"><path d="M 6.648438 76 L 184 76 L 184 173.347656 L 6.648438 173.347656 Z M 6.648438 76 " clip-rule="nonzero"/></clipPath><clipPath id="6739206afb"><path d="M 14 52 L 210 52 L 210 173.347656 L 14 173.347656 Z M 14 52 " clip-rule="nonzero"/></clipPath></defs><g clip-path="url(#74742d28ff)"><path fill="#d37643" d="M 215.652344 90.214844 C 214.410156 88.753906 212.605469 87.914062 210.703125 87.914062 L 199.976562 87.914062 L 199.914062 87.847656 C 197.640625 85.390625 195.808594 83.617188 195.773438 83.582031 C 194.050781 81.488281 191.832031 79.804688 189.359375 78.703125 L 184.558594 76.5625 L 184.558594 75.15625 L 184.074219 74.898438 L 184.074219 71.019531 C 184.074219 71.019531 183.996094 70.992188 183.863281 70.929688 L 183.863281 70.914062 L 183.949219 70.851562 C 183.980469 70.828125 187.007812 68.554688 187.007812 63.195312 C 187.007812 60.664062 185.929688 60.46875 185.601562 60.46875 C 185.558594 60.46875 185.53125 60.472656 185.527344 60.472656 L 185.285156 60.515625 L 185.28125 60.265625 C 185.28125 60.253906 185.253906 58.890625 184.246094 58.539062 C 183.433594 58.253906 182.371094 58.128906 180.800781 58.128906 L 172.039062 58.128906 C 172.171875 58.707031 172.609375 60.230469 173.78125 61.726562 L 173.878906 61.847656 L 173.789062 61.976562 C 173.78125 61.992188 173.769531 62.011719 173.757812 62.027344 C 173.714844 61.96875 173.660156 61.914062 173.617188 61.859375 C 172.945312 62.835938 172.546875 64.023438 172.546875 65.304688 C 172.546875 65.636719 172.582031 65.964844 172.632812 66.285156 L 170.769531 68.570312 C 170.644531 68.773438 170.710938 69.042969 170.914062 69.167969 L 172.269531 70.007812 L 172.691406 72.699219 C 172.792969 73.359375 173.363281 73.847656 174.027344 73.847656 L 176.789062 73.847656 L 176.789062 74.988281 L 176.363281 75.167969 L 176.363281 78.023438 L 174.21875 78.792969 C 171.742188 79.675781 169.453125 80.964844 167.417969 82.625 L 158.234375 90.097656 L 146.992188 82.78125 C 146.6875 82.585938 146.335938 82.480469 145.976562 82.480469 C 145.679688 82.480469 145.382812 82.554688 145.117188 82.6875 L 145 82.746094 L 143.667969 81.769531 C 143.632812 81.742188 143.589844 81.730469 143.546875 81.730469 C 143.5 81.730469 143.457031 81.742188 143.417969 81.769531 L 143.296875 81.855469 L 143.152344 81.75 L 143.191406 81.691406 C 143.222656 81.652344 143.257812 81.621094 143.296875 81.597656 L 143.015625 81.390625 L 140.699219 76.511719 C 140.527344 76.175781 140.285156 75.886719 139.988281 75.65625 L 138.027344 74.136719 C 137.800781 73.960938 137.46875 74.089844 137.417969 74.371094 L 137.335938 74.832031 C 137.289062 75.09375 137.355469 75.359375 137.519531 75.566406 L 138.570312 76.894531 L 138.769531 78.667969 L 132.988281 74.40625 C 132.625 74.136719 132.113281 74.375 132.082031 74.824219 L 131.859375 78.105469 C 131.832031 78.523438 131.925781 78.9375 132.136719 79.296875 L 133.875 82.28125 C 134.171875 82.792969 134.621094 83.203125 135.15625 83.453125 C 136.050781 83.875 138.667969 84.996094 138.667969 84.996094 L 140.050781 86.035156 C 140.058594 86.011719 140.066406 85.988281 140.082031 85.964844 L 140.160156 85.855469 L 140.3125 85.96875 L 140.238281 86.128906 C 140.191406 86.226562 140.214844 86.335938 140.300781 86.394531 L 141.398438 87.199219 L 141.339844 87.351562 C 141.03125 88.144531 141.28125 89.046875 141.960938 89.558594 C 142.09375 89.667969 155.019531 100.550781 159.386719 100.550781 L 159.46875 100.546875 C 161.144531 100.496094 164.351562 99.003906 168.738281 96.242188 L 169.0625 96.039062 L 169.0625 110.199219 L 142.320312 110.199219 L 142.320312 109.175781 L 138.609375 109.175781 L 138.609375 108.753906 C 139.21875 108.753906 139.738281 108.335938 139.875 107.738281 L 139.898438 107.628906 L 140 107.589844 C 140.855469 107.242188 141.972656 106.640625 142.445312 105.746094 C 142.730469 105.207031 142.753906 104.628906 142.519531 104.019531 C 142.316406 103.492188 141.972656 103.132812 141.496094 102.949219 C 141.257812 102.863281 140.988281 102.816406 140.6875 102.816406 C 140.519531 102.816406 140.339844 102.832031 140.152344 102.859375 L 139.910156 102.898438 L 139.910156 101.949219 L 132.082031 101.949219 L 132.082031 107.453125 C 132.082031 108.167969 132.664062 108.753906 133.378906 108.753906 L 133.378906 109.175781 L 130.425781 109.175781 L 130.425781 110.199219 L 119.476562 110.199219 L 124.636719 88.605469 C 124.675781 88.4375 124.636719 88.261719 124.53125 88.128906 C 124.425781 87.992188 124.265625 87.914062 124.09375 87.914062 L 95.589844 87.914062 C 95.328125 87.914062 95.105469 88.089844 95.046875 88.34375 L 90.101562 109.039062 L 88.515625 109.039062 L 88.371094 108.828125 L 88.625 108.828125 L 87.082031 106.515625 C 86.683594 105.925781 85.976562 105.628906 85.28125 105.765625 L 80.25 106.742188 L 78.980469 106.742188 L 78.980469 106.953125 L 78.769531 106.953125 L 78.769531 105.828125 L 71.359375 105.117188 L 70.898438 99.695312 L 71 99.625 C 71.039062 99.597656 74.933594 96.84375 72.480469 90.796875 C 72.25 90.234375 72.027344 89.671875 71.804688 89.109375 C 69.402344 83.09375 67.136719 77.414062 61.730469 76.402344 L 61.558594 76.371094 L 61.558594 74.511719 L 61.769531 74.511719 L 61.769531 73.523438 L 64.527344 73.523438 C 65.195312 73.523438 65.761719 73.039062 65.867188 72.378906 L 66.289062 69.6875 L 67.640625 68.847656 C 67.847656 68.722656 67.910156 68.453125 67.785156 68.246094 L 65.921875 65.964844 C 65.976562 65.644531 66.007812 65.316406 66.007812 64.984375 C 66.007812 64.316406 65.898438 63.675781 65.699219 63.074219 C 65.648438 63.136719 65.589844 63.191406 65.53125 63.25 C 65.519531 63.214844 65.511719 63.175781 65.5 63.140625 L 65.464844 63.03125 L 65.535156 62.941406 C 65.796875 62.617188 65.90625 62.261719 65.871094 61.851562 C 65.683594 59.734375 62.917969 58.785156 60.394531 58.605469 L 60.042969 58.582031 L 60.230469 58.285156 C 60.625 57.652344 60.832031 56.929688 60.832031 56.191406 C 60.832031 54.015625 59.066406 52.242188 56.898438 52.242188 C 54.726562 52.242188 52.960938 54.015625 52.960938 56.191406 C 52.960938 57.484375 53.597656 58.699219 54.664062 59.4375 L 54.929688 59.625 L 54.65625 59.792969 C 52.871094 60.890625 51.800781 62.675781 51.640625 64.824219 C 51.4375 67.503906 52.496094 68.640625 53.429688 69.644531 C 53.988281 70.246094 54.515625 70.8125 54.6875 71.621094 L 54.691406 71.640625 L 54.691406 71.664062 C 54.5625 71.691406 54.488281 71.691406 54.480469 71.664062 L 54.480469 74.511719 L 54.691406 74.511719 L 54.691406 76.546875 L 54.519531 76.578125 C 50.78125 77.246094 47.628906 79.96875 46.292969 83.683594 C 46.066406 84.304688 45.804688 85.011719 45.515625 85.78125 C 45.285156 86.40625 45.039062 87.074219 44.78125 87.773438 L 44.730469 87.914062 L 31.027344 87.914062 C 29.125 87.914062 27.320312 88.753906 26.078125 90.214844 C 24.816406 91.699219 24.269531 93.660156 24.582031 95.597656 L 26.929688 110.199219 L 19.382812 110.199219 L 19.382812 103.222656 L 18.152344 103.222656 L 19.722656 96.785156 C 19.746094 96.683594 19.683594 96.578125 19.578125 96.550781 C 19.5625 96.546875 19.546875 96.546875 19.53125 96.546875 C 19.445312 96.546875 19.367188 96.605469 19.34375 96.695312 L 17.75 103.222656 L 16.238281 103.222656 L 14.644531 96.695312 C 14.625 96.605469 14.546875 96.546875 14.457031 96.546875 C 14.441406 96.546875 14.425781 96.546875 14.410156 96.550781 C 14.304688 96.578125 14.242188 96.683594 14.269531 96.785156 L 15.839844 103.222656 L 14.710938 103.222656 L 14.710938 110.199219 L 6.859375 110.199219 L 6.859375 173.003906 L 11.53125 173.003906 L 11.53125 114.882812 L 27.679688 114.882812 L 31.148438 136.46875 L 43.875 136.46875 L 43.875 169.480469 L 32.984375 169.480469 C 32.015625 169.480469 31.230469 170.273438 31.230469 171.242188 C 31.230469 172.214844 32.015625 173.003906 32.984375 173.003906 C 33.953125 173.003906 34.742188 172.214844 34.742188 171.242188 C 34.742188 170.996094 34.6875 170.753906 34.582031 170.519531 L 34.449219 170.21875 L 55.886719 170.21875 L 55.753906 170.519531 C 55.648438 170.753906 55.59375 170.996094 55.59375 171.242188 C 55.59375 172.214844 56.382812 173.003906 57.347656 173.003906 C 58.316406 173.003906 59.105469 172.214844 59.105469 171.242188 C 59.105469 170.273438 58.316406 169.480469 57.363281 169.480469 L 57.332031 169.484375 L 57.105469 169.480469 L 46.460938 169.480469 L 46.460938 136.46875 L 68.605469 136.46875 L 60.101562 165.070312 L 65.519531 165.070312 L 64.027344 173.003906 L 68.453125 173.003906 L 69.222656 169.898438 L 74.222656 173.003906 L 86.796875 173.003906 C 86.753906 172.285156 86.234375 169.683594 81.171875 168.082031 C 80.265625 167.796875 79.25 166.894531 78.15625 165.40625 L 77.910156 165.070312 L 79.316406 165.070312 L 84.71875 134.679688 L 85.136719 134.699219 L 87.777344 165.070312 L 90.867188 165.070312 L 89.375 173.003906 L 93.800781 173.003906 L 94.570312 169.898438 L 99.570312 173.003906 L 112.144531 173.003906 C 112.101562 172.285156 111.582031 169.683594 106.519531 168.082031 C 105.613281 167.796875 104.597656 166.894531 103.503906 165.40625 L 103.253906 165.070312 L 106.992188 165.070312 L 96.445312 122.707031 C 95.882812 120.441406 94.03125 118.75 91.726562 118.402344 L 71.472656 115.328125 L 71.316406 115.277344 L 71.25 114.882812 L 169.0625 114.882812 L 169.0625 117.125 L 168.921875 116.925781 L 168.875 117.335938 L 147.539062 119.367188 C 144.84375 119.625 142.539062 121.449219 141.667969 124.023438 L 126.71875 168.089844 L 129.617188 168.089844 L 129.707031 168.492188 C 128.054688 169.277344 126.046875 169.789062 123.734375 170.019531 C 121.632812 170.226562 121.007812 171.929688 120.957031 173.003906 L 142.734375 173.003906 L 142.28125 168.089844 L 145.234375 168.089844 L 152.339844 146.027344 L 152.753906 146.074219 L 154.285156 168.089844 L 157.609375 168.089844 L 157.699219 168.492188 C 156.050781 169.277344 154.039062 169.789062 151.726562 170.019531 C 149.628906 170.226562 149 171.929688 148.949219 173.003906 L 170.726562 173.003906 L 170.277344 168.089844 L 172.816406 168.089844 L 169.238281 136.46875 L 193.613281 136.46875 L 193.613281 169.480469 L 182.722656 169.480469 C 181.753906 169.480469 180.96875 170.273438 180.96875 171.242188 C 180.96875 172.214844 181.753906 173.003906 182.722656 173.003906 C 183.691406 173.003906 184.480469 172.214844 184.480469 171.242188 C 184.480469 170.996094 184.425781 170.753906 184.320312 170.519531 L 184.183594 170.21875 L 205.625 170.21875 L 205.488281 170.519531 C 205.382812 170.753906 205.332031 170.996094 205.332031 171.242188 C 205.332031 172.214844 206.117188 173.003906 207.085938 173.003906 C 208.054688 173.003906 208.84375 172.214844 208.84375 171.242188 C 208.84375 170.273438 208.054688 169.480469 207.097656 169.480469 L 207.070312 169.484375 L 206.84375 169.480469 L 196.199219 169.480469 L 196.199219 136.46875 L 210.582031 136.46875 L 217.148438 95.597656 C 217.460938 93.660156 216.914062 91.699219 215.652344 90.214844 Z M 139.90625 103.179688 L 140.078125 103.148438 C 140.296875 103.109375 140.5 103.085938 140.6875 103.085938 C 140.949219 103.085938 141.191406 103.128906 141.398438 103.207031 C 141.800781 103.359375 142.089844 103.667969 142.265625 104.117188 C 142.472656 104.65625 142.453125 105.144531 142.207031 105.617188 C 141.886719 106.21875 141.214844 106.753906 140.203125 107.203125 L 139.90625 107.335938 Z M 139.90625 103.179688 " fill-opacity="1" fill-rule="nonzero"/></g><g clip-path="url(#e9efa211f8)"><path fill="#caddff" d="M 71.554688 104.921875 L 78.980469 105.632812 L 78.980469 108.824219 L 78.792969 108.824219 L 78.792969 112.625 L 68.414062 112.625 L 68.414062 122.246094 L 32.894531 122.246094 L 32.894531 88.519531 L 44.285156 88.519531 C 44.386719 88.242188 44.484375 87.96875 44.582031 87.703125 C 45.15625 86.136719 45.6875 84.734375 46.09375 83.609375 C 47.453125 79.839844 50.621094 77.058594 54.480469 76.371094 L 54.480469 74.511719 L 61.769531 74.511719 L 61.769531 76.195312 C 67.792969 77.320312 69.9375 83.976562 72.675781 90.71875 C 75.222656 96.988281 71.121094 99.796875 71.121094 99.796875 Z M 129.617188 168.300781 C 128.28125 168.933594 126.371094 169.546875 123.710938 169.808594 C 121.523438 170.023438 120.742188 171.824219 120.742188 173.148438 L 120.742188 173.21875 L 142.964844 173.21875 L 142.511719 168.300781 Z M 157.609375 168.300781 C 156.277344 168.933594 154.367188 169.546875 151.707031 169.808594 C 149.519531 170.023438 148.738281 171.824219 148.738281 173.148438 L 148.738281 173.21875 L 170.957031 173.21875 L 170.507812 168.300781 Z M 210.703125 87.703125 L 192.886719 87.703125 L 192.886719 114.605469 L 191.878906 114.605469 C 191.277344 115.027344 190.375 115.0625 189.621094 115.0625 L 185.1875 115.0625 L 183.769531 116.847656 C 183.679688 116.960938 183.546875 117.027344 183.402344 117.027344 C 183.042969 117.027344 182.820312 116.636719 183 116.324219 L 183.582031 115.308594 L 181.96875 116.789062 C 181.792969 116.941406 181.570312 117.027344 181.335938 117.027344 L 180.601562 117.027344 C 180.089844 117.683594 179.714844 118.449219 179.5 119.28125 C 179.375 119.777344 179.300781 120.289062 179.300781 120.820312 L 179.300781 132.269531 L 168.976562 132.269531 L 169.472656 136.679688 L 210.761719 136.679688 L 217.355469 95.628906 C 218.023438 91.472656 214.859375 87.703125 210.703125 87.703125 Z M 210.703125 87.703125 " fill-opacity="1" fill-rule="nonzero"/></g><g clip-path="url(#a072c4a606)"><path fill="#096b72" d="M 112.355469 173.21875 L 99.511719 173.21875 L 94.703125 170.230469 L 93.964844 173.21875 L 89.121094 173.21875 L 90.613281 165.28125 L 91.171875 159.246094 L 102.878906 159.246094 L 103.671875 165.28125 C 104.5625 166.488281 105.589844 167.566406 106.582031 167.878906 C 112.734375 169.828125 112.355469 173.21875 112.355469 173.21875 Z M 81.234375 167.878906 C 80.242188 167.566406 77.792969 165.28125 77.792969 165.28125 L 77.792969 159.246094 L 66.085938 159.246094 L 65.265625 165.28125 L 63.773438 173.214844 L 68.617188 173.214844 L 69.359375 170.230469 L 74.164062 173.214844 L 87.007812 173.214844 C 87.007812 173.21875 87.386719 169.828125 81.234375 167.878906 Z M 131.871094 107.449219 L 131.871094 101.738281 L 140.117188 101.738281 L 140.117188 102.652344 C 140.589844 102.578125 141.105469 102.578125 141.570312 102.753906 C 142.105469 102.957031 142.492188 103.355469 142.71875 103.941406 C 142.976562 104.609375 142.945312 105.25 142.632812 105.84375 C 142.132812 106.789062 140.992188 107.414062 140.078125 107.785156 C 139.925781 108.460938 139.328125 108.964844 138.609375 108.964844 L 133.378906 108.964844 C 132.546875 108.964844 131.871094 108.285156 131.871094 107.449219 Z M 140.117188 107.011719 C 140.859375 106.679688 141.664062 106.1875 142.019531 105.515625 C 142.238281 105.105469 142.253906 104.671875 142.070312 104.195312 C 141.914062 103.796875 141.671875 103.539062 141.324219 103.40625 C 140.953125 103.265625 140.519531 103.28125 140.117188 103.355469 Z M 183.929688 76.75 L 177.679688 76.75 L 172.074219 109.984375 L 69.234375 109.984375 C 69.234375 109.984375 48.246094 109.984375 44.152344 109.984375 C 40.0625 109.984375 37.847656 104.167969 37.847656 104.167969 L 26.570312 104.167969 L 26.679688 109.984375 L 19.59375 109.984375 L 19.085938 103.742188 L 14.921875 103.742188 L 14.5 109.984375 L 6.648438 109.984375 L 6.648438 173.21875 L 11.742188 173.21875 L 11.742188 115.09375 L 27.5 115.09375 L 30.152344 125.886719 L 66.515625 125.886719 C 66.515625 125.886719 67.492188 120.199219 63.25 115.09375 L 177.855469 115.09375 L 177.855469 111.707031 L 183.929688 109.476562 Z M 183.929688 76.75 " fill-opacity="1" fill-rule="nonzero"/></g><path fill="#5fd9c3" d="M 62.429688 132.269531 L 69.632812 132.269531 L 68.320312 136.679688 L 30.96875 136.679688 L 27.5 115.09375 L 58.636719 115.09375 C 60.867188 116.035156 62.429688 118.246094 62.429688 120.820312 Z M 41.152344 107.507812 C 39.140625 103.363281 42.222656 94.140625 44.582031 87.703125 L 31.027344 87.703125 C 26.871094 87.703125 23.707031 91.472656 24.375 95.628906 L 26.679688 109.984375 L 44.152344 109.984375 C 42.703125 109.335938 41.644531 108.523438 41.152344 107.507812 Z M 17.585938 103.011719 L 14.5 103.011719 L 14.5 109.984375 L 19.59375 109.984375 L 19.59375 103.011719 Z M 209.296875 101.902344 C 208.785156 105.890625 203.265625 111.03125 198.777344 114.605469 L 191.878906 114.605469 C 192.28125 114.328125 192.546875 113.878906 192.546875 113.152344 C 192.546875 110.886719 191.140625 111.265625 189.300781 111.265625 L 182.777344 111.265625 L 179.445312 116.179688 C 179.199219 116.539062 179.457031 117.027344 179.890625 117.027344 L 180.601562 117.027344 C 180.089844 117.683594 179.714844 118.449219 179.5 119.28125 C 173.414062 118.605469 168.871094 117.128906 168.851562 117.125 L 168.851562 109.984375 L 168.847656 96.421875 C 165.335938 98.632812 161.535156 100.691406 159.472656 100.761719 C 155.0625 100.902344 141.828125 89.722656 141.828125 89.722656 C 141.054688 89.140625 140.808594 88.132812 141.144531 87.277344 L 140.175781 86.566406 C 140.003906 86.441406 139.960938 86.21875 140.046875 86.035156 C 140.058594 86.011719 140.066406 85.988281 140.082031 85.964844 L 143.191406 81.691406 C 143.222656 81.652344 143.257812 81.621094 143.296875 81.59375 C 143.445312 81.496094 143.640625 81.488281 143.792969 81.597656 L 145.019531 82.5 C 145.667969 82.171875 146.460938 82.183594 147.105469 82.605469 L 158.222656 89.835938 L 167.28125 82.460938 C 169.335938 80.789062 171.65625 79.480469 174.144531 78.589844 L 176.148438 77.875 L 176.148438 75.027344 L 176.785156 74.761719 L 176.785156 75.253906 L 179.640625 76.246094 L 184.074219 75.230469 L 184.074219 74.660156 L 184.769531 75.027344 L 184.769531 76.425781 L 189.445312 78.511719 C 191.960938 79.628906 194.179688 81.320312 195.933594 83.445312 C 195.933594 83.445312 197.765625 85.214844 200.070312 87.703125 C 204.140625 92.097656 209.699219 98.746094 209.296875 101.902344 Z M 180.800781 77.578125 L 178.488281 77.402344 L 179.023438 78.527344 L 174.558594 107.21875 L 176.628906 110.34375 L 179.246094 107.5 L 179.867188 78.570312 Z M 196.945312 102.039062 L 195.726562 100.847656 C 195.648438 101.773438 195.5625 102.695312 195.46875 103.609375 Z M 196.945312 102.039062 " fill-opacity="1" fill-rule="nonzero"/><g clip-path="url(#6739206afb)"><path fill="#000000" d="M 59.316406 171.242188 C 59.316406 172.332031 58.433594 173.21875 57.347656 173.21875 C 56.261719 173.21875 55.382812 172.332031 55.382812 171.242188 C 55.382812 170.953125 55.449219 170.679688 55.558594 170.433594 L 34.773438 170.433594 C 34.886719 170.679688 34.953125 170.953125 34.953125 171.242188 C 34.953125 172.332031 34.070312 173.21875 32.984375 173.21875 C 31.898438 173.21875 31.019531 172.332031 31.019531 171.242188 C 31.019531 170.152344 31.898438 169.269531 32.984375 169.269531 C 32.996094 169.269531 33.007812 169.273438 33.019531 169.273438 L 33.019531 169.269531 L 43.664062 169.269531 L 43.664062 136.679688 L 46.671875 136.679688 L 46.671875 169.269531 L 57.316406 169.269531 L 57.316406 169.273438 C 57.328125 169.273438 57.339844 169.269531 57.347656 169.269531 C 58.433594 169.269531 59.316406 170.152344 59.316406 171.242188 Z M 207.085938 169.269531 C 207.074219 169.269531 207.0625 169.273438 207.054688 169.273438 L 207.054688 169.269531 L 196.410156 169.269531 L 196.410156 136.679688 L 193.398438 136.679688 L 193.398438 169.269531 L 182.753906 169.269531 L 182.753906 169.273438 C 182.742188 169.273438 182.734375 169.269531 182.722656 169.269531 C 181.636719 169.269531 180.753906 170.152344 180.753906 171.242188 C 180.753906 172.332031 181.636719 173.21875 182.722656 173.21875 C 183.808594 173.21875 184.691406 172.332031 184.691406 171.242188 C 184.691406 170.953125 184.625 170.679688 184.511719 170.433594 L 205.296875 170.433594 C 205.183594 170.679688 205.117188 170.953125 205.117188 171.242188 C 205.117188 172.332031 206 173.21875 207.085938 173.21875 C 208.171875 173.21875 209.050781 172.332031 209.050781 171.242188 C 209.050781 170.152344 208.171875 169.269531 207.085938 169.269531 Z M 91.757812 118.191406 L 71.503906 115.121094 L 71.3125 115.09375 L 58.636719 115.09375 C 60.867188 116.035156 62.429688 118.246094 62.429688 120.820312 L 62.429688 132.269531 L 69.632812 132.269531 L 68.320312 136.679688 L 59.820312 165.28125 L 79.496094 165.28125 L 84.925781 134.71875 L 87.585938 165.28125 L 107.257812 165.28125 L 96.652344 122.65625 C 96.066406 120.3125 94.136719 118.550781 91.757812 118.191406 Z M 14.359375 96.34375 C 14.144531 96.398438 14.011719 96.617188 14.0625 96.835938 L 15.570312 103.011719 L 16.402344 103.011719 L 14.851562 96.644531 C 14.796875 96.425781 14.578125 96.292969 14.359375 96.34375 Z M 19.628906 96.34375 C 19.414062 96.292969 19.195312 96.425781 19.140625 96.644531 L 17.585938 103.011719 L 18.421875 103.011719 L 19.925781 96.835938 C 19.980469 96.617188 19.847656 96.398438 19.628906 96.34375 Z M 124.09375 87.703125 L 95.589844 87.703125 C 95.234375 87.703125 94.921875 87.945312 94.839844 88.292969 L 89.9375 108.824219 L 69.234375 108.824219 C 69.011719 108.824219 68.832031 109.007812 68.832031 109.230469 L 68.832031 109.582031 C 68.832031 109.804688 69.011719 109.984375 69.234375 109.984375 L 119.742188 109.984375 L 124.839844 88.652344 C 124.957031 88.167969 124.589844 87.703125 124.09375 87.703125 Z M 57.34375 69.976562 C 56.199219 68.621094 56.148438 66.59375 56.949219 66.097656 C 57.613281 65.6875 58.640625 66.046875 59.324219 66.777344 C 60.546875 64.902344 64.453125 64.617188 65.699219 63.074219 C 65.976562 62.730469 66.125 62.328125 66.078125 61.832031 C 65.886719 59.632812 63.128906 58.589844 60.410156 58.394531 C 60.808594 57.753906 61.042969 57 61.042969 56.191406 C 61.042969 53.894531 59.1875 52.03125 56.898438 52.03125 C 54.609375 52.03125 52.75 53.894531 52.75 56.191406 C 52.75 57.609375 53.460938 58.863281 54.546875 59.613281 C 52.652344 60.777344 51.59375 62.636719 51.429688 64.808594 C 51.101562 69.183594 54.050781 69.613281 54.480469 71.664062 C 54.503906 71.78125 55.949219 71.417969 57.34375 69.976562 Z M 147.515625 119.15625 C 144.734375 119.421875 142.367188 121.300781 141.464844 123.953125 L 126.425781 168.300781 L 145.386719 168.300781 L 152.542969 146.089844 L 154.085938 168.300781 L 173.046875 168.300781 L 169.472656 136.679688 L 168.972656 132.269531 L 179.300781 132.269531 L 179.300781 120.820312 C 179.300781 120.289062 179.375 119.777344 179.5 119.28125 C 173.414062 118.605469 168.871094 117.128906 168.851562 117.125 Z M 182.296875 64.761719 C 183.21875 65.332031 183.128906 67.710938 181.746094 69.222656 C 182.78125 70.558594 184.074219 71.023438 184.074219 71.023438 C 184.074219 71.023438 187.21875 68.726562 187.21875 63.195312 C 187.21875 59.972656 185.492188 60.265625 185.492188 60.265625 C 185.492188 60.265625 185.476562 58.742188 184.316406 58.339844 C 183.515625 58.058594 182.472656 57.914062 180.800781 57.914062 L 171.78125 57.914062 C 171.78125 57.914062 172.082031 59.902344 173.617188 61.855469 C 174.621094 63.140625 176.15625 64.410156 178.488281 65.101562 L 178.488281 66.234375 L 180.222656 67.582031 L 180.222656 65.03125 C 180.914062 64.566406 181.726562 64.410156 182.296875 64.761719 Z M 142.53125 108.964844 L 130.214844 108.964844 L 130.214844 109.984375 L 142.53125 109.984375 Z M 142.53125 108.964844 " fill-opacity="1" fill-rule="nonzero"/></g></svg>