<svg xmlns="http://www.w3.org/2000/svg" xmlns:xlink="http://www.w3.org/1999/xlink" width="300" zoomAndPan="magnify" viewBox="0 0 224.87999 225" height="300" preserveAspectRatio="xMidYMid meet" version="1.0"><defs><clipPath id="4eeeccf080"><path d="M 42.488281 51.832031 L 182.664062 51.832031 L 182.664062 173.265625 L 42.488281 173.265625 Z M 42.488281 51.832031 " clip-rule="nonzero"/></clipPath></defs><path fill="#000000" d="M 83.96875 80.207031 L 72.179688 80.207031 L 72.179688 88.890625 L 81.828125 88.890625 C 82.859375 88.890625 83.730469 89.683594 83.730469 90.714844 C 83.730469 91.746094 82.859375 92.539062 81.828125 92.539062 L 72.179688 92.539062 L 72.179688 102.214844 C 72.179688 103.402344 71.230469 104.433594 70.078125 104.433594 C 68.886719 104.433594 67.894531 103.402344 67.894531 102.214844 L 67.894531 78.78125 C 67.894531 77.4375 68.886719 76.445312 70.234375 76.445312 L 83.96875 76.445312 C 85 76.445312 85.875 77.273438 85.875 78.308594 C 85.875 79.378906 85 80.207031 83.96875 80.207031 Z M 83.96875 80.207031 " fill-opacity="1" fill-rule="nonzero"/><path fill="#000000" d="M 111.953125 102.375 C 111.953125 103.445312 111.039062 104.355469 109.847656 104.355469 C 108.898438 104.355469 108.144531 103.800781 107.785156 103.007812 L 105.363281 97.335938 L 93.257812 97.335938 L 90.839844 103.007812 C 90.480469 103.800781 89.726562 104.355469 88.773438 104.355469 C 87.585938 104.355469 86.671875 103.445312 86.671875 102.375 C 86.671875 101.976562 86.789062 101.542969 86.949219 101.222656 L 97.230469 77.871094 C 97.667969 76.839844 98.300781 76.28125 99.292969 76.28125 C 100.285156 76.28125 100.960938 76.839844 101.398438 77.871094 L 111.679688 101.222656 C 111.832031 101.542969 111.953125 101.976562 111.953125 102.375 Z M 103.894531 93.925781 L 99.289062 83.222656 L 94.722656 93.925781 Z M 103.894531 93.925781 " fill-opacity="1" fill-rule="nonzero"/><path fill="#000000" d="M 138.507812 101.578125 C 138.785156 101.9375 138.984375 102.332031 138.984375 102.808594 C 138.984375 103.800781 138.191406 104.59375 137.199219 104.59375 C 136.722656 104.59375 136.25 104.394531 135.96875 104.035156 L 134.460938 102.527344 C 132.355469 103.757812 129.976562 104.472656 127.554688 104.472656 C 120.609375 104.472656 113.742188 98.683594 113.742188 90.316406 C 113.742188 81.949219 120.609375 76.164062 127.554688 76.164062 C 134.5 76.164062 141.367188 81.949219 141.367188 90.316406 C 141.367188 94.402344 139.738281 97.851562 137.277344 100.308594 Z M 131.484375 99.476562 L 128.308594 96.226562 C 128.03125 95.910156 127.792969 95.472656 127.792969 94.996094 C 127.792969 94.042969 128.585938 93.210938 129.578125 93.210938 C 130.09375 93.210938 130.53125 93.410156 130.847656 93.769531 L 134.300781 97.296875 C 135.886719 95.550781 136.878906 93.171875 136.878906 90.316406 C 136.878906 84.289062 132.433594 80.207031 127.550781 80.207031 C 122.707031 80.207031 118.222656 84.289062 118.222656 90.316406 C 118.222656 96.34375 122.707031 100.386719 127.550781 100.386719 C 128.941406 100.390625 130.253906 100.074219 131.484375 99.476562 Z M 131.484375 99.476562 " fill-opacity="1" fill-rule="nonzero"/><g clip-path="url(#4eeeccf080)"><path fill="#000000" d="M 165 66.546875 C 162.773438 58.089844 155.058594 51.832031 145.902344 51.832031 L 62.242188 51.832031 C 51.351562 51.832031 42.488281 60.683594 42.488281 71.566406 L 42.488281 110.03125 C 42.488281 120.175781 50.191406 128.554688 60.058594 129.644531 L 60.234375 156.492188 C 60.238281 157.386719 60.785156 158.191406 61.621094 158.519531 C 61.882812 158.625 62.160156 158.671875 62.429688 158.671875 C 63.019531 158.671875 63.597656 158.4375 64.023438 157.992188 L 77.121094 144.246094 C 77.824219 144.320312 78.535156 144.367188 79.257812 144.367188 L 134.238281 144.367188 L 161.136719 172.59375 C 161.558594 173.035156 162.136719 173.277344 162.730469 173.277344 C 163.003906 173.277344 163.273438 173.222656 163.539062 173.121094 C 164.371094 172.789062 164.921875 171.988281 164.929688 171.089844 L 165.101562 144.246094 C 174.96875 143.15625 182.671875 134.773438 182.671875 124.632812 L 182.671875 86.167969 C 182.671875 75.988281 174.917969 67.585938 165 66.546875 Z M 64.59375 151.023438 L 64.507812 137.734375 L 64.449219 128.675781 L 64.441406 127.554688 C 64.4375 127.058594 64.265625 126.601562 63.988281 126.234375 C 63.585938 125.710938 62.953125 125.371094 62.242188 125.371094 C 61.3125 125.371094 60.402344 125.285156 59.519531 125.125 C 52.347656 123.839844 46.882812 117.5625 46.882812 110.03125 L 46.882812 71.566406 C 46.882812 63.105469 53.773438 56.222656 62.242188 56.222656 L 145.902344 56.222656 C 152.570312 56.222656 158.25 60.492188 160.371094 66.433594 C 160.863281 67.816406 161.164062 69.292969 161.238281 70.824219 C 161.25 71.070312 161.253906 71.316406 161.253906 71.566406 L 161.253906 110.03125 C 161.253906 118.492188 154.367188 125.371094 145.902344 125.371094 L 89.976562 125.371094 C 89.375 125.371094 88.800781 125.617188 88.386719 126.054688 L 75.554688 139.519531 L 72.1875 143.054688 Z M 178.273438 124.632812 C 178.273438 133.09375 171.382812 139.976562 162.917969 139.976562 C 161.707031 139.976562 160.726562 140.945312 160.71875 142.15625 L 160.566406 165.625 L 136.773438 140.652344 C 136.355469 140.21875 135.78125 139.976562 135.183594 139.976562 L 81.191406 139.976562 L 90.921875 129.761719 L 145.902344 129.761719 C 156.792969 129.761719 165.652344 120.914062 165.652344 110.03125 L 165.652344 71.566406 C 165.652344 71.398438 165.644531 71.234375 165.640625 71.070312 C 172.8125 72.359375 178.273438 78.636719 178.273438 86.167969 Z M 178.273438 124.632812 " fill-opacity="1" fill-rule="nonzero"/></g></svg>