<svg xmlns="http://www.w3.org/2000/svg" xmlns:xlink="http://www.w3.org/1999/xlink" width="300" zoomAndPan="magnify" viewBox="0 0 224.87999 225" height="300" preserveAspectRatio="xMidYMid meet" version="1.0"><defs><clipPath id="2985114131"><path d="M 36.152344 47.179688 L 189.070312 47.179688 L 189.070312 177.609375 L 36.152344 177.609375 Z M 36.152344 47.179688 " clip-rule="nonzero"/></clipPath></defs><g clip-path="url(#2985114131)"><path stroke-linecap="butt" transform="matrix(5.432795, 0, 0, 5.412049, 25.687838, 20.119333)" fill="none" stroke-linejoin="miter" d="M 16.000134 9.249796 C 16.000134 9.249796 18.909979 5.99967 22.500011 5.99967 C 26.090043 5.99967 28.999889 8.950262 28.999889 12.499923 C 28.999889 14.701318 26.832784 16.832702 26.832784 16.832702 L 16.000134 27.667178 L 5.166765 16.832702 C 5.166765 16.832702 2.99966 14.699875 2.99966 12.499923 C 2.99966 8.950262 5.910225 5.99967 9.500256 5.99967 C 13.090288 5.99967 16.000134 9.249796 16.000134 9.249796 Z M 16.000134 9.249796 " stroke="#000000" stroke-width="2" stroke-opacity="1" stroke-miterlimit="10"/></g></svg>