<svg xmlns="http://www.w3.org/2000/svg" xmlns:xlink="http://www.w3.org/1999/xlink" width="300" zoomAndPan="magnify" viewBox="0 0 224.87999 225" height="300" preserveAspectRatio="xMidYMid meet" version="1.0"><defs><clipPath id="79264d233b"><path d="M 49 51 L 174 51 L 174 175.902344 L 49 175.902344 Z M 49 51 " clip-rule="nonzero"/></clipPath></defs><g clip-path="url(#79264d233b)"><path fill="#000000" d="M 111.742188 175.617188 C 106.796875 175.617188 101.921875 175.03125 97.121094 173.859375 C 92.320312 172.683594 87.726562 170.953125 83.34375 168.671875 C 82.507812 168.273438 81.628906 168.046875 80.707031 167.996094 C 79.78125 167.941406 78.882812 168.0625 78.007812 168.359375 L 66.652344 171.902344 C 65.75 172.183594 64.828125 172.335938 63.882812 172.359375 C 62.9375 172.382812 62.007812 172.273438 61.09375 172.039062 C 60.179688 171.800781 59.3125 171.441406 58.5 170.960938 C 57.6875 170.480469 56.953125 169.894531 56.304688 169.210938 C 55.65625 168.523438 55.113281 167.761719 54.679688 166.925781 C 54.246094 166.085938 53.933594 165.203125 53.746094 164.277344 C 53.5625 163.355469 53.503906 162.421875 53.582031 161.480469 C 53.65625 160.539062 53.863281 159.628906 54.195312 158.742188 L 57.753906 149.265625 C 58.121094 148.34375 58.28125 147.386719 58.234375 146.398438 C 58.1875 145.40625 57.933594 144.46875 57.476562 143.589844 C 56.859375 142.46875 56.277344 141.332031 55.730469 140.179688 C 55.183594 139.023438 54.671875 137.855469 54.195312 136.667969 C 53.722656 135.480469 53.285156 134.28125 52.882812 133.070312 C 52.484375 131.855469 52.121094 130.632812 51.796875 129.394531 C 51.472656 128.160156 51.1875 126.917969 50.941406 125.664062 C 50.691406 124.410156 50.484375 123.152344 50.316406 121.882812 C 50.144531 120.617188 50.015625 119.347656 49.925781 118.074219 C 49.835938 116.800781 49.785156 115.523438 49.773438 114.246094 C 49.761719 112.96875 49.792969 111.695312 49.859375 110.417969 C 49.925781 109.144531 50.035156 107.871094 50.183594 106.601562 C 50.328125 105.332031 50.515625 104.070312 50.738281 102.8125 C 50.964844 101.554688 51.230469 100.304688 51.53125 99.066406 C 51.835938 97.824219 52.175781 96.59375 52.554688 95.375 C 52.933594 94.152344 53.351562 92.945312 53.804688 91.753906 C 54.257812 90.558594 54.746094 89.378906 55.273438 88.214844 C 55.800781 87.050781 56.363281 85.90625 56.960938 84.777344 C 57.558594 83.648438 58.191406 82.539062 58.859375 81.449219 C 59.527344 80.359375 60.226562 79.289062 60.960938 78.242188 C 61.691406 77.195312 62.457031 76.171875 63.253906 75.175781 C 64.050781 74.175781 64.878906 73.199219 65.734375 72.253906 C 66.589844 71.304688 67.476562 70.382812 68.390625 69.488281 C 69.304688 68.597656 70.246094 67.730469 71.214844 66.898438 C 72.183594 66.0625 73.175781 65.257812 74.191406 64.484375 C 75.210938 63.707031 76.25 62.96875 77.3125 62.257812 C 78.378906 61.546875 79.460938 60.871094 80.566406 60.230469 C 81.671875 59.585938 82.796875 58.980469 83.941406 58.40625 C 85.082031 57.832031 86.242188 57.296875 87.421875 56.792969 C 88.597656 56.292969 89.789062 55.828125 90.992188 55.402344 C 92.199219 54.972656 93.417969 54.582031 94.644531 54.230469 C 95.875 53.878906 97.113281 53.5625 98.363281 53.289062 C 99.613281 53.011719 100.867188 52.773438 102.132812 52.578125 C 103.398438 52.378906 104.664062 52.21875 105.9375 52.101562 C 107.886719 51.917969 109.835938 51.824219 111.792969 51.824219 C 113.75 51.824219 115.699219 51.917969 117.648438 52.101562 C 119.59375 52.285156 121.527344 52.5625 123.449219 52.929688 C 125.367188 53.296875 127.269531 53.753906 129.144531 54.300781 C 131.023438 54.847656 132.871094 55.480469 134.6875 56.203125 C 136.503906 56.921875 138.285156 57.730469 140.027344 58.617188 C 141.765625 59.507812 143.460938 60.476562 145.109375 61.527344 C 146.761719 62.574219 148.355469 63.699219 149.898438 64.898438 C 151.441406 66.101562 152.925781 67.371094 154.347656 68.710938 C 155.769531 70.050781 157.125 71.453125 158.414062 72.921875 C 159.703125 74.390625 160.921875 75.917969 162.066406 77.5 C 163.210938 79.082031 164.277344 80.714844 165.265625 82.402344 C 166.257812 84.085938 167.164062 85.8125 167.992188 87.582031 C 168.816406 89.351562 169.558594 91.15625 170.214844 92.996094 C 170.867188 94.835938 171.4375 96.703125 171.914062 98.59375 C 172.394531 100.488281 172.78125 102.398438 173.078125 104.328125 C 173.375 106.261719 173.582031 108.199219 173.695312 110.148438 C 173.808594 112.097656 173.828125 114.046875 173.757812 116 C 173.6875 117.953125 173.523438 119.894531 173.269531 121.832031 C 173.011719 123.765625 172.664062 125.6875 172.230469 127.589844 C 171.792969 129.492188 171.265625 131.371094 170.648438 133.226562 C 170.035156 135.078125 169.332031 136.898438 168.546875 138.6875 C 167.757812 140.472656 166.886719 142.21875 165.933594 143.925781 C 164.980469 145.628906 163.949219 147.285156 162.839844 148.894531 C 161.726562 150.5 160.542969 152.050781 159.289062 153.546875 C 158.03125 155.042969 156.707031 156.476562 155.3125 157.847656 C 153.917969 159.21875 152.464844 160.519531 150.949219 161.753906 C 149.433594 162.984375 147.859375 164.144531 146.234375 165.230469 C 144.609375 166.3125 142.933594 167.320312 141.214844 168.246094 C 139.492188 169.171875 137.730469 170.015625 135.929688 170.777344 C 134.128906 171.535156 132.292969 172.210938 130.429688 172.796875 C 128.5625 173.382812 126.675781 173.882812 124.761719 174.292969 C 120.46875 175.175781 116.125 175.617188 111.742188 175.617188 Z M 80.382812 159.34375 C 82.828125 159.332031 85.132812 159.886719 87.304688 161.007812 C 88.222656 161.480469 89.152344 161.921875 90.09375 162.339844 C 91.035156 162.757812 91.988281 163.148438 92.953125 163.511719 C 93.917969 163.875 94.894531 164.210938 95.878906 164.515625 C 96.863281 164.824219 97.855469 165.101562 98.855469 165.347656 C 99.855469 165.597656 100.863281 165.816406 101.878906 166.007812 C 102.890625 166.199219 103.910156 166.359375 104.929688 166.492188 C 105.953125 166.621094 106.980469 166.722656 108.007812 166.796875 C 109.035156 166.867188 110.066406 166.910156 111.097656 166.921875 C 112.128906 166.933594 113.160156 166.917969 114.1875 166.871094 C 115.21875 166.824219 116.246094 166.746094 117.273438 166.640625 C 118.296875 166.53125 119.320312 166.394531 120.335938 166.230469 C 121.355469 166.0625 122.367188 165.867188 123.375 165.644531 C 124.378906 165.421875 125.378906 165.167969 126.371094 164.882812 C 127.363281 164.601562 128.34375 164.289062 129.316406 163.953125 C 130.292969 163.613281 131.253906 163.246094 132.207031 162.847656 C 133.160156 162.453125 134.097656 162.03125 135.027344 161.582031 C 135.953125 161.132812 136.867188 160.65625 137.769531 160.152344 C 138.667969 159.652344 139.550781 159.125 140.421875 158.570312 C 141.292969 158.015625 142.144531 157.4375 142.980469 156.835938 C 143.816406 156.230469 144.632812 155.605469 145.433594 154.953125 C 146.230469 154.304688 147.011719 153.628906 147.769531 152.933594 C 148.53125 152.238281 149.269531 151.523438 149.988281 150.785156 C 150.707031 150.046875 151.402344 149.285156 152.078125 148.507812 C 152.753906 147.730469 153.402344 146.929688 154.03125 146.113281 C 154.660156 145.296875 155.265625 144.464844 155.84375 143.613281 C 156.421875 142.761719 156.976562 141.894531 157.507812 141.011719 C 158.035156 140.125 158.539062 139.226562 159.015625 138.316406 C 159.492188 137.402344 159.945312 136.476562 160.367188 135.539062 C 160.789062 134.597656 161.1875 133.648438 161.554688 132.6875 C 161.921875 131.726562 162.261719 130.753906 162.574219 129.773438 C 162.882812 128.789062 163.167969 127.800781 163.421875 126.804688 C 163.675781 125.804688 163.898438 124.800781 164.097656 123.789062 C 164.292969 122.78125 164.457031 121.765625 164.59375 120.742188 C 164.730469 119.722656 164.839844 118.699219 164.914062 117.671875 C 164.992188 116.644531 165.039062 115.617188 165.058594 114.589844 C 165.074219 113.558594 165.0625 112.53125 165.019531 111.5 C 164.976562 110.472656 164.90625 109.445312 164.804688 108.421875 C 164.703125 107.398438 164.570312 106.375 164.410156 105.359375 C 164.246094 104.34375 164.058594 103.332031 163.835938 102.324219 C 163.617188 101.320312 163.367188 100.320312 163.089844 99.328125 C 162.8125 98.339844 162.503906 97.355469 162.171875 96.382812 C 161.835938 95.40625 161.472656 94.445312 161.082031 93.492188 C 160.691406 92.539062 160.273438 91.597656 159.824219 90.671875 C 159.378906 89.742188 158.90625 88.828125 158.410156 87.925781 C 157.910156 87.027344 157.386719 86.140625 156.835938 85.269531 C 156.285156 84.398438 155.710938 83.542969 155.109375 82.707031 C 154.507812 81.871094 153.886719 81.050781 153.238281 80.25 C 152.589844 79.449219 151.921875 78.667969 151.226562 77.902344 C 150.535156 77.140625 149.820312 76.398438 149.082031 75.679688 C 148.347656 74.957031 147.589844 74.257812 146.8125 73.582031 C 146.039062 72.90625 145.242188 72.25 144.425781 71.621094 C 143.613281 70.988281 142.78125 70.382812 141.929688 69.796875 C 141.082031 69.214844 140.214844 68.65625 139.332031 68.125 C 138.449219 67.59375 137.550781 67.085938 136.640625 66.605469 C 135.726562 66.125 134.804688 65.671875 133.863281 65.242188 C 132.925781 64.816406 131.976562 64.417969 131.015625 64.042969 C 130.054688 63.671875 129.082031 63.328125 128.101562 63.011719 C 127.121094 62.695312 126.128906 62.410156 125.132812 62.152344 C 124.132812 61.890625 123.128906 61.664062 122.117188 61.460938 C 121.105469 61.261719 120.089844 61.089844 119.070312 60.949219 C 118.046875 60.808594 117.023438 60.695312 115.996094 60.613281 C 114.96875 60.53125 113.9375 60.480469 112.90625 60.457031 C 111.875 60.433594 110.84375 60.441406 109.816406 60.480469 C 108.785156 60.515625 107.753906 60.582031 106.730469 60.679688 C 105.632812 60.78125 104.539062 60.917969 103.453125 61.089844 C 102.367188 61.261719 101.285156 61.464844 100.210938 61.699219 C 99.132812 61.9375 98.066406 62.207031 97.011719 62.511719 C 95.953125 62.816406 94.902344 63.148438 93.867188 63.519531 C 92.828125 63.886719 91.804688 64.285156 90.792969 64.71875 C 89.777344 65.148438 88.78125 65.609375 87.796875 66.101562 C 86.8125 66.597656 85.84375 67.121094 84.894531 67.671875 C 83.941406 68.226562 83.007812 68.808594 82.09375 69.417969 C 81.179688 70.027344 80.28125 70.667969 79.40625 71.332031 C 78.53125 72 77.675781 72.691406 76.84375 73.410156 C 76.011719 74.128906 75.199219 74.871094 74.414062 75.640625 C 73.628906 76.410156 72.867188 77.203125 72.128906 78.019531 C 71.390625 78.835938 70.679688 79.671875 69.992188 80.53125 C 69.308594 81.394531 68.648438 82.273438 68.019531 83.171875 C 67.386719 84.074219 66.785156 84.992188 66.210938 85.933594 C 65.636719 86.871094 65.09375 87.824219 64.578125 88.796875 C 64.0625 89.769531 63.578125 90.753906 63.125 91.757812 C 62.671875 92.757812 62.25 93.773438 61.859375 94.800781 C 61.46875 95.828125 61.109375 96.867188 60.785156 97.917969 C 60.457031 98.964844 60.164062 100.023438 59.90625 101.09375 C 59.644531 102.160156 59.417969 103.234375 59.222656 104.316406 C 59.03125 105.398438 58.871094 106.488281 58.742188 107.578125 C 58.617188 108.671875 58.523438 109.765625 58.464844 110.863281 C 58.410156 111.960938 58.382812 113.058594 58.394531 114.160156 C 58.402344 115.257812 58.449219 116.355469 58.523438 117.453125 C 58.601562 118.546875 58.714844 119.640625 58.859375 120.730469 C 59.007812 121.820312 59.183594 122.902344 59.398438 123.984375 C 59.609375 125.0625 59.855469 126.132812 60.136719 127.195312 C 60.414062 128.257812 60.726562 129.3125 61.070312 130.355469 C 61.417969 131.398438 61.792969 132.433594 62.203125 133.453125 C 62.609375 134.472656 63.050781 135.480469 63.523438 136.472656 C 63.992188 137.46875 64.496094 138.445312 65.027344 139.40625 C 65.554688 140.390625 65.972656 141.414062 66.28125 142.488281 C 66.585938 143.558594 66.777344 144.648438 66.84375 145.761719 C 66.914062 146.875 66.863281 147.980469 66.695312 149.082031 C 66.523438 150.183594 66.238281 151.253906 65.832031 152.292969 L 62.273438 161.777344 C 62.179688 162.035156 62.15625 162.300781 62.210938 162.570312 C 62.265625 162.839844 62.386719 163.074219 62.574219 163.273438 C 62.761719 163.472656 62.992188 163.609375 63.257812 163.679688 C 63.523438 163.75 63.789062 163.742188 64.050781 163.660156 L 75.40625 160.121094 C 77.027344 159.609375 78.6875 159.347656 80.382812 159.34375 Z M 106.335938 56.378906 Z M 106.335938 56.378906 " fill-opacity="1" fill-rule="nonzero"/></g><path fill="#000000" d="M 111.742188 135.308594 C 111.457031 135.308594 111.175781 135.28125 110.898438 135.226562 C 110.617188 135.167969 110.347656 135.085938 110.085938 134.980469 C 109.824219 134.871094 109.574219 134.738281 109.335938 134.578125 C 109.101562 134.421875 108.882812 134.242188 108.683594 134.042969 C 108.480469 133.84375 108.300781 133.625 108.144531 133.386719 C 107.988281 133.152344 107.851562 132.902344 107.746094 132.640625 C 107.636719 132.378906 107.554688 132.109375 107.5 131.832031 C 107.441406 131.554688 107.414062 131.273438 107.414062 130.988281 L 107.414062 122.8125 C 107.402344 122.054688 107.441406 121.300781 107.539062 120.546875 C 107.636719 119.796875 107.789062 119.054688 107.996094 118.328125 C 108.203125 117.597656 108.464844 116.886719 108.777344 116.195312 C 109.089844 115.503906 109.449219 114.839844 109.859375 114.203125 C 110.269531 113.566406 110.726562 112.964844 111.226562 112.394531 C 111.726562 111.824219 112.265625 111.292969 112.847656 110.800781 C 113.425781 110.3125 114.035156 109.867188 114.683594 109.46875 C 115.328125 109.066406 115.996094 108.71875 116.695312 108.417969 C 117.339844 108.152344 117.957031 107.839844 118.546875 107.476562 C 119.140625 107.113281 119.703125 106.703125 120.226562 106.25 C 120.753906 105.796875 121.242188 105.304688 121.691406 104.773438 C 122.136719 104.242188 122.539062 103.675781 122.898438 103.082031 C 123.253906 102.484375 123.5625 101.863281 123.816406 101.21875 C 124.074219 100.574219 124.277344 99.910156 124.429688 99.230469 C 124.578125 98.554688 124.671875 97.867188 124.714844 97.175781 C 124.753906 96.480469 124.738281 95.789062 124.664062 95.097656 C 124.59375 94.40625 124.46875 93.726562 124.285156 93.054688 C 124.105469 92.386719 123.871094 91.734375 123.585938 91.101562 C 123.296875 90.46875 122.960938 89.863281 122.578125 89.28125 C 122.195312 88.703125 121.765625 88.160156 121.296875 87.648438 C 120.824219 87.136719 120.3125 86.667969 119.765625 86.238281 C 119.21875 85.8125 118.640625 85.429688 118.03125 85.09375 C 117.421875 84.757812 116.792969 84.472656 116.136719 84.238281 C 115.480469 84.003906 114.8125 83.824219 114.128906 83.695312 C 113.660156 83.609375 113.191406 83.546875 112.71875 83.515625 C 112.242188 83.480469 111.769531 83.46875 111.292969 83.488281 C 110.820312 83.503906 110.347656 83.546875 109.875 83.613281 C 109.40625 83.683594 108.941406 83.777344 108.480469 83.898438 C 108.023438 84.015625 107.570312 84.160156 107.125 84.332031 C 106.683594 84.5 106.25 84.691406 105.828125 84.910156 C 105.402344 85.125 104.996094 85.363281 104.597656 85.625 C 104.203125 85.886719 103.820312 86.167969 103.457031 86.472656 C 103.089844 86.777344 102.742188 87.097656 102.410156 87.4375 C 102.082031 87.78125 101.773438 88.136719 101.480469 88.511719 C 101.191406 88.886719 100.921875 89.277344 100.671875 89.683594 C 100.425781 90.089844 100.199219 90.503906 100 90.933594 C 99.796875 91.363281 99.617188 91.800781 99.464844 92.25 C 99.308594 92.699219 99.183594 93.15625 99.078125 93.617188 C 98.972656 94.082031 98.894531 94.550781 98.84375 95.019531 C 98.792969 95.492188 98.765625 95.964844 98.765625 96.4375 C 98.765625 96.722656 98.738281 97.003906 98.679688 97.28125 C 98.625 97.558594 98.542969 97.828125 98.433594 98.09375 C 98.328125 98.355469 98.191406 98.601562 98.035156 98.839844 C 97.878906 99.074219 97.699219 99.292969 97.496094 99.492188 C 97.296875 99.695312 97.078125 99.871094 96.84375 100.03125 C 96.605469 100.1875 96.355469 100.320312 96.09375 100.429688 C 95.832031 100.539062 95.5625 100.621094 95.28125 100.675781 C 95.003906 100.730469 94.722656 100.757812 94.4375 100.757812 C 94.15625 100.757812 93.875 100.730469 93.59375 100.675781 C 93.316406 100.621094 93.046875 100.539062 92.785156 100.429688 C 92.519531 100.320312 92.273438 100.1875 92.035156 100.03125 C 91.800781 99.871094 91.582031 99.695312 91.378906 99.492188 C 91.179688 99.292969 91 99.074219 90.84375 98.839844 C 90.683594 98.601562 90.550781 98.355469 90.441406 98.09375 C 90.335938 97.828125 90.253906 97.558594 90.195312 97.28125 C 90.140625 97.003906 90.113281 96.722656 90.113281 96.4375 C 90.113281 95.140625 90.230469 93.851562 90.460938 92.570312 C 90.695312 91.292969 91.039062 90.042969 91.5 88.828125 C 91.957031 87.613281 92.519531 86.445312 93.191406 85.332031 C 93.859375 84.214844 94.625 83.171875 95.480469 82.191406 C 96.339844 81.214844 97.277344 80.324219 98.296875 79.515625 C 99.316406 78.707031 100.402344 77.996094 101.550781 77.382812 C 102.699219 76.773438 103.890625 76.265625 105.132812 75.871094 C 106.371094 75.472656 107.636719 75.1875 108.925781 75.019531 C 110.21875 74.847656 111.511719 74.796875 112.8125 74.859375 C 114.113281 74.925781 115.398438 75.105469 116.664062 75.398438 C 117.933594 75.695312 119.164062 76.101562 120.355469 76.621094 C 121.550781 77.136719 122.691406 77.757812 123.773438 78.480469 C 124.855469 79.203125 125.863281 80.015625 126.796875 80.917969 C 127.730469 81.824219 128.578125 82.804688 129.335938 83.859375 C 130.09375 84.917969 130.75 86.035156 131.308594 87.210938 C 131.863281 88.382812 132.308594 89.601562 132.644531 90.855469 C 132.980469 92.113281 133.203125 93.386719 133.308594 94.683594 C 133.414062 95.976562 133.402344 97.273438 133.273438 98.566406 C 133.144531 99.859375 132.902344 101.128906 132.542969 102.378906 C 132.183594 103.628906 131.71875 104.835938 131.140625 106.003906 C 130.5625 107.167969 129.886719 108.273438 129.109375 109.316406 C 128.335938 110.359375 127.472656 111.324219 126.519531 112.210938 C 125.570312 113.097656 124.546875 113.894531 123.453125 114.597656 C 122.355469 115.300781 121.207031 115.902344 120.003906 116.398438 C 119.398438 116.683594 118.847656 117.046875 118.347656 117.492188 C 117.847656 117.9375 117.425781 118.445312 117.074219 119.015625 C 116.726562 119.585938 116.464844 120.195312 116.292969 120.839844 C 116.121094 121.488281 116.046875 122.144531 116.066406 122.8125 L 116.066406 130.988281 C 116.066406 131.273438 116.039062 131.554688 115.984375 131.832031 C 115.925781 132.109375 115.84375 132.378906 115.738281 132.640625 C 115.628906 132.902344 115.496094 133.152344 115.335938 133.386719 C 115.179688 133.625 115 133.84375 114.800781 134.042969 C 114.597656 134.242188 114.378906 134.421875 114.144531 134.578125 C 113.90625 134.738281 113.660156 134.871094 113.394531 134.980469 C 113.132812 135.085938 112.863281 135.167969 112.585938 135.226562 C 112.304688 135.28125 112.023438 135.308594 111.742188 135.308594 Z M 111.742188 135.308594 " fill-opacity="1" fill-rule="nonzero"/><path fill="#000000" d="M 117.507812 148.265625 C 117.507812 148.640625 117.472656 149.015625 117.398438 149.386719 C 117.324219 149.757812 117.214844 150.117188 117.070312 150.46875 C 116.925781 150.816406 116.746094 151.148438 116.535156 151.464844 C 116.324219 151.777344 116.085938 152.066406 115.820312 152.335938 C 115.550781 152.601562 115.257812 152.839844 114.945312 153.050781 C 114.628906 153.261719 114.296875 153.4375 113.949219 153.582031 C 113.597656 153.726562 113.238281 153.835938 112.867188 153.910156 C 112.496094 153.984375 112.121094 154.023438 111.742188 154.023438 C 111.363281 154.023438 110.988281 153.984375 110.617188 153.910156 C 110.242188 153.835938 109.882812 153.726562 109.535156 153.582031 C 109.183594 153.4375 108.851562 153.261719 108.535156 153.050781 C 108.222656 152.839844 107.929688 152.601562 107.664062 152.335938 C 107.394531 152.066406 107.15625 151.777344 106.945312 151.464844 C 106.734375 151.148438 106.558594 150.816406 106.414062 150.46875 C 106.265625 150.117188 106.15625 149.757812 106.085938 149.386719 C 106.011719 149.015625 105.972656 148.640625 105.972656 148.265625 C 105.972656 147.886719 106.011719 147.511719 106.085938 147.140625 C 106.15625 146.769531 106.265625 146.410156 106.414062 146.058594 C 106.558594 145.710938 106.734375 145.378906 106.945312 145.066406 C 107.15625 144.75 107.394531 144.460938 107.664062 144.191406 C 107.929688 143.925781 108.222656 143.6875 108.535156 143.476562 C 108.851562 143.265625 109.183594 143.089844 109.535156 142.945312 C 109.882812 142.800781 110.242188 142.691406 110.617188 142.617188 C 110.988281 142.542969 111.363281 142.503906 111.742188 142.503906 C 112.121094 142.503906 112.496094 142.542969 112.867188 142.617188 C 113.238281 142.691406 113.597656 142.800781 113.949219 142.945312 C 114.296875 143.089844 114.628906 143.265625 114.945312 143.476562 C 115.257812 143.6875 115.550781 143.925781 115.820312 144.191406 C 116.085938 144.460938 116.324219 144.75 116.535156 145.066406 C 116.746094 145.378906 116.925781 145.710938 117.070312 146.058594 C 117.214844 146.410156 117.324219 146.769531 117.398438 147.140625 C 117.472656 147.511719 117.507812 147.886719 117.507812 148.265625 Z M 117.507812 148.265625 " fill-opacity="1" fill-rule="nonzero"/></svg>