<svg xmlns="http://www.w3.org/2000/svg" xmlns:xlink="http://www.w3.org/1999/xlink" width="300" zoomAndPan="magnify" viewBox="0 0 224.87999 225" height="300" preserveAspectRatio="xMidYMid meet" version="1.0"><defs><clipPath id="8fd2329032"><path d="M 32 45.035156 L 193.160156 45.035156 L 193.160156 180.292969 L 32 180.292969 Z M 32 45.035156 " clip-rule="nonzero"/></clipPath></defs><g clip-path="url(#8fd2329032)"><path fill="#040606" d="M 147.503906 126.066406 C 142.710938 119.507812 131.109375 118.507812 123.039062 117.746094 C 121.535156 117.488281 120.261719 118.75 120.261719 120.265625 C 119.761719 123.304688 121.277344 128.601562 113.210938 137.679688 C 108.160156 132.125 106.140625 127.082031 106.140625 120.523438 C 106.140625 119.007812 104.882812 117.746094 103.367188 117.992188 C 94.796875 119.007812 82.191406 120.011719 78.15625 127.339844 L 70.085938 112.691406 L 91.261719 75.851562 L 133.882812 75.851562 L 155.316406 112.691406 Z M 182.558594 101.839844 C 177.523438 101.839844 173.230469 105.375 172.230469 110.171875 L 159.609375 110.171875 L 138.421875 73.574219 L 147.003906 64.996094 C 154.316406 69.277344 163.402344 64.238281 163.402344 55.90625 C 163.402344 53.125 162.144531 50.347656 160.109375 48.328125 C 151.039062 39.496094 136.917969 50.851562 143.472656 61.460938 L 134.398438 70.539062 L 91.019531 70.539062 L 81.933594 61.460938 C 88.484375 50.605469 74.121094 39.238281 65.292969 48.328125 C 56.207031 57.164062 67.554688 71.554688 78.398438 64.996094 L 86.984375 73.574219 L 65.792969 110.171875 L 53.1875 110.171875 C 51.929688 105.375 47.894531 101.839844 42.84375 101.839844 C 36.792969 101.839844 32 106.894531 32 112.691406 C 32 118.507812 36.792969 123.546875 42.84375 123.546875 C 47.878906 123.546875 52.171875 120.011719 53.1875 115.214844 L 65.792969 115.214844 C 65.792969 115.214844 71.84375 125.566406 86.984375 151.8125 L 78.398438 160.402344 C 71.085938 156.105469 62.015625 161.40625 62.015625 169.480469 C 62.015625 172.257812 63.019531 175.035156 65.292969 177.054688 C 73.863281 185.632812 88.742188 175.035156 81.933594 163.925781 L 91.019531 154.847656 L 134.398438 154.847656 L 143.472656 163.925781 C 136.675781 175.035156 151.296875 185.890625 160.125 177.054688 C 168.953125 168.222656 157.851562 153.585938 147.003906 160.144531 L 138.433594 151.566406 L 138.691406 151.3125 C 139.695312 149.292969 144.242188 141.71875 159.367188 115.472656 L 171.972656 115.472656 C 173.230469 120.265625 177.265625 123.804688 182.316406 123.804688 C 188.367188 123.804688 193.160156 119.007812 193.160156 112.949219 C 193.160156 106.894531 188.625 101.839844 182.558594 101.839844 " fill-opacity="1" fill-rule="nonzero"/></g><path fill="#040606" d="M 128.332031 95.023438 C 128.332031 103.355469 121.535156 113.195312 113.210938 113.195312 C 104.882812 113.195312 98.070312 103.355469 98.070312 95.023438 C 98.070312 86.691406 104.882812 79.886719 113.210938 79.886719 C 121.535156 79.886719 128.332031 86.691406 128.332031 95.023438 " fill-opacity="1" fill-rule="nonzero"/></svg>