<svg xmlns="http://www.w3.org/2000/svg" xmlns:xlink="http://www.w3.org/1999/xlink" width="300" zoomAndPan="magnify" viewBox="0 0 224.87999 225" height="300" preserveAspectRatio="xMidYMid meet" version="1.0"><defs><clipPath id="c7006eea0a"><path d="M 27 27.015625 L 197.867188 27.015625 L 197.867188 197 L 27 197 Z M 27 27.015625 " clip-rule="nonzero"/></clipPath></defs><g clip-path="url(#c7006eea0a)"><path fill="#000000" d="M 107.050781 27.203125 C 105.261719 27.1875 103.71875 28.46875 103.402344 30.230469 L 101.382812 41.273438 C 99.652344 41.835938 97.980469 42.515625 96.335938 43.320312 L 87.265625 36.777344 C 85.8125 35.722656 83.792969 35.867188 82.523438 37.152344 L 74.636719 44.910156 C 73.367188 46.175781 73.179688 48.167969 74.203125 49.636719 L 80.578125 58.867188 C 79.738281 60.496094 79.035156 62.167969 78.472656 63.882812 L 67.410156 65.671875 C 65.636719 65.945312 64.324219 67.472656 64.3125 69.292969 L 64.238281 80.367188 C 64.226562 82.152344 65.507812 83.695312 67.265625 84.011719 L 78.355469 86.03125 C 78.902344 87.746094 79.597656 89.40625 80.402344 91.035156 L 73.8125 100.148438 C 72.761719 101.605469 72.90625 103.625 74.175781 104.90625 L 81.960938 112.78125 C 83.214844 114.046875 85.203125 114.234375 86.675781 113.210938 L 96.019531 106.78125 C 97.632812 107.601562 99.292969 108.28125 100.992188 108.84375 L 102.898438 120.03125 C 103.199219 121.804688 104.714844 123.105469 106.515625 123.117188 L 117.578125 123.175781 C 119.394531 123.191406 120.9375 121.878906 121.238281 120.105469 L 123.128906 108.929688 C 124.816406 108.382812 126.457031 107.71875 128.058594 106.910156 L 137.332031 113.5 C 138.800781 114.539062 140.792969 114.367188 142.058594 113.113281 L 149.949219 105.339844 C 151.230469 104.070312 151.402344 102.050781 150.351562 100.566406 L 143.777344 91.339844 C 144.597656 89.738281 145.289062 88.109375 145.851562 86.4375 L 157.085938 84.53125 C 158.84375 84.230469 160.140625 82.703125 160.15625 80.898438 L 160.214844 69.839844 C 160.226562 68.035156 158.929688 66.492188 157.144531 66.191406 L 146.011719 64.300781 C 145.464844 62.601562 144.785156 60.941406 143.992188 59.3125 L 150.539062 50.070312 C 151.589844 48.613281 151.433594 46.625 150.164062 45.339844 L 142.378906 37.46875 C 141.109375 36.199219 139.089844 36.011719 137.617188 37.0625 L 128.476562 43.554688 C 126.863281 42.730469 125.21875 42.039062 123.53125 41.476562 L 121.742188 30.375 C 121.453125 28.585938 119.925781 27.273438 118.109375 27.257812 Z M 110.105469 34.597656 L 114.953125 34.628906 L 116.550781 44.605469 C 116.78125 46.0625 117.863281 47.230469 119.277344 47.589844 C 121.988281 48.28125 124.597656 49.394531 127.050781 50.878906 C 128.304688 51.65625 129.90625 51.597656 131.101562 50.75 L 139.335938 44.910156 L 142.738281 48.339844 L 136.8125 56.644531 C 135.976562 57.84375 135.902344 59.414062 136.652344 60.667969 C 138.109375 63.132812 139.175781 65.757812 139.8125 68.453125 C 140.15625 69.898438 141.324219 70.992188 142.796875 71.253906 L 152.816406 72.9375 L 152.789062 77.769531 L 142.664062 79.472656 C 141.222656 79.714844 140.054688 80.796875 139.695312 82.210938 C 139.019531 84.894531 137.9375 87.488281 136.449219 89.910156 C 135.6875 91.179688 135.746094 92.78125 136.609375 93.976562 L 142.507812 102.296875 L 139.089844 105.6875 L 130.710938 99.746094 C 129.515625 98.894531 127.945312 98.835938 126.6875 99.585938 C 124.238281 101.042969 121.640625 102.082031 118.945312 102.742188 C 117.503906 103.089844 116.421875 104.257812 116.175781 105.714844 L 114.476562 115.777344 L 109.660156 115.734375 L 107.957031 105.640625 C 107.714844 104.199219 106.632812 103.03125 105.191406 102.6875 C 102.523438 102.023438 99.898438 100.925781 97.445312 99.457031 C 96.207031 98.707031 94.636719 98.75 93.4375 99.585938 L 85.03125 105.382812 L 81.628906 101.9375 L 87.554688 93.746094 C 88.421875 92.550781 88.492188 90.949219 87.726562 89.679688 C 86.273438 87.214844 85.203125 84.589844 84.542969 81.878906 C 84.195312 80.464844 83.054688 79.386719 81.613281 79.109375 L 71.636719 77.308594 L 71.679688 72.464844 L 81.613281 70.863281 C 83.070312 70.632812 84.253906 69.550781 84.613281 68.125 C 85.304688 65.398438 86.386719 62.773438 87.886719 60.324219 C 88.652344 59.082031 88.609375 57.496094 87.773438 56.300781 L 82.046875 47.992188 L 85.480469 44.589844 L 93.640625 50.472656 C 94.824219 51.339844 96.410156 51.410156 97.675781 50.675781 C 100.15625 49.191406 102.796875 48.136719 105.523438 47.476562 C 106.949219 47.144531 108.03125 45.988281 108.289062 44.5625 Z M 112.183594 56.863281 C 107.441406 56.832031 102.679688 58.605469 99.0625 62.195312 C 91.824219 69.347656 91.765625 81.128906 98.917969 88.382812 C 106.070312 95.621094 117.863281 95.679688 125.101562 88.527344 C 132.339844 81.375 132.398438 69.578125 125.246094 62.339844 C 121.671875 58.722656 116.925781 56.890625 112.183594 56.863281 Z M 112.15625 64.203125 C 114.996094 64.214844 117.820312 65.324219 120 67.53125 C 124.351562 71.929688 124.308594 78.921875 119.914062 83.261719 C 115.515625 87.617188 108.519531 87.589844 104.167969 83.191406 C 99.8125 78.777344 99.855469 71.785156 104.253906 67.445312 C 106.460938 65.269531 109.300781 64.1875 112.15625 64.203125 Z M 73.179688 123.175781 C 63.546875 123.175781 59.105469 125.484375 54.320312 127.328125 C 54.320312 127.34375 54.320312 127.34375 54.320312 127.34375 C 45.132812 130.917969 29.417969 138.332031 29.417969 138.332031 C 27.570312 139.195312 26.777344 141.402344 27.644531 143.246094 C 28.523438 145.09375 30.730469 145.886719 32.574219 145.019531 C 32.574219 145.019531 48.390625 137.566406 56.988281 134.222656 C 62.292969 132.160156 64.601562 130.558594 73.179688 130.558594 C 92.113281 130.558594 91.347656 138.777344 99.335938 143.480469 C 99.453125 143.550781 99.582031 143.621094 99.710938 143.664062 C 109.617188 148.105469 120.257812 149.015625 128.835938 149.015625 C 132.628906 149.015625 135.023438 149.894531 136.320312 150.875 C 137.605469 151.871094 138.066406 152.894531 138.066406 154.550781 C 138.066406 156.5 137.574219 157.421875 136.292969 158.359375 C 135.023438 159.28125 132.574219 160.089844 128.835938 160.089844 L 109.457031 160.089844 C 101.324219 160.089844 87.324219 156.511719 87.324219 156.511719 C 86.054688 156.167969 84.6875 156.542969 83.75 157.480469 C 82.8125 158.417969 82.449219 159.785156 82.796875 161.054688 C 83.15625 162.339844 84.167969 163.332031 85.449219 163.664062 C 85.449219 163.664062 99.335938 167.472656 109.457031 167.472656 L 128.835938 167.472656 C 132.601562 167.472656 135.875 166.851562 138.613281 165.496094 C 138.972656 165.394531 139.320312 165.238281 139.625 165.019531 L 174.632812 142.050781 C 179.894531 139.007812 183.488281 138.15625 185.59375 138.1875 C 187.695312 138.230469 188.417969 138.863281 189.050781 139.671875 C 189.988281 140.882812 190.046875 141.34375 189.441406 142.742188 C 188.820312 144.15625 187.019531 146.332031 183.773438 148.582031 C 183.773438 148.582031 183.773438 148.582031 183.761719 148.582031 C 179.753906 151.378906 134.921875 180.59375 129.746094 183.535156 C 125.839844 185.753906 122.738281 188.089844 119.207031 189.085938 C 115.671875 190.066406 111.503906 190.066406 104.613281 186.78125 C 100.011719 184.574219 80.433594 174.539062 74.085938 171.320312 C 70.554688 169.535156 67.542969 168.523438 64.46875 168.699219 C 61.382812 168.871094 58.773438 170.183594 56.078125 171.882812 C 56.0625 171.882812 56.050781 171.898438 56.050781 171.914062 L 46.90625 177.753906 C 45.753906 178.445312 45.074219 179.714844 45.121094 181.054688 C 45.164062 182.394531 45.941406 183.605469 47.136719 184.214844 C 48.347656 184.820312 49.777344 184.730469 50.886719 183.96875 L 59.984375 178.140625 C 62.335938 176.671875 63.664062 176.136719 64.875 176.066406 C 66.085938 175.992188 67.742188 176.382812 70.757812 177.910156 C 77.042969 181.097656 96.320312 190.988281 101.441406 193.425781 C 109.472656 197.277344 115.976562 197.636719 121.179688 196.195312 C 126.386719 194.738281 130.09375 191.828125 133.394531 189.953125 C 140.515625 185.898438 182.839844 158.214844 187.984375 154.640625 C 191.894531 151.914062 194.761719 149.074219 196.21875 145.671875 C 197.675781 142.265625 197.199219 138.113281 194.878906 135.144531 C 194.878906 135.144531 194.878906 135.144531 194.878906 135.128906 C 193.046875 132.792969 189.800781 130.890625 185.722656 130.804688 C 183.398438 130.761719 180.820312 131.292969 177.949219 132.347656 C 177.417969 131.640625 176.609375 130.71875 175.5 129.910156 C 173.351562 128.308594 169.933594 126.867188 165.289062 126.867188 C 162.910156 126.867188 160.964844 127.414062 159.40625 128.0625 C 157.1875 125.945312 153.25 123.25 147.523438 123.25 C 142.882812 123.25 138.527344 124.804688 135.5 126.59375 C 134.9375 126.925781 133.582031 127.777344 131.273438 129.21875 C 128.96875 130.660156 125.953125 132.519531 122.984375 134.378906 C 118.238281 137.335938 115.296875 139.179688 113.597656 140.25 C 109.976562 139.527344 106.359375 138.503906 102.941406 137.003906 C 100.027344 135.128906 94.417969 123.175781 73.179688 123.175781 Z M 147.523438 130.632812 C 149.859375 130.632812 151.535156 131.222656 152.714844 131.914062 L 135.644531 142.496094 C 133.609375 141.921875 131.332031 141.632812 128.835938 141.632812 C 127.769531 141.632812 126.601562 141.5625 125.492188 141.515625 C 126.183594 141.085938 126.183594 141.085938 126.890625 140.652344 C 129.863281 138.792969 132.859375 136.917969 135.183594 135.476562 C 137.488281 134.046875 139.378906 132.878906 139.25 132.953125 C 140.992188 131.914062 144.785156 130.632812 147.523438 130.632812 Z M 165.289062 134.25 C 168.289062 134.25 169.902344 135.015625 170.882812 135.691406 C 170.828125 135.722656 170.785156 135.75 170.726562 135.792969 L 145.21875 152.519531 C 144.871094 150.457031 144.019531 148.480469 142.664062 146.839844 L 160.503906 135.777344 L 160.515625 135.75 C 160.660156 135.675781 163.746094 134.25 165.289062 134.25 Z M 165.289062 134.25 " fill-opacity="1" fill-rule="nonzero"/></g></svg>