<svg xmlns="http://www.w3.org/2000/svg" xmlns:xlink="http://www.w3.org/1999/xlink" width="300" zoomAndPan="magnify" viewBox="0 0 224.87999 225" height="300" preserveAspectRatio="xMidYMid meet" version="1.0"><defs><clipPath id="b25840db4f"><path d="M 14 8.097656 L 210 8.097656 L 210 217.234375 L 14 217.234375 Z M 14 8.097656 " clip-rule="nonzero"/></clipPath><clipPath id="62bf5cc6f2"><path d="M 143.074219 153.855469 C 146.132812 109.601562 175.839844 123.820312 175.839844 76.746094 C 175.839844 41.5625 147.355469 13 112.265625 13 C 77.300781 13 48.816406 41.5625 48.816406 76.746094 C 48.816406 123.699219 78.402344 109.601562 81.457031 153.855469 L 96.738281 153.855469 L 96.738281 132.523438 L 91.972656 132.523438 C 88.671875 132.523438 88.671875 127.621094 91.972656 127.621094 L 96.738281 127.621094 L 96.738281 122.105469 L 91.972656 122.105469 C 88.671875 122.105469 88.671875 117.203125 91.972656 117.203125 L 96.738281 117.203125 L 96.738281 113.523438 C 96.738281 110.214844 101.628906 110.214844 101.628906 113.523438 L 101.628906 117.203125 L 123.023438 117.203125 L 123.023438 113.523438 C 123.023438 110.214844 127.914062 110.214844 127.914062 113.523438 L 127.914062 117.203125 L 132.683594 117.203125 C 135.863281 117.203125 135.863281 122.105469 132.683594 122.105469 L 127.914062 122.105469 L 127.914062 127.621094 L 132.683594 127.621094 C 135.863281 127.621094 135.863281 132.523438 132.683594 132.523438 L 127.914062 132.523438 L 127.914062 153.855469 Z M 112.265625 85.449219 C 101.386719 85.449219 92.460938 76.5 92.460938 65.589844 C 92.460938 54.558594 101.386719 45.609375 112.265625 45.609375 C 123.269531 45.609375 132.195312 54.558594 132.195312 65.589844 C 132.195312 76.5 123.269531 85.449219 112.265625 85.449219 Z M 112.265625 50.511719 C 104.074219 50.511719 97.351562 57.253906 97.351562 65.589844 C 97.351562 73.804688 104.074219 80.546875 112.265625 80.546875 C 120.578125 80.546875 127.304688 73.804688 127.304688 65.589844 C 127.304688 57.253906 120.578125 50.511719 112.265625 50.511719 Z M 116.914062 106.660156 C 102.851562 106.660156 102.121094 108.007812 102.121094 94.765625 C 98.453125 93.417969 95.152344 91.457031 92.214844 89.003906 C 88.671875 91.089844 82.558594 96.117188 79.136719 90.109375 C 72.042969 77.851562 70.578125 77.851562 81.949219 71.230469 C 81.335938 67.550781 81.335938 63.628906 81.949219 59.828125 C 70.578125 53.210938 72.042969 53.210938 79.011719 40.949219 C 82.558594 35.066406 88.671875 40.09375 92.214844 42.054688 C 95.152344 39.601562 98.453125 37.640625 102.121094 36.414062 C 102.121094 23.050781 102.851562 24.402344 116.914062 24.402344 C 123.636719 24.402344 122.535156 32 122.535156 36.414062 C 126.082031 37.640625 129.503906 39.601562 132.4375 42.054688 C 135.984375 40.09375 142.097656 35.066406 145.519531 40.949219 C 148.085938 45.363281 151.632812 49.777344 150.65625 53.210938 C 149.796875 56.398438 146.132812 57.746094 142.585938 59.828125 C 143.320312 63.628906 143.320312 67.429688 142.585938 71.230469 C 154.078125 77.851562 152.609375 77.851562 145.519531 90.109375 C 142.097656 96.117188 135.984375 91.089844 132.4375 89.003906 C 129.503906 91.457031 126.082031 93.417969 122.535156 94.765625 C 122.535156 99.058594 123.636719 106.660156 116.914062 106.660156 Z M 92.582031 83.488281 C 95.027344 83.488281 96.25 88.023438 105.175781 90.597656 C 109.210938 91.703125 105.296875 101.753906 107.742188 101.753906 L 116.914062 101.753906 C 119.355469 101.753906 115.445312 91.703125 119.355469 90.597656 C 129.503906 87.65625 130.117188 82.019531 133.292969 83.855469 L 140.261719 87.902344 C 140.628906 88.023438 140.996094 88.023438 141.363281 87.65625 L 146.007812 79.074219 C 145.519531 77.359375 136.59375 75.519531 137.449219 71.84375 C 140.019531 61.789062 135.496094 58.234375 138.671875 56.519531 L 146.007812 51.984375 L 141.363281 43.402344 C 140.140625 41.316406 133.292969 49.777344 130.359375 46.835938 C 122.78125 39.480469 117.644531 41.808594 117.644531 38.132812 L 117.644531 30.039062 C 117.644531 29.671875 117.277344 29.304688 116.914062 29.304688 L 107.742188 29.304688 C 105.296875 29.304688 109.210938 39.355469 105.175781 40.460938 C 95.152344 43.402344 94.539062 49.042969 91.359375 47.203125 L 84.269531 43.15625 C 84.027344 43.035156 83.535156 43.035156 83.292969 43.402344 L 78.769531 51.371094 C 77.546875 53.453125 88.183594 55.171875 87.082031 59.214844 C 84.636719 69.269531 89.160156 72.824219 85.980469 74.664062 L 79.011719 78.707031 C 78.644531 78.832031 78.523438 79.320312 78.769531 79.6875 L 83.292969 87.65625 C 84.269531 89.25 90.382812 83.488281 92.582031 83.488281 Z M 23.019531 47.078125 C 12.261719 47.078125 12.261719 30.652344 23.019531 30.652344 C 27.421875 30.652344 29.988281 33.226562 30.84375 36.414062 L 38.914062 36.414062 C 40.257812 36.414062 41.359375 37.519531 41.359375 38.867188 L 41.359375 54.925781 C 43.4375 54.925781 45.636719 54.804688 47.472656 54.804688 C 56.640625 27.710938 82.191406 8.097656 112.265625 8.097656 C 142.464844 8.097656 168.015625 27.710938 177.183594 54.925781 L 183.296875 54.925781 L 183.296875 38.867188 C 183.296875 37.519531 184.398438 36.414062 185.742188 36.414062 L 193.808594 36.414062 C 194.667969 33.226562 197.234375 30.652344 201.511719 30.652344 C 212.394531 30.652344 212.394531 47.078125 201.511719 47.078125 C 197.234375 47.078125 194.667969 44.503906 193.808594 41.316406 L 188.1875 41.316406 L 188.1875 57.378906 C 188.1875 58.726562 187.085938 59.828125 185.742188 59.828125 L 178.652344 59.828125 C 179.875 64.855469 180.605469 70.125 180.730469 75.644531 L 193.808594 75.644531 C 194.667969 72.457031 197.234375 69.882812 201.511719 69.882812 C 212.394531 69.882812 212.394531 86.308594 201.511719 86.308594 C 197.234375 86.308594 194.667969 83.734375 193.808594 80.546875 L 180.605469 80.546875 C 180.484375 86.800781 179.75 91.949219 178.527344 96.238281 L 185.742188 96.238281 C 187.085938 96.238281 188.1875 97.34375 188.1875 98.691406 L 188.1875 114.871094 C 190.144531 114.871094 192.097656 114.628906 193.808594 114.75 C 194.667969 111.5625 197.355469 108.988281 201.511719 108.988281 C 212.394531 108.988281 212.394531 125.539062 201.511719 125.539062 C 197.234375 125.539062 194.667969 122.839844 193.808594 119.777344 L 185.742188 119.777344 C 184.398438 119.777344 183.296875 118.671875 183.296875 117.324219 L 183.296875 101.140625 C 181.097656 101.140625 178.894531 101.386719 176.9375 101.386719 C 168.992188 122.59375 150.410156 121.492188 147.964844 153.976562 C 153.222656 154.835938 157.132812 159.371094 157.132812 164.765625 L 157.132812 181.683594 C 157.132812 190.511719 150.042969 196.761719 141.484375 196.761719 L 133.171875 215.765625 C 132.804688 216.746094 131.949219 217.234375 130.972656 217.234375 L 93.683594 217.234375 C 92.707031 217.234375 91.851562 216.746094 91.484375 215.765625 L 83.167969 196.761719 C 74.613281 196.761719 67.398438 190.511719 67.398438 181.683594 L 67.398438 164.765625 C 67.398438 159.371094 71.433594 154.835938 76.566406 153.976562 C 74.246094 121.371094 55.539062 122.71875 47.59375 101.140625 L 41.359375 101.140625 L 41.359375 117.324219 C 41.359375 118.671875 40.257812 119.777344 38.914062 119.777344 L 30.84375 119.777344 C 29.988281 122.839844 27.421875 125.539062 23.019531 125.539062 C 12.261719 125.539062 12.261719 108.988281 23.019531 108.988281 C 27.421875 108.988281 29.988281 111.683594 30.84375 114.871094 L 36.46875 114.871094 L 36.46875 98.8125 C 36.46875 97.34375 37.570312 96.359375 38.914062 96.359375 L 46.003906 96.359375 C 44.902344 91.949219 44.171875 86.800781 43.925781 80.546875 L 30.84375 80.546875 C 29.988281 83.734375 27.421875 86.308594 23.019531 86.308594 C 12.261719 86.308594 12.261719 69.882812 23.019531 69.882812 C 27.421875 69.882812 29.988281 72.457031 30.84375 75.644531 L 43.925781 75.644531 C 44.046875 70.125 44.78125 64.855469 46.003906 59.828125 L 38.914062 59.828125 C 37.570312 59.828125 36.46875 58.726562 36.46875 57.378906 L 36.46875 41.316406 C 34.511719 41.316406 32.433594 41.441406 30.84375 41.441406 C 29.867188 44.503906 27.300781 47.078125 23.019531 47.078125 Z M 23.019531 35.554688 C 18.621094 35.554688 18.621094 42.175781 23.019531 42.175781 C 27.421875 42.175781 27.421875 35.554688 23.019531 35.554688 Z M 23.019531 113.890625 C 18.621094 113.890625 18.621094 120.632812 23.019531 120.632812 C 27.421875 120.632812 27.421875 113.890625 23.019531 113.890625 Z M 23.019531 74.785156 C 18.621094 74.785156 18.621094 81.40625 23.019531 81.40625 C 27.421875 81.40625 27.421875 74.785156 23.019531 74.785156 Z M 201.511719 35.554688 C 197.234375 35.554688 197.234375 42.175781 201.511719 42.175781 C 205.914062 42.175781 205.914062 35.554688 201.511719 35.554688 Z M 201.511719 113.890625 C 197.234375 113.890625 197.234375 120.632812 201.511719 120.632812 C 205.914062 120.632812 205.914062 113.890625 201.511719 113.890625 Z M 201.511719 74.785156 C 197.234375 74.785156 197.234375 81.40625 201.511719 81.40625 C 205.914062 81.40625 205.914062 74.785156 201.511719 74.785156 Z M 123.023438 132.523438 L 101.628906 132.523438 L 101.628906 153.855469 L 123.023438 153.855469 Z M 101.628906 127.621094 L 123.023438 127.621094 L 123.023438 122.105469 L 101.628906 122.105469 Z M 152.242188 177.761719 L 72.289062 177.761719 L 72.289062 181.683594 C 72.289062 187.324219 76.933594 191.859375 82.558594 191.859375 L 142.097656 191.859375 C 147.71875 191.859375 152.242188 187.324219 152.242188 181.683594 Z M 72.289062 172.855469 L 152.242188 172.855469 L 152.242188 164.765625 C 152.242188 161.457031 149.554688 158.757812 146.253906 158.757812 L 78.28125 158.757812 C 74.980469 158.757812 72.289062 161.457031 72.289062 164.765625 Z M 88.425781 196.761719 L 95.273438 212.332031 L 129.382812 212.332031 L 136.105469 196.761719 Z M 88.425781 196.761719 " clip-rule="evenodd"/></clipPath><linearGradient x1="288.364355" gradientTransform="matrix(0.122255, 0, 0, 0.12259, 7.98312, 8.096416)" y1="-143.584614" x2="1418.09255" gradientUnits="userSpaceOnUse" y2="1849.89256" id="209e54fc0b"><stop stop-opacity="1" stop-color="rgb(25.099182%, 7.499695%, 47.499084%)" offset="0"/><stop stop-opacity="1" stop-color="rgb(25.099182%, 7.499695%, 47.499084%)" offset="0.0625"/><stop stop-opacity="1" stop-color="rgb(25.099182%, 7.499695%, 47.499084%)" offset="0.09375"/><stop stop-opacity="1" stop-color="rgb(25.099182%, 7.499695%, 47.499084%)" offset="0.101562"/><stop stop-opacity="1" stop-color="rgb(25.300598%, 7.476807%, 47.566223%)" offset="0.105469"/><stop stop-opacity="1" stop-color="rgb(25.502014%, 7.455444%, 47.634888%)" offset="0.109375"/><stop stop-opacity="1" stop-color="rgb(25.787354%, 7.423401%, 47.731018%)" offset="0.113281"/><stop stop-opacity="1" stop-color="rgb(26.072693%, 7.391357%, 47.828674%)" offset="0.117188"/><stop stop-opacity="1" stop-color="rgb(26.356506%, 7.359314%, 47.924805%)" offset="0.121094"/><stop stop-opacity="1" stop-color="rgb(26.641846%, 7.328796%, 48.020935%)" offset="0.125"/><stop stop-opacity="1" stop-color="rgb(26.925659%, 7.296753%, 48.117065%)" offset="0.128906"/><stop stop-opacity="1" stop-color="rgb(27.210999%, 7.266235%, 48.213196%)" offset="0.132812"/><stop stop-opacity="1" stop-color="rgb(27.494812%, 7.234192%, 48.309326%)" offset="0.136719"/><stop stop-opacity="1" stop-color="rgb(27.780151%, 7.203674%, 48.405457%)" offset="0.140625"/><stop stop-opacity="1" stop-color="rgb(28.065491%, 7.171631%, 48.501587%)" offset="0.144531"/><stop stop-opacity="1" stop-color="rgb(28.35083%, 7.141113%, 48.597717%)" offset="0.148438"/><stop stop-opacity="1" stop-color="rgb(28.634644%, 7.10907%, 48.693848%)" offset="0.152344"/><stop stop-opacity="1" stop-color="rgb(28.919983%, 7.077026%, 48.789978%)" offset="0.15625"/><stop stop-opacity="1" stop-color="rgb(29.203796%, 7.044983%, 48.886108%)" offset="0.160156"/><stop stop-opacity="1" stop-color="rgb(29.489136%, 7.014465%, 48.982239%)" offset="0.164063"/><stop stop-opacity="1" stop-color="rgb(29.772949%, 6.982422%, 49.078369%)" offset="0.167969"/><stop stop-opacity="1" stop-color="rgb(30.058289%, 6.951904%, 49.1745%)" offset="0.171875"/><stop stop-opacity="1" stop-color="rgb(30.342102%, 6.919861%, 49.27063%)" offset="0.175781"/><stop stop-opacity="1" stop-color="rgb(30.627441%, 6.889343%, 49.368286%)" offset="0.179688"/><stop stop-opacity="1" stop-color="rgb(30.912781%, 6.8573%, 49.464417%)" offset="0.183594"/><stop stop-opacity="1" stop-color="rgb(31.19812%, 6.826782%, 49.560547%)" offset="0.1875"/><stop stop-opacity="1" stop-color="rgb(31.481934%, 6.794739%, 49.656677%)" offset="0.191406"/><stop stop-opacity="1" stop-color="rgb(31.767273%, 6.764221%, 49.752808%)" offset="0.195313"/><stop stop-opacity="1" stop-color="rgb(32.051086%, 6.732178%, 49.848938%)" offset="0.199219"/><stop stop-opacity="1" stop-color="rgb(32.336426%, 6.700134%, 49.945068%)" offset="0.203125"/><stop stop-opacity="1" stop-color="rgb(32.620239%, 6.668091%, 50.041199%)" offset="0.207031"/><stop stop-opacity="1" stop-color="rgb(32.905579%, 6.637573%, 50.137329%)" offset="0.210938"/><stop stop-opacity="1" stop-color="rgb(33.190918%, 6.60553%, 50.233459%)" offset="0.214844"/><stop stop-opacity="1" stop-color="rgb(33.476257%, 6.575012%, 50.32959%)" offset="0.21875"/><stop stop-opacity="1" stop-color="rgb(33.760071%, 6.542969%, 50.42572%)" offset="0.222656"/><stop stop-opacity="1" stop-color="rgb(34.04541%, 6.512451%, 50.521851%)" offset="0.226563"/><stop stop-opacity="1" stop-color="rgb(34.329224%, 6.480408%, 50.617981%)" offset="0.230469"/><stop stop-opacity="1" stop-color="rgb(34.614563%, 6.44989%, 50.714111%)" offset="0.234375"/><stop stop-opacity="1" stop-color="rgb(34.898376%, 6.417847%, 50.810242%)" offset="0.238281"/><stop stop-opacity="1" stop-color="rgb(35.183716%, 6.385803%, 50.907898%)" offset="0.242188"/><stop stop-opacity="1" stop-color="rgb(35.467529%, 6.35376%, 51.004028%)" offset="0.246094"/><stop stop-opacity="1" stop-color="rgb(35.752869%, 6.323242%, 51.100159%)" offset="0.25"/><stop stop-opacity="1" stop-color="rgb(36.038208%, 6.291199%, 51.196289%)" offset="0.253906"/><stop stop-opacity="1" stop-color="rgb(36.323547%, 6.260681%, 51.292419%)" offset="0.257813"/><stop stop-opacity="1" stop-color="rgb(36.607361%, 6.228638%, 51.38855%)" offset="0.261719"/><stop stop-opacity="1" stop-color="rgb(36.8927%, 6.19812%, 51.48468%)" offset="0.265625"/><stop stop-opacity="1" stop-color="rgb(37.176514%, 6.166077%, 51.580811%)" offset="0.269531"/><stop stop-opacity="1" stop-color="rgb(37.461853%, 6.135559%, 51.676941%)" offset="0.273438"/><stop stop-opacity="1" stop-color="rgb(37.745667%, 6.103516%, 51.773071%)" offset="0.277344"/><stop stop-opacity="1" stop-color="rgb(38.031006%, 6.071472%, 51.869202%)" offset="0.28125"/><stop stop-opacity="1" stop-color="rgb(38.316345%, 6.039429%, 51.965332%)" offset="0.285156"/><stop stop-opacity="1" stop-color="rgb(38.601685%, 6.008911%, 52.061462%)" offset="0.289063"/><stop stop-opacity="1" stop-color="rgb(38.885498%, 5.976868%, 52.157593%)" offset="0.292969"/><stop stop-opacity="1" stop-color="rgb(39.170837%, 5.94635%, 52.253723%)" offset="0.296875"/><stop stop-opacity="1" stop-color="rgb(39.454651%, 5.914307%, 52.349854%)" offset="0.300781"/><stop stop-opacity="1" stop-color="rgb(39.73999%, 5.883789%, 52.44751%)" offset="0.304688"/><stop stop-opacity="1" stop-color="rgb(40.023804%, 5.851746%, 52.54364%)" offset="0.308594"/><stop stop-opacity="1" stop-color="rgb(40.309143%, 5.821228%, 52.639771%)" offset="0.3125"/><stop stop-opacity="1" stop-color="rgb(40.592957%, 5.789185%, 52.735901%)" offset="0.316406"/><stop stop-opacity="1" stop-color="rgb(40.878296%, 5.758667%, 52.832031%)" offset="0.320313"/><stop stop-opacity="1" stop-color="rgb(41.163635%, 5.726624%, 52.928162%)" offset="0.324219"/><stop stop-opacity="1" stop-color="rgb(41.448975%, 5.69458%, 53.024292%)" offset="0.328125"/><stop stop-opacity="1" stop-color="rgb(41.732788%, 5.662537%, 53.120422%)" offset="0.332031"/><stop stop-opacity="1" stop-color="rgb(42.018127%, 5.632019%, 53.216553%)" offset="0.335938"/><stop stop-opacity="1" stop-color="rgb(42.301941%, 5.599976%, 53.312683%)" offset="0.339844"/><stop stop-opacity="1" stop-color="rgb(42.58728%, 5.569458%, 53.408813%)" offset="0.34375"/><stop stop-opacity="1" stop-color="rgb(42.871094%, 5.537415%, 53.504944%)" offset="0.347656"/><stop stop-opacity="1" stop-color="rgb(43.156433%, 5.506897%, 53.601074%)" offset="0.351563"/><stop stop-opacity="1" stop-color="rgb(43.441772%, 5.474854%, 53.697205%)" offset="0.355469"/><stop stop-opacity="1" stop-color="rgb(43.727112%, 5.444336%, 53.793335%)" offset="0.359375"/><stop stop-opacity="1" stop-color="rgb(44.010925%, 5.412292%, 53.889465%)" offset="0.363281"/><stop stop-opacity="1" stop-color="rgb(44.296265%, 5.380249%, 53.987122%)" offset="0.367188"/><stop stop-opacity="1" stop-color="rgb(44.580078%, 5.348206%, 54.083252%)" offset="0.371094"/><stop stop-opacity="1" stop-color="rgb(44.865417%, 5.317688%, 54.179382%)" offset="0.375"/><stop stop-opacity="1" stop-color="rgb(45.149231%, 5.285645%, 54.275513%)" offset="0.378906"/><stop stop-opacity="1" stop-color="rgb(45.43457%, 5.255127%, 54.371643%)" offset="0.382813"/><stop stop-opacity="1" stop-color="rgb(45.718384%, 5.223083%, 54.467773%)" offset="0.386719"/><stop stop-opacity="1" stop-color="rgb(46.003723%, 5.192566%, 54.563904%)" offset="0.390625"/><stop stop-opacity="1" stop-color="rgb(46.289062%, 5.160522%, 54.660034%)" offset="0.394531"/><stop stop-opacity="1" stop-color="rgb(46.574402%, 5.130005%, 54.756165%)" offset="0.398438"/><stop stop-opacity="1" stop-color="rgb(46.858215%, 5.097961%, 54.852295%)" offset="0.402344"/><stop stop-opacity="1" stop-color="rgb(47.143555%, 5.067444%, 54.948425%)" offset="0.40625"/><stop stop-opacity="1" stop-color="rgb(47.427368%, 5.0354%, 55.044556%)" offset="0.410156"/><stop stop-opacity="1" stop-color="rgb(47.712708%, 5.003357%, 55.140686%)" offset="0.414063"/><stop stop-opacity="1" stop-color="rgb(47.996521%, 4.971313%, 55.236816%)" offset="0.417969"/><stop stop-opacity="1" stop-color="rgb(48.28186%, 4.940796%, 55.332947%)" offset="0.421875"/><stop stop-opacity="1" stop-color="rgb(48.5672%, 4.908752%, 55.429077%)" offset="0.425781"/><stop stop-opacity="1" stop-color="rgb(48.852539%, 4.878235%, 55.525208%)" offset="0.429688"/><stop stop-opacity="1" stop-color="rgb(49.136353%, 4.846191%, 55.621338%)" offset="0.433594"/><stop stop-opacity="1" stop-color="rgb(49.421692%, 4.815674%, 55.718994%)" offset="0.4375"/><stop stop-opacity="1" stop-color="rgb(49.705505%, 4.78363%, 55.815125%)" offset="0.441406"/><stop stop-opacity="1" stop-color="rgb(49.990845%, 4.753113%, 55.911255%)" offset="0.445313"/><stop stop-opacity="1" stop-color="rgb(50.274658%, 4.721069%, 56.007385%)" offset="0.449219"/><stop stop-opacity="1" stop-color="rgb(50.559998%, 4.689026%, 56.103516%)" offset="0.453125"/><stop stop-opacity="1" stop-color="rgb(50.843811%, 4.656982%, 56.199646%)" offset="0.457031"/><stop stop-opacity="1" stop-color="rgb(51.12915%, 4.626465%, 56.295776%)" offset="0.460938"/><stop stop-opacity="1" stop-color="rgb(51.41449%, 4.594421%, 56.391907%)" offset="0.464844"/><stop stop-opacity="1" stop-color="rgb(51.699829%, 4.563904%, 56.488037%)" offset="0.46875"/><stop stop-opacity="1" stop-color="rgb(51.983643%, 4.53186%, 56.584167%)" offset="0.472656"/><stop stop-opacity="1" stop-color="rgb(52.268982%, 4.501343%, 56.680298%)" offset="0.476563"/><stop stop-opacity="1" stop-color="rgb(52.552795%, 4.469299%, 56.776428%)" offset="0.480469"/><stop stop-opacity="1" stop-color="rgb(52.838135%, 4.438782%, 56.872559%)" offset="0.484375"/><stop stop-opacity="1" stop-color="rgb(53.121948%, 4.406738%, 56.968689%)" offset="0.488281"/><stop stop-opacity="1" stop-color="rgb(53.407288%, 4.376221%, 57.064819%)" offset="0.492188"/><stop stop-opacity="1" stop-color="rgb(53.692627%, 4.344177%, 57.16095%)" offset="0.496094"/><stop stop-opacity="1" stop-color="rgb(53.977966%, 4.312134%, 57.258606%)" offset="0.5"/><stop stop-opacity="1" stop-color="rgb(54.336548%, 4.290771%, 57.220459%)" offset="0.503906"/><stop stop-opacity="1" stop-color="rgb(54.696655%, 4.269409%, 57.182312%)" offset="0.507812"/><stop stop-opacity="1" stop-color="rgb(55.076599%, 4.251099%, 57.107544%)" offset="0.511719"/><stop stop-opacity="1" stop-color="rgb(55.456543%, 4.232788%, 57.034302%)" offset="0.515625"/><stop stop-opacity="1" stop-color="rgb(55.836487%, 4.212952%, 56.959534%)" offset="0.519531"/><stop stop-opacity="1" stop-color="rgb(56.216431%, 4.194641%, 56.886292%)" offset="0.523438"/><stop stop-opacity="1" stop-color="rgb(56.596375%, 4.174805%, 56.811523%)" offset="0.527344"/><stop stop-opacity="1" stop-color="rgb(56.976318%, 4.156494%, 56.736755%)" offset="0.53125"/><stop stop-opacity="1" stop-color="rgb(57.356262%, 4.138184%, 56.661987%)" offset="0.535156"/><stop stop-opacity="1" stop-color="rgb(57.737732%, 4.119873%, 56.588745%)" offset="0.539062"/><stop stop-opacity="1" stop-color="rgb(58.117676%, 4.100037%, 56.513977%)" offset="0.542969"/><stop stop-opacity="1" stop-color="rgb(58.49762%, 4.081726%, 56.440735%)" offset="0.546875"/><stop stop-opacity="1" stop-color="rgb(58.877563%, 4.06189%, 56.365967%)" offset="0.550781"/><stop stop-opacity="1" stop-color="rgb(59.257507%, 4.043579%, 56.291199%)" offset="0.554688"/><stop stop-opacity="1" stop-color="rgb(59.637451%, 4.025269%, 56.216431%)" offset="0.558594"/><stop stop-opacity="1" stop-color="rgb(60.017395%, 4.006958%, 56.143188%)" offset="0.5625"/><stop stop-opacity="1" stop-color="rgb(60.397339%, 3.987122%, 56.06842%)" offset="0.566406"/><stop stop-opacity="1" stop-color="rgb(60.777283%, 3.968811%, 55.995178%)" offset="0.570312"/><stop stop-opacity="1" stop-color="rgb(61.157227%, 3.948975%, 55.92041%)" offset="0.574219"/><stop stop-opacity="1" stop-color="rgb(61.53717%, 3.930664%, 55.845642%)" offset="0.578125"/><stop stop-opacity="1" stop-color="rgb(61.917114%, 3.912354%, 55.770874%)" offset="0.582031"/><stop stop-opacity="1" stop-color="rgb(62.298584%, 3.894043%, 55.697632%)" offset="0.585938"/><stop stop-opacity="1" stop-color="rgb(62.678528%, 3.874207%, 55.622864%)" offset="0.589844"/><stop stop-opacity="1" stop-color="rgb(63.058472%, 3.855896%, 55.549622%)" offset="0.59375"/><stop stop-opacity="1" stop-color="rgb(63.438416%, 3.83606%, 55.474854%)" offset="0.597656"/><stop stop-opacity="1" stop-color="rgb(63.818359%, 3.817749%, 55.401611%)" offset="0.601562"/><stop stop-opacity="1" stop-color="rgb(64.198303%, 3.799438%, 55.326843%)" offset="0.605469"/><stop stop-opacity="1" stop-color="rgb(64.578247%, 3.781128%, 55.252075%)" offset="0.609375"/><stop stop-opacity="1" stop-color="rgb(64.958191%, 3.761292%, 55.177307%)" offset="0.613281"/><stop stop-opacity="1" stop-color="rgb(65.338135%, 3.742981%, 55.104065%)" offset="0.617188"/><stop stop-opacity="1" stop-color="rgb(65.718079%, 3.723145%, 55.029297%)" offset="0.621094"/><stop stop-opacity="1" stop-color="rgb(66.098022%, 3.704834%, 54.956055%)" offset="0.625"/><stop stop-opacity="1" stop-color="rgb(66.477966%, 3.686523%, 54.881287%)" offset="0.628906"/><stop stop-opacity="1" stop-color="rgb(66.859436%, 3.668213%, 54.806519%)" offset="0.632812"/><stop stop-opacity="1" stop-color="rgb(67.23938%, 3.648376%, 54.73175%)" offset="0.636719"/><stop stop-opacity="1" stop-color="rgb(67.619324%, 3.630066%, 54.658508%)" offset="0.640625"/><stop stop-opacity="1" stop-color="rgb(67.999268%, 3.610229%, 54.58374%)" offset="0.644531"/><stop stop-opacity="1" stop-color="rgb(68.379211%, 3.591919%, 54.510498%)" offset="0.648438"/><stop stop-opacity="1" stop-color="rgb(68.759155%, 3.573608%, 54.43573%)" offset="0.652344"/><stop stop-opacity="1" stop-color="rgb(69.139099%, 3.555298%, 54.362488%)" offset="0.65625"/><stop stop-opacity="1" stop-color="rgb(69.519043%, 3.535461%, 54.28772%)" offset="0.660156"/><stop stop-opacity="1" stop-color="rgb(69.898987%, 3.517151%, 54.212952%)" offset="0.664062"/><stop stop-opacity="1" stop-color="rgb(70.278931%, 3.49884%, 54.138184%)" offset="0.667969"/><stop stop-opacity="1" stop-color="rgb(70.658875%, 3.48053%, 54.064941%)" offset="0.671875"/><stop stop-opacity="1" stop-color="rgb(71.038818%, 3.460693%, 53.990173%)" offset="0.675781"/><stop stop-opacity="1" stop-color="rgb(71.420288%, 3.442383%, 53.916931%)" offset="0.679688"/><stop stop-opacity="1" stop-color="rgb(71.800232%, 3.422546%, 53.842163%)" offset="0.683594"/><stop stop-opacity="1" stop-color="rgb(72.180176%, 3.404236%, 53.767395%)" offset="0.6875"/><stop stop-opacity="1" stop-color="rgb(72.56012%, 3.385925%, 53.692627%)" offset="0.691406"/><stop stop-opacity="1" stop-color="rgb(72.940063%, 3.367615%, 53.619385%)" offset="0.695312"/><stop stop-opacity="1" stop-color="rgb(73.320007%, 3.347778%, 53.544617%)" offset="0.699219"/><stop stop-opacity="1" stop-color="rgb(73.699951%, 3.329468%, 53.471375%)" offset="0.703125"/><stop stop-opacity="1" stop-color="rgb(74.079895%, 3.309631%, 53.396606%)" offset="0.707031"/><stop stop-opacity="1" stop-color="rgb(74.459839%, 3.291321%, 53.321838%)" offset="0.710938"/><stop stop-opacity="1" stop-color="rgb(74.839783%, 3.27301%, 53.24707%)" offset="0.714844"/><stop stop-opacity="1" stop-color="rgb(75.219727%, 3.2547%, 53.173828%)" offset="0.71875"/><stop stop-opacity="1" stop-color="rgb(75.59967%, 3.234863%, 53.09906%)" offset="0.722656"/><stop stop-opacity="1" stop-color="rgb(75.98114%, 3.216553%, 53.025818%)" offset="0.726562"/><stop stop-opacity="1" stop-color="rgb(76.361084%, 3.196716%, 52.95105%)" offset="0.730469"/><stop stop-opacity="1" stop-color="rgb(76.741028%, 3.178406%, 52.877808%)" offset="0.734375"/><stop stop-opacity="1" stop-color="rgb(77.120972%, 3.160095%, 52.80304%)" offset="0.738281"/><stop stop-opacity="1" stop-color="rgb(77.500916%, 3.141785%, 52.728271%)" offset="0.742188"/><stop stop-opacity="1" stop-color="rgb(77.880859%, 3.121948%, 52.653503%)" offset="0.746094"/><stop stop-opacity="1" stop-color="rgb(78.260803%, 3.103638%, 52.580261%)" offset="0.75"/><stop stop-opacity="1" stop-color="rgb(78.640747%, 3.083801%, 52.505493%)" offset="0.753906"/><stop stop-opacity="1" stop-color="rgb(79.020691%, 3.065491%, 52.432251%)" offset="0.757812"/><stop stop-opacity="1" stop-color="rgb(79.400635%, 3.04718%, 52.357483%)" offset="0.761719"/><stop stop-opacity="1" stop-color="rgb(79.780579%, 3.02887%, 52.282715%)" offset="0.765625"/><stop stop-opacity="1" stop-color="rgb(80.160522%, 3.009033%, 52.207947%)" offset="0.769531"/><stop stop-opacity="1" stop-color="rgb(80.541992%, 2.990723%, 52.134705%)" offset="0.773438"/><stop stop-opacity="1" stop-color="rgb(80.921936%, 2.970886%, 52.059937%)" offset="0.777344"/><stop stop-opacity="1" stop-color="rgb(81.30188%, 2.952576%, 51.986694%)" offset="0.78125"/><stop stop-opacity="1" stop-color="rgb(81.681824%, 2.934265%, 51.911926%)" offset="0.785156"/><stop stop-opacity="1" stop-color="rgb(82.061768%, 2.915955%, 51.837158%)" offset="0.789062"/><stop stop-opacity="1" stop-color="rgb(82.441711%, 2.896118%, 51.76239%)" offset="0.792969"/><stop stop-opacity="1" stop-color="rgb(82.821655%, 2.877808%, 51.689148%)" offset="0.796875"/><stop stop-opacity="1" stop-color="rgb(83.201599%, 2.859497%, 51.61438%)" offset="0.800781"/><stop stop-opacity="1" stop-color="rgb(83.581543%, 2.841187%, 51.541138%)" offset="0.804688"/><stop stop-opacity="1" stop-color="rgb(83.961487%, 2.82135%, 51.46637%)" offset="0.808594"/><stop stop-opacity="1" stop-color="rgb(84.341431%, 2.80304%, 51.393127%)" offset="0.8125"/><stop stop-opacity="1" stop-color="rgb(84.721375%, 2.783203%, 51.318359%)" offset="0.816406"/><stop stop-opacity="1" stop-color="rgb(85.102844%, 2.764893%, 51.243591%)" offset="0.820312"/><stop stop-opacity="1" stop-color="rgb(85.482788%, 2.746582%, 51.168823%)" offset="0.824219"/><stop stop-opacity="1" stop-color="rgb(85.862732%, 2.728271%, 51.095581%)" offset="0.828125"/><stop stop-opacity="1" stop-color="rgb(86.242676%, 2.708435%, 51.020813%)" offset="0.832031"/><stop stop-opacity="1" stop-color="rgb(86.62262%, 2.690125%, 50.947571%)" offset="0.835938"/><stop stop-opacity="1" stop-color="rgb(87.002563%, 2.670288%, 50.872803%)" offset="0.839844"/><stop stop-opacity="1" stop-color="rgb(87.382507%, 2.651978%, 50.798035%)" offset="0.84375"/><stop stop-opacity="1" stop-color="rgb(87.762451%, 2.633667%, 50.723267%)" offset="0.847656"/><stop stop-opacity="1" stop-color="rgb(88.142395%, 2.615356%, 50.650024%)" offset="0.851562"/><stop stop-opacity="1" stop-color="rgb(88.522339%, 2.59552%, 50.575256%)" offset="0.855469"/><stop stop-opacity="1" stop-color="rgb(88.902283%, 2.577209%, 50.502014%)" offset="0.859375"/><stop stop-opacity="1" stop-color="rgb(89.282227%, 2.557373%, 50.427246%)" offset="0.863281"/><stop stop-opacity="1" stop-color="rgb(89.663696%, 2.539062%, 50.352478%)" offset="0.867188"/><stop stop-opacity="1" stop-color="rgb(90.04364%, 2.520752%, 50.27771%)" offset="0.871094"/><stop stop-opacity="1" stop-color="rgb(90.423584%, 2.502441%, 50.204468%)" offset="0.875"/><stop stop-opacity="1" stop-color="rgb(90.803528%, 2.482605%, 50.1297%)" offset="0.878906"/><stop stop-opacity="1" stop-color="rgb(91.183472%, 2.464294%, 50.056458%)" offset="0.882812"/><stop stop-opacity="1" stop-color="rgb(91.563416%, 2.444458%, 49.981689%)" offset="0.886719"/><stop stop-opacity="1" stop-color="rgb(91.943359%, 2.426147%, 49.908447%)" offset="0.890625"/><stop stop-opacity="1" stop-color="rgb(92.221069%, 2.412415%, 49.853516%)" offset="0.894531"/><stop stop-opacity="1" stop-color="rgb(92.498779%, 2.398682%, 49.798584%)" offset="0.898438"/><stop stop-opacity="1" stop-color="rgb(92.498779%, 2.398682%, 49.798584%)" offset="0.90625"/><stop stop-opacity="1" stop-color="rgb(92.498779%, 2.398682%, 49.798584%)" offset="0.9375"/><stop stop-opacity="1" stop-color="rgb(92.498779%, 2.398682%, 49.798584%)" offset="1"/></linearGradient></defs><g clip-path="url(#b25840db4f)"><g clip-path="url(#62bf5cc6f2)"><path fill="url(#209e54fc0b)" d="M 12.261719 8.097656 L 12.261719 217.234375 L 212.394531 217.234375 L 212.394531 8.097656 Z M 12.261719 8.097656 " fill-rule="nonzero"/></g></g></svg>