<svg xmlns="http://www.w3.org/2000/svg" xmlns:xlink="http://www.w3.org/1999/xlink" width="300" zoomAndPan="magnify" viewBox="0 0 224.87999 225" height="300" preserveAspectRatio="xMidYMid meet" version="1.0"><defs><clipPath id="3583637866"><path d="M 33.6875 36.40625 L 191.105469 36.40625 L 191.105469 171 L 33.6875 171 Z M 33.6875 36.40625 " clip-rule="nonzero"/></clipPath><clipPath id="ce4e2cbee1"><path d="M 33.6875 121 L 191.105469 121 L 191.105469 188.574219 L 33.6875 188.574219 Z M 33.6875 121 " clip-rule="nonzero"/></clipPath></defs><g clip-path="url(#3583637866)"><path fill="#000000" d="M 191.105469 96.574219 C 191.105469 96.5 191.105469 96.421875 191.105469 96.347656 L 172.238281 81.957031 L 172.238281 61.539062 C 172.238281 57.84375 169.179688 54.832031 165.527344 54.832031 L 136.519531 54.832031 L 112.359375 36.445312 L 88.273438 54.832031 L 59.265625 54.832031 C 55.613281 54.832031 52.554688 57.84375 52.554688 61.535156 L 52.554688 81.957031 L 33.6875 96.347656 C 33.6875 96.421875 33.6875 96.5 33.6875 96.574219 L 52.554688 96.574219 L 52.554688 98.835938 L 33.6875 98.835938 L 33.6875 170.34375 L 92.820312 131.535156 L 90.660156 131.535156 L 54.792969 108.027344 L 54.792969 61.535156 C 54.792969 59.125 56.804688 57.089844 59.265625 57.089844 L 165.527344 57.089844 C 167.988281 57.089844 170 59.125 170 61.535156 L 170 108.027344 L 134.132812 131.535156 L 131.972656 131.535156 L 191.105469 170.339844 L 191.105469 98.835938 L 172.238281 98.835938 L 172.238281 96.574219 Z M 52.554688 108.78125 L 40.921875 101.09375 L 52.554688 101.09375 Z M 183.871094 101.09375 L 172.238281 108.78125 L 172.238281 101.09375 Z M 183.871094 101.09375 " fill-opacity="1" fill-rule="nonzero"/></g><g clip-path="url(#ce4e2cbee1)"><path fill="#000000" d="M 33.6875 173.054688 C 33.761719 181.570312 40.699219 188.5 49.125 188.5 L 175.667969 188.5 C 184.09375 188.5 191.03125 181.570312 191.105469 173.054688 L 112.359375 121.363281 Z M 33.6875 173.054688 " fill-opacity="1" fill-rule="nonzero"/></g><path fill="#000000" d="M 91.332031 88.359375 C 91.332031 100.117188 100.726562 109.683594 112.359375 109.683594 C 124.066406 109.683594 133.460938 100.117188 133.460938 88.359375 C 133.460938 86.929688 133.3125 85.574219 133.089844 84.21875 L 116.984375 100.566406 C 116.90625 100.644531 116.832031 100.71875 116.757812 100.71875 C 114.523438 102.753906 111.089844 102.527344 109.152344 100.265625 L 97.371094 86.703125 C 95.433594 84.441406 95.65625 80.976562 97.894531 78.941406 C 100.128906 76.984375 103.558594 77.210938 105.5 79.46875 L 113.476562 88.664062 L 127.945312 73.96875 C 124.066406 69.75 118.546875 67.035156 112.359375 67.035156 C 100.726562 67.039062 91.332031 76.605469 91.332031 88.359375 Z M 91.332031 88.359375 " fill-opacity="1" fill-rule="nonzero"/><path fill="#000000" d="M 103.859375 80.976562 C 102.664062 79.621094 100.726562 79.46875 99.382812 80.675781 C 98.042969 81.804688 97.894531 83.839844 99.085938 85.195312 L 110.867188 98.761719 C 111.984375 100.117188 114 100.191406 115.34375 99.0625 C 115.34375 98.984375 115.417969 98.984375 115.492188 98.910156 L 139.054688 74.949219 C 140.324219 73.667969 140.246094 71.632812 139.054688 70.355469 C 137.785156 69.148438 135.773438 69.148438 134.582031 70.429688 L 113.328125 91.980469 Z M 103.859375 80.976562 " fill-opacity="1" fill-rule="nonzero"/></svg>