<svg xmlns="http://www.w3.org/2000/svg" xmlns:xlink="http://www.w3.org/1999/xlink" width="300" zoomAndPan="magnify" viewBox="0 0 224.87999 225" height="300" preserveAspectRatio="xMidYMid meet" version="1.0"><defs><clipPath id="60911f7883"><path d="M 47.664062 49.910156 L 177.347656 49.910156 L 177.347656 161 L 47.664062 161 Z M 47.664062 49.910156 " clip-rule="nonzero"/></clipPath><clipPath id="8716f999e7"><path d="M 47.664062 119 L 177.347656 119 L 177.347656 175.09375 L 47.664062 175.09375 Z M 47.664062 119 " clip-rule="nonzero"/></clipPath></defs><g clip-path="url(#60911f7883)"><path fill="#136035" d="M 177.347656 99.410156 C 177.347656 99.347656 177.347656 99.285156 177.347656 99.222656 L 161.804688 87.386719 L 161.804688 70.585938 C 161.804688 67.550781 159.285156 65.070312 156.277344 65.070312 L 132.378906 65.070312 L 112.476562 49.945312 L 92.632812 65.070312 L 68.734375 65.070312 C 65.726562 65.070312 63.207031 67.550781 63.207031 70.585938 L 63.207031 87.382812 L 47.664062 99.222656 C 47.664062 99.285156 47.664062 99.347656 47.664062 99.410156 L 63.207031 99.410156 L 63.207031 101.269531 L 47.664062 101.269531 L 47.664062 160.09375 L 96.378906 128.171875 L 94.597656 128.171875 L 65.050781 108.832031 L 65.050781 70.585938 C 65.050781 68.601562 66.710938 66.929688 68.734375 66.929688 L 156.277344 66.929688 C 158.300781 66.929688 159.960938 68.605469 159.960938 70.585938 L 159.960938 108.832031 L 130.414062 128.171875 L 128.632812 128.171875 L 177.347656 160.09375 L 177.347656 101.269531 L 161.804688 101.269531 L 161.804688 99.410156 Z M 63.207031 109.453125 L 53.625 103.128906 L 63.207031 103.128906 Z M 171.386719 103.128906 L 161.804688 109.453125 L 161.804688 103.128906 Z M 171.386719 103.128906 " fill-opacity="1" fill-rule="nonzero"/></g><g clip-path="url(#8716f999e7)"><path fill="#136035" d="M 47.664062 162.324219 C 47.726562 169.328125 53.441406 175.03125 60.382812 175.03125 L 164.628906 175.03125 C 171.570312 175.03125 177.285156 169.328125 177.347656 162.324219 L 112.476562 119.800781 Z M 47.664062 162.324219 " fill-opacity="1" fill-rule="nonzero"/></g><path fill="#136035" d="M 95.152344 92.652344 C 95.152344 102.324219 102.890625 110.195312 112.476562 110.195312 C 122.121094 110.195312 129.859375 102.324219 129.859375 92.652344 C 129.859375 91.476562 129.738281 90.359375 129.550781 89.246094 L 116.285156 102.695312 C 116.222656 102.757812 116.160156 102.820312 116.101562 102.820312 C 114.257812 104.492188 111.429688 104.304688 109.832031 102.445312 L 100.128906 91.289062 C 98.53125 89.429688 98.714844 86.578125 100.558594 84.90625 C 102.398438 83.292969 105.226562 83.480469 106.824219 85.339844 L 113.398438 92.902344 L 125.3125 80.8125 C 122.121094 77.34375 117.574219 75.113281 112.476562 75.113281 C 102.890625 75.113281 95.152344 82.984375 95.152344 92.652344 Z M 95.152344 92.652344 " fill-opacity="1" fill-rule="nonzero"/><path fill="#136035" d="M 105.472656 86.578125 C 104.488281 85.464844 102.890625 85.339844 101.785156 86.332031 C 100.679688 87.261719 100.558594 88.933594 101.539062 90.050781 L 111.246094 101.207031 C 112.167969 102.324219 113.828125 102.386719 114.933594 101.457031 C 114.933594 101.394531 114.992188 101.394531 115.054688 101.332031 L 134.46875 81.621094 C 135.511719 80.566406 135.449219 78.894531 134.46875 77.839844 C 133.421875 76.847656 131.765625 76.847656 130.78125 77.902344 L 113.273438 95.628906 Z M 105.472656 86.578125 " fill-opacity="1" fill-rule="nonzero"/></svg>