<svg xmlns="http://www.w3.org/2000/svg" xmlns:xlink="http://www.w3.org/1999/xlink" width="300" zoomAndPan="magnify" viewBox="0 0 224.87999 225" height="300" preserveAspectRatio="xMidYMid meet" version="1.0"><defs><clipPath id="50abae6390"><path d="M 54.355469 44.761719 L 170.542969 44.761719 L 170.542969 180 L 54.355469 180 Z M 54.355469 44.761719 " clip-rule="nonzero"/></clipPath></defs><g clip-path="url(#50abae6390)"><path fill="#000000" d="M 169.316406 65.175781 C 168.710938 64.476562 167.949219 64.109375 167.027344 64.070312 C 166.703125 64.070312 134.988281 62.785156 114.175781 45.5 C 113.886719 45.261719 113.570312 45.078125 113.214844 44.953125 C 112.863281 44.824219 112.503906 44.761719 112.128906 44.761719 C 111.753906 44.761719 111.390625 44.824219 111.039062 44.953125 C 110.6875 45.078125 110.367188 45.261719 110.082031 45.5 C 89.269531 62.832031 57.566406 64.070312 57.230469 64.070312 C 56.792969 64.085938 56.371094 64.1875 55.972656 64.375 C 55.574219 64.5625 55.230469 64.820312 54.9375 65.152344 C 54.648438 65.480469 54.433594 65.855469 54.292969 66.273438 C 54.15625 66.691406 54.105469 67.121094 54.144531 67.5625 C 54.144531 67.5625 57.117188 101.910156 58.378906 116.128906 C 59.664062 130.136719 61.96875 156.1875 110.75 179.4375 C 111.183594 179.644531 111.644531 179.746094 112.128906 179.746094 C 112.613281 179.746094 113.070312 179.644531 113.507812 179.4375 C 162.292969 156.1875 164.625 130.136719 165.875 116.128906 C 167.160156 101.910156 170.113281 67.5625 170.113281 67.5625 C 170.183594 66.652344 169.921875 65.859375 169.316406 65.175781 Z M 159.484375 115.589844 C 158.351562 128.183594 156.273438 151.503906 112.128906 172.992188 C 67.984375 151.503906 65.910156 128.183594 64.773438 115.589844 C 63.746094 104.019531 61.5625 79.207031 60.820312 70.300781 C 65.402344 69.953125 69.941406 69.304688 74.4375 68.355469 C 78.9375 67.402344 83.351562 66.160156 87.683594 64.625 C 92.015625 63.089844 96.226562 61.273438 100.320312 59.179688 C 104.414062 57.082031 108.347656 54.726562 112.128906 52.109375 C 115.910156 54.726562 119.84375 57.082031 123.9375 59.179688 C 128.027344 61.273438 132.242188 63.089844 136.574219 64.625 C 140.90625 66.160156 145.320312 67.402344 149.816406 68.355469 C 154.3125 69.304688 158.855469 69.953125 163.4375 70.300781 C 162.667969 79.207031 160.511719 104.039062 159.484375 115.589844 Z M 107.558594 118.449219 L 123.894531 98.917969 C 124.167969 98.589844 124.492188 98.328125 124.871094 98.128906 C 125.25 97.933594 125.648438 97.816406 126.074219 97.777344 C 126.496094 97.742188 126.914062 97.785156 127.320312 97.914062 C 127.726562 98.039062 128.089844 98.242188 128.417969 98.515625 C 128.746094 98.789062 129.007812 99.113281 129.203125 99.492188 C 129.402344 99.867188 129.519531 100.269531 129.558594 100.695312 C 129.59375 101.121094 129.550781 101.535156 129.425781 101.941406 C 129.296875 102.347656 129.097656 102.714844 128.824219 103.042969 L 109.921875 125.636719 C 109.617188 126.003906 109.246094 126.289062 108.816406 126.492188 C 108.386719 126.691406 107.929688 126.792969 107.457031 126.792969 L 107.398438 126.792969 C 106.910156 126.785156 106.449219 126.667969 106.015625 126.449219 C 105.582031 126.230469 105.214844 125.925781 104.917969 125.542969 L 95.363281 113.136719 C 95.085938 112.800781 94.886719 112.421875 94.761719 112.007812 C 94.636719 111.589844 94.601562 111.164062 94.648438 110.730469 C 94.695312 110.300781 94.828125 109.894531 95.039062 109.515625 C 95.253906 109.136719 95.53125 108.8125 95.875 108.546875 C 96.21875 108.28125 96.601562 108.09375 97.023438 107.984375 C 97.441406 107.871094 97.867188 107.847656 98.296875 107.910156 C 98.726562 107.972656 99.128906 108.117188 99.5 108.339844 C 99.871094 108.566406 100.183594 108.855469 100.4375 109.207031 Z M 107.558594 118.449219 " fill-opacity="1" fill-rule="nonzero"/></g></svg>