<svg xmlns="http://www.w3.org/2000/svg" xmlns:xlink="http://www.w3.org/1999/xlink" width="300" zoomAndPan="magnify" viewBox="0 0 224.87999 225" height="300" preserveAspectRatio="xMidYMid meet" version="1.0"><defs><clipPath id="5447956606"><path d="M 26 6.375 L 218.453125 6.375 L 218.453125 73 L 26 73 Z M 26 6.375 " clip-rule="nonzero"/></clipPath><clipPath id="f567e98323"><path d="M 6.316406 79 L 199 79 L 199 146 L 6.316406 146 Z M 6.316406 79 " clip-rule="nonzero"/></clipPath><clipPath id="83df5a437d"><path d="M 26 152 L 218.453125 152 L 218.453125 218.511719 L 26 218.511719 Z M 26 152 " clip-rule="nonzero"/></clipPath></defs><path fill="#136035" d="M 109.070312 32.894531 L 135.585938 32.894531 C 137.417969 32.894531 138.902344 31.410156 138.902344 29.578125 C 138.902344 27.75 137.417969 26.265625 135.585938 26.265625 L 109.070312 26.265625 C 107.242188 26.265625 105.753906 27.75 105.753906 29.578125 C 105.753906 31.410156 107.242188 32.894531 109.070312 32.894531 Z M 109.070312 32.894531 " fill-opacity="1" fill-rule="nonzero"/><path fill="#136035" d="M 201.878906 46.152344 L 109.070312 46.152344 C 107.242188 46.152344 105.753906 47.636719 105.753906 49.464844 C 105.753906 51.296875 107.242188 52.78125 109.070312 52.78125 L 201.878906 52.78125 C 203.710938 52.78125 205.195312 51.296875 205.195312 49.464844 C 205.195312 47.636719 203.710938 46.152344 201.878906 46.152344 Z M 201.878906 46.152344 " fill-opacity="1" fill-rule="nonzero"/><path fill="#136035" d="M 89.183594 105.816406 L 115.699219 105.816406 C 117.527344 105.816406 119.015625 104.332031 119.015625 102.5 C 119.015625 100.671875 117.527344 99.1875 115.699219 99.1875 L 89.183594 99.1875 C 87.351562 99.1875 85.867188 100.671875 85.867188 102.5 C 85.867188 104.332031 87.351562 105.816406 89.183594 105.816406 Z M 89.183594 105.816406 " fill-opacity="1" fill-rule="nonzero"/><path fill="#136035" d="M 89.183594 125.703125 L 181.992188 125.703125 C 183.820312 125.703125 185.308594 124.21875 185.308594 122.390625 C 185.308594 120.558594 183.820312 119.074219 181.992188 119.074219 L 89.183594 119.074219 C 87.351562 119.074219 85.867188 120.558594 85.867188 122.390625 C 85.867188 124.21875 87.351562 125.703125 89.183594 125.703125 Z M 89.183594 125.703125 " fill-opacity="1" fill-rule="nonzero"/><g clip-path="url(#5447956606)"><path fill="#136035" d="M 201.878906 6.375 L 42.777344 6.375 C 33.628906 6.375 26.203125 13.800781 26.203125 22.949219 L 26.203125 56.097656 C 26.203125 65.246094 33.628906 72.667969 42.777344 72.667969 L 201.878906 72.667969 C 211.027344 72.667969 218.453125 65.246094 218.453125 56.097656 L 218.453125 22.949219 C 218.453125 13.800781 211.027344 6.375 201.878906 6.375 Z M 85.144531 25.023438 L 58.628906 58.171875 C 58.039062 58.898438 57.15625 59.351562 56.222656 59.402344 C 56.160156 59.410156 56.09375 59.410156 56.035156 59.410156 C 55.160156 59.410156 54.3125 59.066406 53.6875 58.441406 L 40.429688 45.183594 C 39.136719 43.890625 39.136719 41.789062 40.429688 40.496094 C 41.722656 39.203125 43.824219 39.203125 45.117188 40.496094 L 55.757812 51.136719 L 79.960938 20.882812 C 81.109375 19.460938 83.195312 19.222656 84.621094 20.363281 C 86.054688 21.503906 86.285156 23.59375 85.144531 25.023438 Z M 211.824219 56.097656 C 211.824219 61.597656 207.382812 66.039062 201.878906 66.039062 L 99.125 66.039062 L 99.125 13.003906 L 201.878906 13.003906 C 207.382812 13.003906 211.824219 17.449219 211.824219 22.949219 Z M 211.824219 56.097656 " fill-opacity="1" fill-rule="nonzero"/></g><g clip-path="url(#f567e98323)"><path fill="#136035" d="M 198.566406 129.019531 L 198.566406 95.871094 C 198.566406 86.722656 191.140625 79.296875 181.992188 79.296875 L 22.890625 79.296875 C 13.742188 79.296875 6.316406 86.722656 6.316406 95.871094 L 6.316406 129.019531 C 6.316406 138.167969 13.742188 145.589844 22.890625 145.589844 L 181.992188 145.589844 C 191.140625 145.589844 198.566406 138.167969 198.566406 129.019531 Z M 65.257812 97.945312 L 38.738281 131.09375 C 38.148438 131.828125 37.273438 132.28125 36.332031 132.332031 C 36.273438 132.332031 36.207031 132.332031 36.148438 132.332031 C 35.273438 132.332031 34.425781 131.988281 33.800781 131.363281 L 20.542969 118.105469 C 19.25 116.8125 19.25 114.710938 20.542969 113.417969 C 21.835938 112.125 23.9375 112.125 25.230469 113.417969 L 35.871094 124.058594 L 60.074219 93.804688 C 61.21875 92.382812 63.300781 92.144531 64.734375 93.285156 C 66.164062 94.425781 66.398438 96.515625 65.257812 97.945312 Z M 79.238281 85.929688 L 181.992188 85.929688 C 187.496094 85.929688 191.9375 90.371094 191.9375 95.871094 L 191.9375 129.019531 C 191.9375 134.519531 187.496094 138.960938 181.992188 138.960938 L 79.238281 138.960938 Z M 79.238281 85.929688 " fill-opacity="1" fill-rule="nonzero"/></g><g clip-path="url(#83df5a437d)"><path fill="#136035" d="M 201.878906 152.21875 L 42.777344 152.21875 C 33.628906 152.21875 26.203125 159.644531 26.203125 168.792969 L 26.203125 201.941406 C 26.203125 211.089844 33.628906 218.511719 42.777344 218.511719 L 201.878906 218.511719 C 211.027344 218.511719 218.453125 211.089844 218.453125 201.941406 L 218.453125 168.792969 C 218.453125 159.644531 211.027344 152.21875 201.878906 152.21875 Z M 85.144531 170.867188 L 58.628906 204.015625 C 58.039062 204.75 57.164062 205.203125 56.222656 205.253906 C 56.160156 205.253906 56.09375 205.253906 56.035156 205.253906 C 55.160156 205.253906 54.3125 204.910156 53.6875 204.285156 L 40.429688 191.027344 C 39.136719 189.734375 39.136719 187.632812 40.429688 186.339844 C 41.722656 185.046875 43.824219 185.046875 45.117188 186.339844 L 55.757812 196.980469 L 79.960938 166.726562 C 81.109375 165.308594 83.195312 165.066406 84.621094 166.207031 C 86.054688 167.347656 86.285156 169.4375 85.144531 170.867188 Z M 211.824219 201.941406 C 211.824219 207.441406 207.382812 211.882812 201.878906 211.882812 L 99.125 211.882812 L 99.125 158.851562 L 201.878906 158.851562 C 207.382812 158.851562 211.824219 163.292969 211.824219 168.792969 Z M 211.824219 201.941406 " fill-opacity="1" fill-rule="nonzero"/></g><path fill="#136035" d="M 109.070312 178.738281 L 135.585938 178.738281 C 137.417969 178.738281 138.902344 177.253906 138.902344 175.421875 C 138.902344 173.59375 137.417969 172.109375 135.585938 172.109375 L 109.070312 172.109375 C 107.242188 172.109375 105.753906 173.59375 105.753906 175.421875 C 105.753906 177.253906 107.242188 178.738281 109.070312 178.738281 Z M 109.070312 178.738281 " fill-opacity="1" fill-rule="nonzero"/><path fill="#136035" d="M 201.878906 191.996094 L 109.070312 191.996094 C 107.242188 191.996094 105.753906 193.480469 105.753906 195.3125 C 105.753906 197.140625 107.242188 198.625 109.070312 198.625 L 201.878906 198.625 C 203.710938 198.625 205.195312 197.140625 205.195312 195.3125 C 205.195312 193.480469 203.710938 191.996094 201.878906 191.996094 Z M 201.878906 191.996094 " fill-opacity="1" fill-rule="nonzero"/></svg>