<svg xmlns="http://www.w3.org/2000/svg" xmlns:xlink="http://www.w3.org/1999/xlink" width="300" zoomAndPan="magnify" viewBox="0 0 224.87999 225" height="300" preserveAspectRatio="xMidYMid meet" version="1.0"><defs><clipPath id="f59e541790"><path d="M 39.429688 46.84375 L 185.601562 46.84375 L 185.601562 193.019531 L 39.429688 193.019531 Z M 39.429688 46.84375 " clip-rule="nonzero"/></clipPath></defs><g clip-path="url(#f59e541790)"><path fill="#000000" d="M 63.816406 102.152344 L 68.253906 97.714844 L 63.816406 93.277344 C 63.007812 92.46875 63.007812 91.15625 63.816406 90.347656 C 64.625 89.539062 65.933594 89.539062 66.746094 90.347656 L 71.183594 94.785156 L 75.621094 90.347656 C 76.429688 89.539062 77.742188 89.539062 78.550781 90.347656 C 79.359375 91.15625 79.359375 92.46875 78.550781 93.277344 L 74.113281 97.714844 L 78.550781 102.152344 C 79.359375 102.960938 79.359375 104.273438 78.550781 105.082031 C 78.144531 105.488281 77.613281 105.6875 77.085938 105.6875 C 76.554688 105.6875 76.023438 105.488281 75.621094 105.082031 L 71.183594 100.644531 L 66.742188 105.082031 C 65.933594 105.890625 64.625 105.890625 63.816406 105.082031 C 63.007812 104.273438 63.007812 102.960938 63.816406 102.152344 Z M 54.316406 109.550781 L 54.316406 85.878906 C 54.316406 83.105469 56.574219 80.847656 59.347656 80.847656 L 83.019531 80.847656 C 85.792969 80.847656 88.046875 83.105469 88.046875 85.878906 L 88.046875 109.550781 C 88.046875 112.324219 85.792969 114.582031 83.019531 114.582031 L 59.347656 114.582031 C 56.574219 114.582031 54.316406 112.324219 54.316406 109.550781 Z M 58.457031 109.550781 C 58.457031 110.039062 58.855469 110.4375 59.347656 110.4375 L 83.019531 110.4375 C 83.507812 110.4375 83.90625 110.039062 83.90625 109.550781 L 83.90625 85.878906 C 83.90625 85.390625 83.507812 84.992188 83.019531 84.992188 L 59.347656 84.992188 C 58.855469 84.992188 58.457031 85.390625 58.457031 85.878906 Z M 118.175781 104.003906 C 118.5 104.484375 119.011719 104.808594 119.585938 104.898438 C 119.6875 104.910156 119.792969 104.917969 119.894531 104.917969 C 120.367188 104.917969 120.828125 104.757812 121.199219 104.457031 L 133.839844 94.191406 C 134.730469 93.46875 134.863281 92.164062 134.144531 91.277344 C 133.421875 90.386719 132.117188 90.253906 131.230469 90.976562 L 120.347656 99.808594 L 117.144531 95.039062 C 116.507812 94.089844 115.222656 93.839844 114.273438 94.476562 C 113.320312 95.113281 113.070312 96.398438 113.707031 97.347656 Z M 107.113281 109.550781 L 107.113281 85.878906 C 107.113281 83.105469 109.371094 80.847656 112.144531 80.847656 L 135.816406 80.847656 C 138.589844 80.847656 140.847656 83.105469 140.847656 85.878906 L 140.847656 109.550781 C 140.847656 112.324219 138.589844 114.582031 135.816406 114.582031 L 112.144531 114.582031 C 109.371094 114.582031 107.113281 112.324219 107.113281 109.550781 Z M 111.257812 109.550781 C 111.257812 110.039062 111.65625 110.4375 112.144531 110.4375 L 135.816406 110.4375 C 136.304688 110.4375 136.703125 110.039062 136.703125 109.550781 L 136.703125 85.878906 C 136.703125 85.390625 136.304688 84.992188 135.816406 84.992188 L 112.144531 84.992188 C 111.65625 84.992188 111.257812 85.390625 111.257812 85.878906 Z M 139.3125 147.691406 C 138.675781 146.742188 137.386719 146.488281 136.4375 147.125 C 135.488281 147.761719 135.238281 149.050781 135.875 150 L 143.542969 161.417969 C 143.867188 161.902344 144.378906 162.226562 144.953125 162.3125 C 145.054688 162.328125 145.160156 162.335938 145.261719 162.335938 C 145.734375 162.335938 146.195312 162.171875 146.566406 161.871094 L 168.261719 144.253906 C 169.148438 143.535156 169.285156 142.230469 168.5625 141.339844 C 167.84375 140.453125 166.539062 140.316406 165.648438 141.039062 L 145.714844 157.226562 Z M 185.601562 129.0625 L 185.601562 155.515625 C 185.601562 163.300781 181.929688 171.601562 175.265625 178.886719 C 169.269531 185.433594 161.464844 190.550781 153.84375 192.925781 C 153.785156 192.941406 153.722656 192.953125 153.664062 192.964844 L 153.664062 193.015625 L 153.230469 193.015625 C 153.230469 193.015625 153.230469 193.019531 153.226562 193.019531 C 153.226562 193.019531 153.226562 193.015625 153.222656 193.015625 L 41.5 193.015625 C 40.355469 193.015625 39.429688 192.089844 39.429688 190.945312 L 39.429688 72.011719 C 39.429688 71.460938 39.648438 70.933594 40.035156 70.546875 L 63.128906 47.453125 C 63.519531 47.0625 64.046875 46.84375 64.59375 46.84375 L 153.664062 46.84375 C 154.804688 46.84375 155.734375 47.773438 155.734375 48.917969 L 155.734375 117.910156 L 162.007812 117.910156 C 162.421875 117.910156 162.828125 118.035156 163.171875 118.265625 C 169.886719 122.835938 176.855469 125.78125 183.890625 127.023438 C 184.878906 127.199219 185.601562 128.058594 185.601562 129.0625 Z M 46.5 69.941406 L 62.523438 69.941406 L 62.523438 53.917969 Z M 43.570312 188.875 L 143.570312 188.875 C 139.078125 186.253906 134.804688 182.835938 131.191406 178.886719 C 128.53125 175.976562 126.347656 172.90625 124.683594 169.769531 L 56.386719 169.769531 C 55.242188 169.769531 54.316406 168.84375 54.316406 167.699219 C 54.316406 166.554688 55.242188 165.628906 56.386719 165.628906 L 122.804688 165.628906 C 121.523438 162.242188 120.855469 158.832031 120.855469 155.515625 L 120.855469 148.765625 L 56.386719 148.765625 C 55.242188 148.765625 54.316406 147.835938 54.316406 146.691406 C 54.316406 145.550781 55.242188 144.621094 56.386719 144.621094 L 120.855469 144.621094 L 120.855469 131.660156 L 56.386719 131.660156 C 55.242188 131.660156 54.316406 130.730469 54.316406 129.589844 C 54.316406 128.445312 55.242188 127.515625 56.386719 127.515625 L 121.550781 127.515625 C 121.828125 127.269531 122.175781 127.089844 122.566406 127.023438 C 129.597656 125.78125 136.570312 122.835938 143.285156 118.265625 C 143.628906 118.03125 144.035156 117.90625 144.449219 117.90625 L 151.589844 117.90625 L 151.589844 50.988281 L 66.667969 50.988281 L 66.667969 72.011719 C 66.667969 73.15625 65.738281 74.082031 64.59375 74.082031 L 43.570312 74.082031 Z M 181.460938 130.769531 C 174.617188 129.3125 167.871094 126.386719 161.375 122.050781 L 145.082031 122.050781 C 138.585938 126.386719 131.839844 129.3125 124.996094 130.769531 L 124.996094 155.515625 C 124.996094 162.261719 128.28125 169.570312 134.25 176.089844 C 139.519531 181.847656 146.570312 186.550781 153.226562 188.769531 C 159.886719 186.550781 166.9375 181.847656 172.207031 176.089844 C 178.171875 169.570312 181.460938 162.261719 181.460938 155.515625 Z M 181.460938 130.769531 " fill-opacity="1" fill-rule="nonzero"/></g></svg>