<svg xmlns="http://www.w3.org/2000/svg" xmlns:xlink="http://www.w3.org/1999/xlink" width="300" zoomAndPan="magnify" viewBox="0 0 224.87999 225" height="300" preserveAspectRatio="xMidYMid meet" version="1.0"><defs><filter x="0%" y="0%" width="100%" height="100%" id="a54b507580"><feColorMatrix values="0 0 0 0 1 0 0 0 0 1 0 0 0 0 1 0 0 0 1 0" color-interpolation-filters="sRGB"/></filter><g/><mask id="8b93324e79"><g filter="url(#a54b507580)"><rect x="-22.487999" width="269.855988" fill="#000000" y="-22.5" height="270" fill-opacity="0.6471"/></g></mask><clipPath id="da0789f8b2"><path d="M 1.007812 0.414062 L 143.875 0.414062 L 143.875 155.902344 L 1.007812 155.902344 Z M 1.007812 0.414062 " clip-rule="nonzero"/></clipPath><clipPath id="33d2ff7f24"><rect x="0" width="144" y="0" height="157"/></clipPath><clipPath id="4f32d9130c"><path d="M 58.40625 62.125 L 166.472656 62.125 L 166.472656 170.191406 L 58.40625 170.191406 Z M 58.40625 62.125 " clip-rule="nonzero"/></clipPath><clipPath id="990c665c73"><path d="M 112.441406 62.125 L 120.046875 68.128906 L 129.136719 64.769531 L 134.515625 72.828125 L 144.199219 72.445312 L 146.824219 81.773438 L 156.152344 84.398438 L 155.769531 94.082031 L 163.828125 99.460938 L 160.46875 108.550781 L 166.472656 116.160156 L 160.46875 123.765625 L 163.828125 132.855469 L 155.769531 138.234375 L 156.152344 147.917969 L 146.824219 150.542969 L 144.199219 159.871094 L 134.515625 159.488281 L 129.136719 167.546875 L 120.046875 164.1875 L 112.441406 170.191406 L 104.832031 164.1875 L 95.742188 167.546875 L 90.363281 159.488281 L 80.679688 159.871094 L 78.054688 150.542969 L 68.726562 147.917969 L 69.109375 138.234375 L 61.050781 132.855469 L 64.410156 123.765625 L 58.40625 116.160156 L 64.410156 108.550781 L 61.050781 99.460938 L 69.109375 94.082031 L 68.726562 84.398438 L 78.054688 81.773438 L 80.679688 72.445312 L 90.363281 72.828125 L 95.742188 64.769531 L 104.832031 68.128906 L 112.441406 62.125 " clip-rule="nonzero"/></clipPath></defs><g mask="url(#8b93324e79)"><g transform="matrix(1, 0, 0, 1, 40, 38)"><g clip-path="url(#33d2ff7f24)"><g clip-path="url(#da0789f8b2)"><path fill="#000000" d="M 1.007812 0.414062 L 143.875 0.414062 L 143.875 155.902344 L 1.007812 155.902344 Z M 1.007812 0.414062 " fill-opacity="1" fill-rule="nonzero"/></g></g></g></g><g clip-path="url(#4f32d9130c)"><g clip-path="url(#990c665c73)"><path fill="#ffffff" d="M 58.40625 62.125 L 166.472656 62.125 L 166.472656 170.191406 L 58.40625 170.191406 Z M 58.40625 62.125 " fill-opacity="1" fill-rule="nonzero"/></g></g><g fill="#000000" fill-opacity="1"><g transform="translate(66.504689, 123.440235)"><g><path d="M 16.515625 -20.453125 L 16.515625 -16.453125 L 11.09375 -16.453125 L 11.09375 0 L 6.109375 0 L 6.109375 -16.453125 L 0.703125 -16.453125 L 0.703125 -20.453125 Z M 16.515625 -20.453125 "/></g></g></g><g fill="#000000" fill-opacity="1"><g transform="translate(83.71873, 123.440235)"><g><path d="M 12.234375 0 L 7.984375 -7.71875 L 6.78125 -7.71875 L 6.78125 0 L 1.8125 0 L 1.8125 -20.453125 L 10.171875 -20.453125 C 11.773438 -20.453125 13.144531 -20.164062 14.28125 -19.59375 C 15.414062 -19.03125 16.265625 -18.257812 16.828125 -17.28125 C 17.390625 -16.300781 17.671875 -15.210938 17.671875 -14.015625 C 17.671875 -12.648438 17.285156 -11.429688 16.515625 -10.359375 C 15.753906 -9.296875 14.628906 -8.539062 13.140625 -8.09375 L 17.859375 0 Z M 6.78125 -11.25 L 9.875 -11.25 C 10.789062 -11.25 11.472656 -11.46875 11.921875 -11.90625 C 12.378906 -12.351562 12.609375 -12.988281 12.609375 -13.8125 C 12.609375 -14.582031 12.378906 -15.191406 11.921875 -15.640625 C 11.472656 -16.085938 10.789062 -16.3125 9.875 -16.3125 L 6.78125 -16.3125 Z M 6.78125 -11.25 "/></g></g></g><g fill="#000000" fill-opacity="1"><g transform="translate(102.70949, 123.440235)"><g><path d="M 6.703125 -20.453125 L 6.703125 -8.21875 C 6.703125 -6.988281 7 -6.039062 7.59375 -5.375 C 8.195312 -4.71875 9.082031 -4.390625 10.25 -4.390625 C 11.414062 -4.390625 12.304688 -4.71875 12.921875 -5.375 C 13.546875 -6.039062 13.859375 -6.988281 13.859375 -8.21875 L 13.859375 -20.453125 L 18.84375 -20.453125 L 18.84375 -8.25 C 18.84375 -6.414062 18.453125 -4.867188 17.671875 -3.609375 C 16.898438 -2.347656 15.859375 -1.394531 14.546875 -0.75 C 13.234375 -0.113281 11.773438 0.203125 10.171875 0.203125 C 8.554688 0.203125 7.113281 -0.109375 5.84375 -0.734375 C 4.570312 -1.367188 3.566406 -2.320312 2.828125 -3.59375 C 2.085938 -4.863281 1.71875 -6.414062 1.71875 -8.25 L 1.71875 -20.453125 Z M 6.703125 -20.453125 "/></g></g></g><g fill="#000000" fill-opacity="1"><g transform="translate(123.24397, 123.440235)"><g><path d="M 9.203125 0.203125 C 7.703125 0.203125 6.359375 -0.0351562 5.171875 -0.515625 C 3.992188 -1.003906 3.050781 -1.722656 2.34375 -2.671875 C 1.632812 -3.628906 1.257812 -4.773438 1.21875 -6.109375 L 6.53125 -6.109375 C 6.601562 -5.359375 6.863281 -4.78125 7.3125 -4.375 C 7.757812 -3.976562 8.34375 -3.78125 9.0625 -3.78125 C 9.800781 -3.78125 10.382812 -3.953125 10.8125 -4.296875 C 11.238281 -4.640625 11.453125 -5.109375 11.453125 -5.703125 C 11.453125 -6.210938 11.28125 -6.628906 10.9375 -6.953125 C 10.59375 -7.285156 10.171875 -7.554688 9.671875 -7.765625 C 9.179688 -7.984375 8.484375 -8.226562 7.578125 -8.5 C 6.253906 -8.90625 5.175781 -9.3125 4.34375 -9.71875 C 3.507812 -10.132812 2.789062 -10.738281 2.1875 -11.53125 C 1.582031 -12.332031 1.28125 -13.375 1.28125 -14.65625 C 1.28125 -16.550781 1.96875 -18.035156 3.34375 -19.109375 C 4.726562 -20.191406 6.523438 -20.734375 8.734375 -20.734375 C 10.984375 -20.734375 12.796875 -20.191406 14.171875 -19.109375 C 15.554688 -18.035156 16.296875 -16.539062 16.390625 -14.625 L 11.015625 -14.625 C 10.972656 -15.28125 10.726562 -15.796875 10.28125 -16.171875 C 9.832031 -16.554688 9.257812 -16.75 8.5625 -16.75 C 7.957031 -16.75 7.46875 -16.585938 7.09375 -16.265625 C 6.726562 -15.941406 6.546875 -15.484375 6.546875 -14.890625 C 6.546875 -14.222656 6.859375 -13.703125 7.484375 -13.328125 C 8.109375 -12.960938 9.078125 -12.566406 10.390625 -12.140625 C 11.710938 -11.691406 12.785156 -11.265625 13.609375 -10.859375 C 14.441406 -10.453125 15.15625 -9.859375 15.75 -9.078125 C 16.351562 -8.304688 16.65625 -7.3125 16.65625 -6.09375 C 16.65625 -4.925781 16.359375 -3.863281 15.765625 -2.90625 C 15.179688 -1.957031 14.320312 -1.203125 13.1875 -0.640625 C 12.0625 -0.078125 10.734375 0.203125 9.203125 0.203125 Z M 9.203125 0.203125 "/></g></g></g><g fill="#000000" fill-opacity="1"><g transform="translate(141.15704, 123.440235)"><g><path d="M 16.515625 -20.453125 L 16.515625 -16.453125 L 11.09375 -16.453125 L 11.09375 0 L 6.109375 0 L 6.109375 -16.453125 L 0.703125 -16.453125 L 0.703125 -20.453125 Z M 16.515625 -20.453125 "/></g></g></g></svg>