<svg xmlns="http://www.w3.org/2000/svg" xmlns:xlink="http://www.w3.org/1999/xlink" width="300" zoomAndPan="magnify" viewBox="0 0 224.87999 225" height="300" preserveAspectRatio="xMidYMid meet" version="1.0"><defs><clipPath id="aed83ebb84"><path d="M 59 14.660156 L 168 14.660156 L 168 118 L 59 118 Z M 59 14.660156 " clip-rule="nonzero"/></clipPath><clipPath id="483615a70f"><path d="M 90.238281 191.601562 L 114 191.601562 L 114 210.308594 L 90.238281 210.308594 Z M 90.238281 191.601562 " clip-rule="nonzero"/></clipPath><clipPath id="4fc4e7703b"><path d="M 17.167969 108 L 61 108 L 61 168 L 17.167969 168 Z M 17.167969 108 " clip-rule="nonzero"/></clipPath><clipPath id="73bc26eda0"><path d="M 172 110 L 207.566406 110 L 207.566406 171 L 172 171 Z M 172 110 " clip-rule="nonzero"/></clipPath></defs><path fill="#136035" d="M 109.019531 102.511719 C 108.429688 102.511719 107.871094 102.257812 107.488281 101.8125 L 90.125 81.6875 C 89.394531 80.839844 89.492188 79.5625 90.335938 78.832031 C 91.183594 78.101562 92.460938 78.191406 93.191406 79.039062 L 108.929688 97.285156 L 136.703125 61.269531 C 137.386719 60.382812 138.65625 60.21875 139.539062 60.902344 C 140.425781 61.585938 140.589844 62.859375 139.90625 63.742188 L 110.621094 101.726562 C 110.25 102.207031 109.683594 102.496094 109.074219 102.511719 C 109.054688 102.511719 109.039062 102.511719 109.019531 102.511719 " fill-opacity="1" fill-rule="nonzero"/><g clip-path="url(#aed83ebb84)"><path fill="#136035" d="M 69.84375 117.902344 C 69.203125 117.902344 68.566406 117.59375 68.175781 117.023438 C 62.21875 108.375 59.070312 98.253906 59.070312 87.753906 L 59.070312 29.539062 C 59.070312 28.605469 59.707031 27.792969 60.613281 27.570312 L 112.664062 14.753906 C 112.980469 14.675781 113.3125 14.675781 113.628906 14.753906 L 165.679688 27.570312 C 166.585938 27.792969 167.21875 28.605469 167.21875 29.539062 L 167.21875 87.753906 C 167.21875 98.1875 164.109375 108.257812 158.222656 116.871094 C 157.589844 117.792969 156.332031 118.03125 155.40625 117.402344 C 154.484375 116.769531 154.25 115.507812 154.878906 114.585938 C 160.304688 106.648438 163.171875 97.367188 163.171875 87.753906 L 163.171875 31.125 L 113.148438 18.808594 L 63.121094 31.125 L 63.121094 87.753906 C 63.121094 97.429688 66.019531 106.757812 71.507812 114.726562 C 72.144531 115.644531 71.910156 116.90625 70.992188 117.542969 C 70.640625 117.785156 70.242188 117.902344 69.84375 117.902344 " fill-opacity="1" fill-rule="nonzero"/></g><path fill="#136035" d="M 143.035156 118.550781 C 142.5 118.550781 141.964844 118.339844 141.566406 117.921875 C 140.796875 117.113281 140.828125 115.832031 141.640625 115.058594 C 149.078125 107.980469 153.339844 98.027344 153.339844 87.753906 L 153.339844 38.835938 L 113.148438 28.9375 L 72.949219 38.835938 L 72.949219 51.039062 C 72.949219 52.15625 72.046875 53.066406 70.929688 53.066406 C 69.8125 53.066406 68.902344 52.15625 68.902344 51.039062 L 68.902344 37.25 C 68.902344 36.316406 69.539062 35.503906 70.445312 35.28125 L 112.664062 24.886719 C 112.980469 24.804688 113.3125 24.804688 113.628906 24.886719 L 155.847656 35.28125 C 156.753906 35.503906 157.386719 36.316406 157.386719 37.25 L 157.386719 87.753906 C 157.386719 99.132812 152.664062 110.15625 144.429688 117.992188 C 144.039062 118.367188 143.535156 118.550781 143.035156 118.550781 " fill-opacity="1" fill-rule="nonzero"/><path fill="#136035" d="M 80.871094 116.070312 C 80.308594 116.070312 79.75 115.835938 79.351562 115.386719 C 72.613281 107.753906 68.902344 97.941406 68.902344 87.753906 L 68.902344 64.058594 C 68.902344 62.941406 69.8125 62.035156 70.929688 62.035156 C 72.046875 62.035156 72.949219 62.941406 72.949219 64.058594 L 72.949219 87.753906 C 72.949219 96.953125 76.300781 105.8125 82.386719 112.703125 C 83.125 113.542969 83.046875 114.820312 82.207031 115.5625 C 81.824219 115.902344 81.347656 116.070312 80.871094 116.070312 " fill-opacity="1" fill-rule="nonzero"/><path fill="#136035" d="M 162.445312 171.222656 C 160.207031 171.222656 157.757812 170.691406 155.207031 169.195312 C 153.707031 168.3125 151.105469 166.691406 147.816406 164.636719 C 138.804688 159.011719 117.707031 145.839844 114.3125 145.777344 C 112.871094 145.777344 112.003906 146.324219 110.339844 147.464844 C 108.097656 149 105.03125 151.101562 98.75 151.703125 C 91.222656 152.425781 85.132812 147.9375 84.371094 143.457031 C 83.914062 140.769531 85.4375 138.585938 88.25 137.890625 C 93.515625 136.59375 97.617188 131.464844 102.8125 124.96875 C 107.761719 118.777344 112.652344 119.515625 123.367188 121.125 C 126.546875 121.601562 130.148438 122.140625 134.585938 122.664062 C 152.675781 124.792969 172.648438 119.628906 174.867188 119.03125 C 175.949219 118.742188 177.058594 119.382812 177.347656 120.460938 C 177.636719 121.542969 176.996094 122.652344 175.917969 122.945312 C 172.175781 123.949219 152.5625 128.859375 134.113281 126.6875 C 129.613281 126.160156 125.816406 125.585938 122.769531 125.128906 C 111.789062 123.480469 109.347656 123.277344 105.972656 127.5 C 100.296875 134.597656 95.816406 140.199219 89.21875 141.824219 C 88.242188 142.066406 88.304688 142.425781 88.363281 142.777344 C 88.703125 144.789062 92.441406 148.238281 98.363281 147.671875 C 103.605469 147.167969 105.96875 145.550781 108.050781 144.121094 C 109.769531 142.941406 111.550781 141.726562 114.3125 141.726562 C 118.050781 141.726562 129.726562 148.570312 149.957031 161.199219 C 153.222656 163.238281 155.800781 164.847656 157.257812 165.699219 C 162.1875 168.597656 166.644531 166.523438 169.59375 165.152344 C 170.089844 164.921875 170.535156 164.714844 170.929688 164.554688 C 173.886719 163.339844 179.015625 163.167969 183.15625 163.160156 L 183.160156 163.160156 C 184.277344 163.160156 185.183594 164.066406 185.183594 165.179688 C 185.1875 166.300781 184.28125 167.210938 183.164062 167.210938 C 181.164062 167.214844 175.070312 167.230469 172.464844 168.300781 C 172.121094 168.441406 171.730469 168.621094 171.300781 168.824219 C 169.269531 169.769531 166.144531 171.222656 162.445312 171.222656 " fill-opacity="1" fill-rule="nonzero"/><path fill="#136035" d="M 160.238281 184.824219 C 158.453125 184.824219 156.382812 184.472656 153.988281 183.613281 C 139.054688 178.230469 131.078125 173.265625 130.742188 173.058594 C 129.796875 172.460938 129.511719 171.210938 130.105469 170.265625 C 130.699219 169.316406 131.949219 169.03125 132.898438 169.625 C 132.972656 169.675781 140.878906 174.582031 155.363281 179.800781 C 160.410156 181.617188 164.132812 180.835938 166.128906 177.535156 C 168.113281 174.261719 167.527344 170.265625 166.886719 169.675781 C 165.964844 169.039062 165.75 167.78125 166.390625 166.863281 C 167.03125 165.945312 168.300781 165.730469 169.21875 166.367188 C 171.960938 168.28125 172.339844 174.378906 170 178.90625 C 168.945312 180.949219 166.15625 184.824219 160.238281 184.824219 " fill-opacity="1" fill-rule="nonzero"/><path fill="#136035" d="M 146.988281 194.089844 C 139.128906 194.089844 122.15625 184.226562 120.191406 183.074219 C 119.230469 182.503906 118.90625 181.265625 119.476562 180.300781 C 120.042969 179.335938 121.28125 179.015625 122.246094 179.582031 C 127.417969 182.628906 142.015625 190.449219 147.320312 190.027344 C 149.25 189.875 150.546875 189.265625 151.292969 188.167969 C 152.609375 186.222656 152.015625 182.929688 151.703125 181.929688 C 151.375 180.859375 151.96875 179.726562 153.035156 179.394531 C 154.105469 179.0625 155.238281 179.65625 155.570312 180.726562 C 155.644531 180.957031 157.316406 186.488281 154.644531 190.4375 C 153.1875 192.59375 150.828125 193.8125 147.636719 194.066406 C 147.429688 194.082031 147.214844 194.089844 146.988281 194.089844 " fill-opacity="1" fill-rule="nonzero"/><path fill="#136035" d="M 132.160156 201.289062 C 124.03125 201.289062 110.644531 192.382812 109.070312 191.3125 C 108.144531 190.6875 107.902344 189.425781 108.527344 188.5 C 109.15625 187.574219 110.414062 187.332031 111.339844 187.960938 C 115.503906 190.78125 127.492188 197.941406 132.90625 197.191406 C 138.519531 196.414062 138.769531 190.917969 138.777344 190.6875 C 138.816406 189.566406 139.746094 188.6875 140.871094 188.730469 C 141.988281 188.769531 142.863281 189.707031 142.824219 190.824219 C 142.71875 193.980469 140.621094 200.210938 133.460938 201.207031 C 133.042969 201.265625 132.609375 201.289062 132.160156 201.289062 " fill-opacity="1" fill-rule="nonzero"/><path fill="#136035" d="M 115.210938 205.523438 C 113.507812 205.523438 111.675781 205.265625 109.726562 204.660156 C 108.660156 204.332031 108.058594 203.195312 108.390625 202.128906 C 108.722656 201.058594 109.855469 200.460938 110.921875 200.792969 C 119.8125 203.546875 124.585938 197.199219 124.785156 196.929688 C 125.441406 196.027344 126.707031 195.824219 127.609375 196.480469 C 128.511719 197.132812 128.71875 198.386719 128.070312 199.292969 C 126.296875 201.773438 121.710938 205.523438 115.210938 205.523438 " fill-opacity="1" fill-rule="nonzero"/><path fill="#136035" d="M 70.238281 126.570312 C 66.054688 126.570312 61.675781 125.84375 57.136719 123.988281 C 56.101562 123.5625 55.605469 122.382812 56.027344 121.347656 C 56.453125 120.3125 57.636719 119.8125 58.667969 120.238281 C 70.960938 125.269531 81.972656 120.976562 91.683594 117.1875 C 96.394531 115.351562 100.84375 113.613281 104.957031 113.171875 C 117.039062 111.878906 123.019531 121.433594 123.269531 121.84375 C 123.855469 122.796875 123.554688 124.042969 122.597656 124.625 C 121.648438 125.207031 120.40625 124.910156 119.820312 123.960938 C 119.621094 123.640625 114.863281 116.1875 105.386719 117.199219 C 101.808594 117.585938 97.605469 119.226562 93.15625 120.960938 C 86.507812 123.550781 78.773438 126.570312 70.238281 126.570312 " fill-opacity="1" fill-rule="nonzero"/><path fill="#136035" d="M 64.324219 174.726562 C 63.746094 174.726562 63.171875 174.484375 62.769531 174.003906 C 59.03125 169.539062 51.125 165.980469 47.046875 164.582031 C 45.988281 164.222656 45.421875 163.070312 45.785156 162.011719 C 46.144531 160.953125 47.296875 160.390625 48.355469 160.75 C 49.589844 161.175781 60.570312 165.0625 65.875 171.402344 C 66.589844 172.261719 66.480469 173.539062 65.621094 174.257812 C 65.242188 174.574219 64.78125 174.726562 64.324219 174.726562 " fill-opacity="1" fill-rule="nonzero"/><path fill="#136035" d="M 64.183594 189.597656 C 63.0625 189.597656 61.96875 189.433594 60.925781 189.066406 C 51.441406 185.710938 55.769531 169.019531 56.292969 167.125 C 56.589844 166.046875 57.707031 165.417969 58.785156 165.714844 C 59.859375 166.011719 60.492188 167.128906 60.195312 168.207031 C 59.128906 172.058594 57.230469 183.460938 62.273438 185.246094 C 66.820312 186.855469 74.527344 182.019531 79.945312 177.234375 C 79.613281 176.386719 78.902344 175.214844 77.40625 174.386719 C 74.730469 172.910156 70.40625 172.996094 64.902344 174.644531 C 63.832031 174.964844 62.703125 174.355469 62.382812 173.285156 C 62.0625 172.210938 62.671875 171.082031 63.742188 170.761719 C 70.40625 168.769531 75.660156 168.796875 79.363281 170.839844 C 82.484375 172.566406 83.621094 175.226562 84.019531 176.660156 C 84.34375 177.824219 83.988281 179.046875 83.089844 179.859375 C 80.320312 182.359375 71.644531 189.597656 64.183594 189.597656 " fill-opacity="1" fill-rule="nonzero"/><path fill="#136035" d="M 75.957031 197.335938 C 68.917969 197.335938 65.351562 191.378906 64.40625 187.902344 C 64.113281 186.824219 64.75 185.710938 65.832031 185.414062 C 66.910156 185.125 68.015625 185.757812 68.3125 186.832031 C 68.527344 187.605469 70.628906 194.339844 77.59375 193.140625 C 83.242188 192.167969 87.820312 188.277344 88.980469 185.082031 C 89.363281 184.019531 89.320312 183.199219 88.84375 182.636719 C 87.277344 180.792969 83.023438 180.449219 81.664062 180.480469 C 80.527344 180.519531 79.621094 179.617188 79.597656 178.496094 C 79.574219 177.378906 80.460938 176.457031 81.578125 176.433594 C 82.320312 176.417969 88.855469 176.390625 91.929688 180.015625 C 93.375 181.71875 93.675781 184.007812 92.785156 186.464844 C 90.980469 191.433594 84.746094 196.019531 78.28125 197.132812 C 77.46875 197.273438 76.695312 197.335938 75.957031 197.335938 " fill-opacity="1" fill-rule="nonzero"/><path fill="#136035" d="M 86.464844 204.886719 C 79.792969 204.886719 76.683594 198.851562 75.960938 195.570312 C 75.71875 194.476562 76.410156 193.398438 77.503906 193.15625 C 78.589844 192.917969 79.671875 193.605469 79.914062 194.691406 C 79.972656 194.957031 81.4375 201.097656 86.832031 200.824219 C 91.597656 200.585938 98.425781 196.640625 100.117188 193.152344 C 100.714844 191.921875 100.429688 191.253906 100.113281 190.804688 C 98.226562 188.140625 92.585938 188.527344 90.757812 188.875 C 89.660156 189.082031 88.601562 188.359375 88.394531 187.257812 C 88.1875 186.164062 88.90625 185.101562 90.007812 184.894531 C 90.398438 184.820312 99.644531 183.132812 103.417969 188.464844 C 104.746094 190.34375 104.867188 192.636719 103.761719 194.921875 C 101.207031 200.179688 92.675781 204.585938 87.035156 204.871094 C 86.84375 204.882812 86.652344 204.886719 86.464844 204.886719 " fill-opacity="1" fill-rule="nonzero"/><g clip-path="url(#483615a70f)"><path fill="#136035" d="M 99.300781 210.332031 C 98.96875 210.332031 98.636719 210.320312 98.296875 210.292969 C 95.671875 210.082031 93.640625 209.117188 92.261719 207.417969 C 90.15625 204.816406 90.496094 201.578125 90.546875 201.214844 C 90.6875 200.105469 91.703125 199.324219 92.808594 199.464844 C 93.914062 199.605469 94.695312 200.613281 94.5625 201.714844 C 94.554688 201.785156 94.378906 203.621094 95.421875 204.886719 C 96.078125 205.675781 97.152344 206.136719 98.621094 206.253906 C 102.191406 206.539062 105.914062 204.472656 108.015625 202.300781 C 109.476562 200.789062 109.914062 199.53125 109.84375 198.917969 C 109.800781 198.546875 109.652344 197.980469 108.863281 197.382812 C 107.195312 196.121094 103.910156 195.714844 102.292969 195.976562 C 101.1875 196.15625 100.148438 195.410156 99.96875 194.304688 C 99.789062 193.203125 100.535156 192.160156 101.640625 191.980469 C 103.960938 191.597656 108.492188 192.023438 111.304688 194.152344 C 112.785156 195.273438 113.671875 196.761719 113.867188 198.457031 C 114.101562 200.542969 113.058594 202.90625 110.925781 205.117188 C 108.53125 207.59375 104.136719 210.332031 99.300781 210.332031 " fill-opacity="1" fill-rule="nonzero"/></g><g clip-path="url(#4fc4e7703b)"><path fill="#136035" d="M 46.644531 167.089844 C 46.480469 167.089844 46.308594 167.074219 46.140625 167.039062 L 18.992188 161.644531 C 17.898438 161.425781 17.183594 160.359375 17.402344 159.261719 C 17.621094 158.164062 18.6875 157.453125 19.78125 157.671875 L 45.578125 162.800781 L 56.445312 119.613281 L 33.953125 112.539062 C 32.886719 112.207031 32.292969 111.066406 32.628906 110 C 32.964844 108.933594 34.101562 108.339844 35.167969 108.675781 L 58.960938 116.15625 C 60.273438 116.570312 61.042969 117.941406 60.707031 119.277344 L 49.167969 165.121094 C 48.871094 166.300781 47.820312 167.089844 46.644531 167.089844 " fill-opacity="1" fill-rule="nonzero"/></g><g clip-path="url(#73bc26eda0)"><path fill="#136035" d="M 184.140625 170.007812 C 182.894531 170.007812 181.792969 169.101562 181.574219 167.855469 L 172.90625 118.542969 C 172.671875 117.199219 173.484375 115.925781 174.800781 115.574219 L 192.667969 110.789062 C 193.746094 110.5 194.855469 111.144531 195.148438 112.222656 C 195.4375 113.304688 194.792969 114.414062 193.714844 114.703125 L 177.125 119.148438 L 185.332031 165.847656 L 205.265625 164.035156 C 206.382812 163.9375 207.359375 164.757812 207.460938 165.871094 C 207.5625 166.984375 206.742188 167.972656 205.628906 168.070312 L 184.371094 170 C 184.296875 170.007812 184.21875 170.007812 184.140625 170.007812 " fill-opacity="1" fill-rule="nonzero"/></g><path fill="#136035" d="M 138.300781 158.386719 C 137.378906 158.386719 136.546875 157.75 136.332031 156.8125 C 136.082031 155.722656 136.761719 154.636719 137.851562 154.386719 C 137.925781 154.371094 145.214844 152.671875 149.53125 149.746094 C 150.460938 149.121094 151.71875 149.359375 152.34375 150.285156 C 152.972656 151.214844 152.730469 152.472656 151.804688 153.101562 C 146.851562 156.457031 139.082031 158.257812 138.757812 158.335938 C 138.605469 158.371094 138.453125 158.386719 138.300781 158.386719 " fill-opacity="1" fill-rule="nonzero"/></svg>