<svg xmlns="http://www.w3.org/2000/svg" xmlns:xlink="http://www.w3.org/1999/xlink" width="300" zoomAndPan="magnify" viewBox="0 0 224.87999 225" height="300" preserveAspectRatio="xMidYMid meet" version="1.0"><defs><clipPath id="679b5c1d03"><path d="M 9.40625 9.464844 L 214 9.464844 L 214 215.605469 L 9.40625 215.605469 Z M 9.40625 9.464844 " clip-rule="nonzero"/></clipPath></defs><g clip-path="url(#679b5c1d03)"><path fill="#136035" d="M 131.691406 9.464844 C 130.757812 9.464844 129.808594 9.824219 129.089844 10.542969 L 99.382812 40.25 C 97.945312 41.6875 97.945312 44.019531 99.382812 45.457031 L 129.089844 75.164062 C 129.808594 75.882812 130.742188 76.242188 131.691406 76.242188 C 132.640625 76.242188 133.574219 75.882812 134.292969 75.164062 C 135.730469 73.726562 135.730469 71.410156 134.292969 69.972656 L 110.613281 46.277344 L 160.882812 46.277344 C 175.085938 46.277344 186.648438 57.835938 186.648438 72.042969 L 186.648438 116.214844 C 186.648438 118.257812 188.289062 119.898438 190.328125 119.898438 C 192.371094 119.898438 194.011719 118.257812 194.011719 116.214844 L 194.011719 72.042969 C 194.011719 53.765625 179.15625 38.914062 160.882812 38.914062 L 111.128906 38.914062 L 134.292969 15.75 C 135.730469 14.3125 135.730469 11.980469 134.292969 10.542969 C 133.574219 9.824219 132.625 9.464844 131.691406 9.464844 Z M 47.574219 24.1875 C 39.507812 24.1875 32.34375 26.777344 27.960938 31.292969 L 27.542969 31.722656 C 22.28125 37.117188 9.957031 49.710938 9.957031 74.472656 C 9.957031 95.738281 22.582031 116.300781 30.117188 126.667969 L 30.40625 127.042969 C 30.5625 127.273438 30.863281 127.71875 31.308594 128.367188 C 55.207031 163.222656 84.757812 189.246094 114.523438 201.644531 C 140.9375 212.65625 154.898438 215.589844 164.460938 215.589844 C 168.503906 215.589844 171.75 215.058594 174.828125 214.398438 C 188.546875 211.433594 205.570312 201.328125 210.101562 188.472656 C 213.769531 178.019531 214.902344 166.269531 212.644531 162.285156 C 211.152344 159.640625 208.390625 158.320312 204.578125 156.464844 C 203.730469 156.0625 202.824219 155.613281 201.832031 155.113281 C 201.558594 154.980469 173.664062 140.992188 168.429688 139.164062 C 161.960938 136.691406 156.195312 138.460938 152.238281 144.097656 L 150.152344 147.046875 C 146.242188 152.550781 142.5625 157.757812 139.585938 161.007812 C 137.660156 163.0625 134.378906 162.976562 131.992188 161.984375 L 130.453125 161.351562 C 124.027344 158.734375 110.640625 153.300781 94.105469 138.488281 C 81.363281 127.058594 72.234375 113.039062 67.933594 105.734375 C 66.511719 103.261719 67.101562 102.367188 69.558594 99.480469 C 70.894531 97.824219 72.191406 96.445312 73.484375 95.0625 C 74.546875 93.929688 75.613281 92.792969 76.691406 91.527344 L 77.179688 90.964844 C 79.367188 88.433594 80.933594 86.59375 82.542969 83.144531 C 85.261719 77.867188 82.730469 72.589844 81.910156 70.851562 C 81.089844 69.136719 75.367188 55.148438 71.183594 44.953125 L 67.070312 34.902344 C 63.144531 25.46875 59.234375 24.636719 53.339844 24.390625 C 51.613281 24.289062 49.703125 24.1875 47.574219 24.1875 Z M 48.882812 31.582031 C 50.332031 31.609375 51.714844 31.667969 52.980469 31.738281 C 57.019531 31.910156 57.867188 31.941406 60.269531 37.71875 L 64.367188 47.726562 C 70.019531 61.546875 74.417969 72.246094 75.253906 74.011719 C 76.503906 76.628906 76.734375 78.355469 75.929688 79.910156 C 74.691406 82.570312 73.65625 83.761719 71.585938 86.164062 L 71.429688 86.351562 Z M 41.347656 32.257812 C 41.390625 32.484375 41.390625 32.730469 41.476562 32.945312 L 65.949219 92.359375 C 65.246094 93.152344 64.511719 93.984375 63.777344 94.921875 C 61.421875 97.695312 57.480469 102.339844 61.5625 109.429688 C 66.09375 117.136719 75.714844 131.875 89.199219 143.96875 C 106.699219 159.625 121.394531 165.609375 127.679688 168.152344 L 129.144531 168.773438 C 134.941406 171.1875 141.152344 170.109375 144.964844 165.996094 C 147.078125 163.695312 149.421875 160.632812 151.878906 157.269531 L 204.003906 183.324219 C 203.730469 184.214844 203.472656 185.105469 203.15625 186.042969 C 199.691406 195.863281 184.953125 204.675781 173.277344 207.207031 C 165.957031 208.773438 155.90625 210.933594 117.339844 194.855469 C 88.882812 182.992188 60.484375 157.902344 37.378906 124.210938 C 36.847656 123.421875 36.457031 122.886719 36.3125 122.6875 L 36.070312 122.328125 C 29.066406 112.691406 17.320312 93.667969 17.320312 74.472656 C 17.320312 52.71875 27.773438 42.003906 32.804688 36.855469 L 33.25 36.425781 C 35.121094 34.484375 37.980469 33.046875 41.347656 32.257812 Z M 47.269531 118.632812 C 46.796875 118.703125 46.320312 118.863281 45.890625 119.121094 C 44.136719 120.140625 43.546875 122.414062 44.582031 124.152344 C 45.789062 126.222656 47.960938 129.386719 50.378906 132.636719 C 51.097656 133.613281 52.203125 134.117188 53.324219 134.117188 C 54.085938 134.117188 54.863281 133.886719 55.511719 133.398438 C 57.148438 132.191406 57.496094 129.875 56.273438 128.25 C 52.921875 123.722656 51.339844 121.121094 50.921875 120.429688 C 50.160156 119.121094 48.695312 118.445312 47.269531 118.632812 Z M 63.519531 139.050781 C 62.585938 138.992188 61.621094 139.292969 60.859375 139.96875 C 59.335938 141.308594 59.191406 143.636719 60.542969 145.160156 C 64.800781 149.964844 69.140625 154.351562 73.457031 158.21875 C 83.578125 167.289062 93.757812 174.464844 103.695312 179.585938 C 104.226562 179.859375 104.800781 179.988281 105.378906 179.988281 C 106.699219 179.988281 107.996094 179.253906 108.65625 177.988281 C 109.578125 176.175781 108.855469 173.964844 107.046875 173.042969 C 97.671875 168.210938 88.023438 161.382812 78.375 152.738281 C 74.273438 149.058594 70.121094 144.875 66.050781 140.273438 C 65.375 139.511719 64.453125 139.09375 63.519531 139.050781 Z M 162.535156 145.449219 C 163.527344 145.378906 164.632812 145.578125 165.898438 146.066406 C 169.679688 147.390625 190.488281 157.640625 198.527344 161.683594 C 199.546875 162.199219 200.496094 162.660156 201.371094 163.09375 C 203.371094 164.054688 205.886719 165.261719 206.160156 165.738281 C 206.550781 166.789062 206.664062 170.65625 205.757812 175.976562 L 156.222656 151.199219 L 158.234375 148.355469 C 159.515625 146.527344 160.867188 145.59375 162.535156 145.449219 Z M 162.535156 145.449219 " fill-opacity="1" fill-rule="nonzero"/></g></svg>