<svg xmlns="http://www.w3.org/2000/svg" xmlns:xlink="http://www.w3.org/1999/xlink" width="300" zoomAndPan="magnify" viewBox="0 0 224.87999 225" height="300" preserveAspectRatio="xMidYMid meet" version="1.0"><defs><clipPath id="c454f68fac"><path d="M 17.8125 17.871094 L 206.710938 17.871094 L 206.710938 206.769531 L 17.8125 206.769531 Z M 17.8125 17.871094 " clip-rule="nonzero"/></clipPath></defs><path fill="#136035" d="M 87.074219 156.398438 C 85.339844 156.398438 83.925781 154.984375 83.925781 153.25 C 83.925781 151.515625 85.339844 150.101562 87.074219 150.101562 C 88.808594 150.101562 90.222656 151.515625 90.222656 153.25 C 90.222656 154.984375 88.808594 156.398438 87.074219 156.398438 Z M 87.074219 143.804688 C 81.867188 143.804688 77.628906 148.042969 77.628906 153.25 C 77.628906 158.457031 81.867188 162.695312 87.074219 162.695312 C 92.28125 162.695312 96.519531 158.457031 96.519531 153.25 C 96.519531 148.042969 92.28125 143.804688 87.074219 143.804688 " fill-opacity="1" fill-rule="nonzero"/><path fill="#136035" d="M 81.109375 129.472656 C 81.597656 130.445312 82.558594 131.101562 83.644531 131.199219 C 83.738281 131.207031 83.832031 131.210938 83.925781 131.210938 C 84.910156 131.210938 85.847656 130.75 86.445312 129.953125 L 95.890625 117.359375 C 96.933594 115.96875 96.652344 113.992188 95.261719 112.953125 C 93.871094 111.90625 91.898438 112.1875 90.851562 113.582031 L 84.464844 122.097656 L 83.59375 120.359375 C 82.816406 118.804688 80.925781 118.171875 79.371094 118.949219 C 77.816406 119.726562 77.183594 121.617188 77.960938 123.175781 L 81.109375 129.472656 " fill-opacity="1" fill-rule="nonzero"/><path fill="#136035" d="M 131.152344 61.949219 L 112.261719 61.949219 L 112.261719 55.652344 L 131.152344 55.652344 Z M 131.152344 93.429688 L 112.261719 93.429688 L 112.261719 87.136719 L 131.152344 87.136719 Z M 131.152344 124.914062 L 112.261719 124.914062 L 112.261719 118.617188 L 131.152344 118.617188 Z M 131.152344 156.398438 L 112.261719 156.398438 L 112.261719 150.101562 L 131.152344 150.101562 Z M 131.152344 181.585938 L 131.152344 187.882812 L 112.261719 187.882812 L 112.261719 181.585938 Z M 134.300781 49.355469 L 109.113281 49.355469 C 107.375 49.355469 105.964844 50.765625 105.964844 52.503906 L 105.964844 65.097656 C 105.964844 66.835938 107.375 68.246094 109.113281 68.246094 L 118.558594 68.246094 L 118.558594 80.839844 L 109.113281 80.839844 C 107.375 80.839844 105.964844 82.246094 105.964844 83.988281 L 105.964844 96.578125 C 105.964844 98.320312 107.375 99.726562 109.113281 99.726562 L 118.558594 99.726562 L 118.558594 112.320312 L 109.113281 112.320312 C 107.375 112.320312 105.964844 113.730469 105.964844 115.46875 L 105.964844 128.0625 C 105.964844 129.800781 107.375 131.210938 109.113281 131.210938 L 118.558594 131.210938 L 118.558594 143.804688 L 109.113281 143.804688 C 107.375 143.804688 105.964844 145.214844 105.964844 146.953125 L 105.964844 159.546875 C 105.964844 161.285156 107.375 162.695312 109.113281 162.695312 L 118.558594 162.695312 L 118.558594 175.289062 L 109.113281 175.289062 C 107.375 175.289062 105.964844 176.699219 105.964844 178.4375 L 105.964844 191.03125 C 105.964844 192.769531 107.375 194.175781 109.113281 194.175781 L 134.300781 194.175781 C 136.039062 194.175781 137.449219 192.769531 137.449219 191.03125 L 137.449219 178.4375 C 137.449219 176.699219 136.039062 175.289062 134.300781 175.289062 L 124.855469 175.289062 L 124.855469 162.695312 L 134.300781 162.695312 C 136.039062 162.695312 137.449219 161.285156 137.449219 159.546875 L 137.449219 146.953125 C 137.449219 145.214844 136.039062 143.804688 134.300781 143.804688 L 124.855469 143.804688 L 124.855469 131.210938 L 134.300781 131.210938 C 136.039062 131.210938 137.449219 129.800781 137.449219 128.0625 L 137.449219 115.46875 C 137.449219 113.730469 136.039062 112.320312 134.300781 112.320312 L 124.855469 112.320312 L 124.855469 99.726562 L 134.300781 99.726562 C 136.039062 99.726562 137.449219 98.320312 137.449219 96.578125 L 137.449219 83.988281 C 137.449219 82.246094 136.039062 80.839844 134.300781 80.839844 L 124.855469 80.839844 L 124.855469 68.246094 L 134.300781 68.246094 C 136.039062 68.246094 137.449219 66.835938 137.449219 65.097656 L 137.449219 52.503906 C 137.449219 50.765625 136.039062 49.355469 134.300781 49.355469 " fill-opacity="1" fill-rule="nonzero"/><path fill="#136035" d="M 156.335938 80.839844 L 175.226562 80.839844 C 176.964844 80.839844 178.375 79.429688 178.375 77.691406 C 178.375 75.949219 176.964844 74.542969 175.226562 74.542969 L 156.335938 74.542969 C 154.597656 74.542969 153.191406 75.949219 153.191406 77.691406 C 153.191406 79.429688 154.597656 80.839844 156.335938 80.839844 " fill-opacity="1" fill-rule="nonzero"/><path fill="#136035" d="M 175.226562 106.023438 L 156.335938 106.023438 C 154.597656 106.023438 153.191406 107.433594 153.191406 109.171875 C 153.191406 110.910156 154.597656 112.320312 156.335938 112.320312 L 175.226562 112.320312 C 176.964844 112.320312 178.375 110.910156 178.375 109.171875 C 178.375 107.433594 176.964844 106.023438 175.226562 106.023438 " fill-opacity="1" fill-rule="nonzero"/><path fill="#136035" d="M 146.894531 93.429688 L 175.226562 93.429688 C 176.964844 93.429688 178.375 92.023438 178.375 90.28125 C 178.375 88.542969 176.964844 87.136719 175.226562 87.136719 L 146.894531 87.136719 C 145.152344 87.136719 143.746094 88.542969 143.746094 90.28125 C 143.746094 92.023438 145.152344 93.429688 146.894531 93.429688 " fill-opacity="1" fill-rule="nonzero"/><path fill="#136035" d="M 178.375 121.765625 C 178.375 120.027344 176.964844 118.617188 175.226562 118.617188 L 146.894531 118.617188 C 145.152344 118.617188 143.746094 120.027344 143.746094 121.765625 C 143.746094 123.503906 145.152344 124.914062 146.894531 124.914062 L 175.226562 124.914062 C 176.964844 124.914062 178.375 123.503906 178.375 121.765625 " fill-opacity="1" fill-rule="nonzero"/><path fill="#136035" d="M 87.074219 187.882812 C 85.339844 187.882812 83.925781 186.46875 83.925781 184.734375 C 83.925781 182.996094 85.339844 181.585938 87.074219 181.585938 C 88.808594 181.585938 90.222656 182.996094 90.222656 184.734375 C 90.222656 186.46875 88.808594 187.882812 87.074219 187.882812 Z M 87.074219 175.289062 C 81.867188 175.289062 77.628906 179.523438 77.628906 184.734375 C 77.628906 189.941406 81.867188 194.175781 87.074219 194.175781 C 92.28125 194.175781 96.519531 189.941406 96.519531 184.734375 C 96.519531 179.523438 92.28125 175.289062 87.074219 175.289062 " fill-opacity="1" fill-rule="nonzero"/><g clip-path="url(#c454f68fac)"><path fill="#136035" d="M 187.820312 200.472656 L 68.183594 200.472656 L 68.183594 106.023438 L 90.222656 106.023438 C 95.429688 106.023438 99.667969 101.789062 99.667969 96.578125 L 99.667969 46.207031 C 99.667969 41 95.429688 36.761719 90.222656 36.761719 L 68.183594 36.761719 L 68.183594 24.167969 L 150.042969 24.167969 L 150.042969 58.800781 C 150.042969 60.539062 151.449219 61.949219 153.191406 61.949219 L 187.820312 61.949219 L 187.820312 139.132812 C 184.863281 138.085938 181.6875 137.507812 178.375 137.507812 L 175.226562 137.507812 L 175.226562 134.359375 C 175.226562 133.199219 174.589844 132.132812 173.5625 131.582031 C 172.539062 131.035156 171.300781 131.097656 170.332031 131.738281 L 151.441406 144.332031 C 150.566406 144.917969 150.042969 145.898438 150.042969 146.953125 C 150.042969 148.007812 150.566406 148.988281 151.441406 149.574219 L 170.332031 162.164062 C 171.296875 162.808594 172.539062 162.871094 173.5625 162.324219 C 174.589844 161.773438 175.226562 160.707031 175.226562 159.546875 L 175.226562 156.398438 L 178.375 156.398438 C 183.585938 156.398438 187.820312 160.632812 187.820312 165.84375 C 187.820312 171.050781 183.585938 175.289062 178.375 175.289062 L 153.191406 175.289062 C 151.449219 175.289062 150.042969 176.699219 150.042969 178.4375 L 150.042969 191.03125 C 150.042969 192.769531 151.449219 194.175781 153.191406 194.175781 L 178.375 194.175781 C 181.6875 194.175781 184.863281 193.601562 187.820312 192.554688 Z M 58.738281 99.726562 C 58.023438 99.726562 57.332031 99.972656 56.773438 100.417969 L 30.40625 121.511719 L 30.40625 102.875 C 30.40625 101.136719 28.996094 99.726562 27.257812 99.726562 C 25.519531 99.726562 24.109375 98.316406 24.109375 96.578125 L 24.109375 46.207031 C 24.109375 44.472656 25.519531 43.058594 27.257812 43.058594 L 90.222656 43.058594 C 91.957031 43.058594 93.371094 44.472656 93.371094 46.207031 L 93.371094 96.578125 C 93.371094 98.316406 91.957031 99.726562 90.222656 99.726562 Z M 156.335938 28.621094 L 183.367188 55.652344 L 156.335938 55.652344 Z M 200.414062 165.84375 C 200.414062 177.996094 190.527344 187.882812 178.375 187.882812 L 156.335938 187.882812 L 156.335938 181.585938 L 178.375 181.585938 C 187.054688 181.585938 194.117188 174.523438 194.117188 165.84375 C 194.117188 157.164062 187.054688 150.101562 178.375 150.101562 L 172.078125 150.101562 C 170.339844 150.101562 168.929688 151.511719 168.929688 153.25 L 168.929688 153.664062 L 158.863281 146.953125 L 168.929688 140.242188 L 168.929688 140.65625 C 168.929688 142.394531 170.339844 143.804688 172.078125 143.804688 L 178.375 143.804688 C 190.527344 143.804688 200.414062 153.691406 200.414062 165.84375 Z M 206.710938 165.84375 C 206.710938 156.039062 201.707031 147.386719 194.117188 142.296875 L 194.117188 58.800781 C 194.117188 57.964844 193.785156 57.164062 193.195312 56.574219 L 155.414062 18.792969 C 154.824219 18.203125 154.023438 17.871094 153.191406 17.871094 L 65.035156 17.871094 C 63.296875 17.871094 61.886719 19.28125 61.886719 21.019531 L 61.886719 36.761719 L 27.257812 36.761719 C 22.046875 36.761719 17.8125 41 17.8125 46.207031 L 17.8125 96.578125 C 17.8125 100.683594 20.445312 104.1875 24.109375 105.484375 L 24.109375 128.0625 C 24.109375 129.273438 24.800781 130.375 25.894531 130.902344 C 26.328125 131.109375 26.792969 131.210938 27.257812 131.210938 C 27.957031 131.210938 28.652344 130.976562 29.222656 130.519531 L 59.84375 106.023438 L 61.886719 106.023438 L 61.886719 203.621094 C 61.886719 205.359375 63.296875 206.769531 65.035156 206.769531 L 190.96875 206.769531 C 192.707031 206.769531 194.117188 205.359375 194.117188 203.621094 L 194.117188 189.390625 C 201.707031 184.300781 206.710938 175.644531 206.710938 165.84375 " fill-opacity="1" fill-rule="nonzero"/></g><path fill="#136035" d="M 39.851562 61.949219 L 52.441406 61.949219 C 54.183594 61.949219 55.589844 60.539062 55.589844 58.800781 C 55.589844 57.0625 54.183594 55.652344 52.441406 55.652344 L 39.851562 55.652344 C 38.113281 55.652344 36.703125 57.0625 36.703125 58.800781 C 36.703125 60.539062 38.113281 61.949219 39.851562 61.949219 " fill-opacity="1" fill-rule="nonzero"/><path fill="#136035" d="M 65.035156 61.949219 L 83.925781 61.949219 C 85.664062 61.949219 87.074219 60.539062 87.074219 58.800781 C 87.074219 57.0625 85.664062 55.652344 83.925781 55.652344 L 65.035156 55.652344 C 63.296875 55.652344 61.886719 57.0625 61.886719 58.800781 C 61.886719 60.539062 63.296875 61.949219 65.035156 61.949219 " fill-opacity="1" fill-rule="nonzero"/><path fill="#136035" d="M 87.074219 83.988281 C 87.074219 82.246094 85.664062 80.839844 83.925781 80.839844 L 58.738281 80.839844 C 57 80.839844 55.589844 82.246094 55.589844 83.988281 C 55.589844 85.726562 57 87.136719 58.738281 87.136719 L 83.925781 87.136719 C 85.664062 87.136719 87.074219 85.726562 87.074219 83.988281 " fill-opacity="1" fill-rule="nonzero"/><path fill="#136035" d="M 33.554688 74.542969 L 83.925781 74.542969 C 85.664062 74.542969 87.074219 73.132812 87.074219 71.394531 C 87.074219 69.65625 85.664062 68.246094 83.925781 68.246094 L 33.554688 68.246094 C 31.816406 68.246094 30.40625 69.65625 30.40625 71.394531 C 30.40625 73.132812 31.816406 74.542969 33.554688 74.542969 " fill-opacity="1" fill-rule="nonzero"/><path fill="#136035" d="M 46.148438 80.839844 L 33.554688 80.839844 C 31.816406 80.839844 30.40625 82.246094 30.40625 83.988281 C 30.40625 85.726562 31.816406 87.136719 33.554688 87.136719 L 46.148438 87.136719 C 47.886719 87.136719 49.296875 85.726562 49.296875 83.988281 C 49.296875 82.246094 47.886719 80.839844 46.148438 80.839844 " fill-opacity="1" fill-rule="nonzero"/><path fill="#136035" d="M 128.003906 39.910156 L 115.410156 39.910156 C 113.671875 39.910156 112.261719 38.5 112.261719 36.761719 C 112.261719 35.023438 113.671875 33.613281 115.410156 33.613281 L 128.003906 33.613281 C 129.742188 33.613281 131.152344 35.023438 131.152344 36.761719 C 131.152344 38.5 129.742188 39.910156 128.003906 39.910156 " fill-opacity="1" fill-rule="nonzero"/></svg>