<svg xmlns="http://www.w3.org/2000/svg" xmlns:xlink="http://www.w3.org/1999/xlink" width="300" zoomAndPan="magnify" viewBox="0 0 224.87999 225" height="300" preserveAspectRatio="xMidYMid meet" version="1.0"><defs><clipPath id="c00ac37dbb"><path d="M 14.4375 119 L 64 119 L 64 211.648438 L 14.4375 211.648438 Z M 14.4375 119 " clip-rule="nonzero"/></clipPath><clipPath id="249283e300"><path d="M 161 119 L 210.082031 119 L 210.082031 211.648438 L 161 211.648438 Z M 161 119 " clip-rule="nonzero"/></clipPath><clipPath id="85900c9970"><path d="M 69 131 L 156 131 L 156 211.648438 L 69 211.648438 Z M 69 131 " clip-rule="nonzero"/></clipPath></defs><path fill="#136035" d="M 35.835938 73.652344 C 35.835938 74.253906 35.863281 74.851562 35.921875 75.449219 C 35.980469 76.046875 36.070312 76.640625 36.1875 77.230469 C 36.304688 77.820312 36.449219 78.402344 36.625 78.976562 C 36.800781 79.550781 37 80.117188 37.230469 80.671875 C 37.460938 81.226562 37.71875 81.769531 38 82.300781 C 38.285156 82.828125 38.59375 83.34375 38.925781 83.84375 C 39.261719 84.34375 39.617188 84.824219 40 85.289062 C 40.378906 85.753906 40.78125 86.199219 41.207031 86.621094 C 41.632812 87.046875 42.078125 87.449219 42.539062 87.832031 C 43.003906 88.210938 43.488281 88.570312 43.988281 88.902344 C 44.484375 89.238281 45 89.546875 45.53125 89.828125 C 46.058594 90.113281 46.601562 90.367188 47.15625 90.597656 C 47.710938 90.828125 48.277344 91.03125 48.851562 91.207031 C 49.425781 91.378906 50.007812 91.527344 50.597656 91.644531 C 51.1875 91.761719 51.78125 91.847656 52.378906 91.90625 C 52.976562 91.964844 53.574219 91.996094 54.175781 91.996094 C 54.777344 91.996094 55.375 91.964844 55.972656 91.90625 C 56.574219 91.847656 57.164062 91.761719 57.753906 91.644531 C 58.34375 91.527344 58.925781 91.378906 59.5 91.207031 C 60.074219 91.03125 60.640625 90.828125 61.195312 90.597656 C 61.75 90.367188 62.292969 90.113281 62.824219 89.828125 C 63.351562 89.546875 63.867188 89.238281 64.367188 88.902344 C 64.867188 88.570312 65.347656 88.210938 65.8125 87.832031 C 66.277344 87.449219 66.722656 87.046875 67.144531 86.621094 C 67.570312 86.199219 67.972656 85.753906 68.355469 85.289062 C 68.734375 84.824219 69.09375 84.34375 69.425781 83.84375 C 69.761719 83.34375 70.070312 82.828125 70.351562 82.300781 C 70.636719 81.769531 70.890625 81.226562 71.121094 80.671875 C 71.351562 80.117188 71.554688 79.550781 71.730469 78.976562 C 71.902344 78.402344 72.050781 77.820312 72.167969 77.230469 C 72.285156 76.640625 72.371094 76.046875 72.429688 75.449219 C 72.488281 74.851562 72.519531 74.253906 72.519531 73.652344 C 72.519531 73.050781 72.488281 72.453125 72.429688 71.855469 C 72.371094 71.257812 72.285156 70.664062 72.167969 70.074219 C 72.050781 69.484375 71.902344 68.902344 71.730469 68.328125 C 71.554688 67.753906 71.351562 67.1875 71.121094 66.632812 C 70.890625 66.078125 70.636719 65.535156 70.351562 65.003906 C 70.070312 64.476562 69.761719 63.960938 69.425781 63.460938 C 69.09375 62.960938 68.734375 62.480469 68.355469 62.015625 C 67.972656 61.550781 67.570312 61.105469 67.144531 60.679688 C 66.722656 60.257812 66.277344 59.851562 65.8125 59.472656 C 65.347656 59.089844 64.867188 58.734375 64.367188 58.398438 C 63.867188 58.066406 63.351562 57.757812 62.824219 57.472656 C 62.292969 57.191406 61.75 56.933594 61.195312 56.703125 C 60.640625 56.476562 60.074219 56.273438 59.5 56.097656 C 58.925781 55.925781 58.34375 55.777344 57.753906 55.660156 C 57.164062 55.542969 56.574219 55.457031 55.972656 55.398438 C 55.375 55.339844 54.777344 55.308594 54.175781 55.308594 C 53.574219 55.308594 52.976562 55.339844 52.378906 55.398438 C 51.78125 55.457031 51.1875 55.542969 50.597656 55.660156 C 50.007812 55.777344 49.425781 55.925781 48.851562 56.097656 C 48.277344 56.273438 47.710938 56.476562 47.15625 56.703125 C 46.601562 56.933594 46.058594 57.191406 45.53125 57.472656 C 45 57.757812 44.484375 58.066406 43.988281 58.398438 C 43.488281 58.734375 43.003906 59.089844 42.539062 59.472656 C 42.078125 59.851562 41.632812 60.257812 41.207031 60.679688 C 40.78125 61.105469 40.378906 61.550781 40 62.015625 C 39.617188 62.480469 39.261719 62.960938 38.925781 63.460938 C 38.59375 63.960938 38.285156 64.476562 38 65.003906 C 37.71875 65.535156 37.460938 66.078125 37.230469 66.632812 C 37 67.1875 36.800781 67.753906 36.625 68.328125 C 36.449219 68.902344 36.304688 69.484375 36.1875 70.074219 C 36.070312 70.664062 35.980469 71.257812 35.921875 71.855469 C 35.863281 72.453125 35.835938 73.050781 35.835938 73.652344 Z M 66.40625 73.652344 C 66.40625 74.453125 66.328125 75.25 66.167969 76.039062 C 66.011719 76.824219 65.78125 77.589844 65.472656 78.332031 C 65.167969 79.074219 64.789062 79.777344 64.34375 80.445312 C 63.898438 81.113281 63.390625 81.730469 62.824219 82.300781 C 62.253906 82.867188 61.636719 83.375 60.96875 83.820312 C 60.300781 84.265625 59.597656 84.644531 58.855469 84.949219 C 58.113281 85.257812 57.351562 85.488281 56.5625 85.644531 C 55.773438 85.800781 54.980469 85.878906 54.175781 85.878906 C 53.375 85.878906 52.578125 85.800781 51.792969 85.644531 C 51.003906 85.488281 50.238281 85.257812 49.496094 84.949219 C 48.753906 84.644531 48.050781 84.265625 47.382812 83.820312 C 46.714844 83.375 46.097656 82.867188 45.53125 82.300781 C 44.960938 81.730469 44.457031 81.113281 44.007812 80.445312 C 43.5625 79.777344 43.1875 79.074219 42.878906 78.332031 C 42.574219 77.589844 42.339844 76.824219 42.183594 76.039062 C 42.027344 75.25 41.949219 74.453125 41.949219 73.652344 C 41.949219 72.847656 42.027344 72.054688 42.183594 71.265625 C 42.339844 70.480469 42.574219 69.714844 42.878906 68.972656 C 43.1875 68.230469 43.5625 67.527344 44.007812 66.859375 C 44.457031 66.191406 44.960938 65.574219 45.53125 65.003906 C 46.097656 64.4375 46.714844 63.929688 47.382812 63.484375 C 48.050781 63.039062 48.753906 62.660156 49.496094 62.355469 C 50.238281 62.046875 51.003906 61.816406 51.792969 61.65625 C 52.578125 61.5 53.375 61.421875 54.175781 61.421875 C 54.980469 61.421875 55.773438 61.5 56.5625 61.65625 C 57.351562 61.816406 58.113281 62.046875 58.855469 62.355469 C 59.597656 62.660156 60.300781 63.039062 60.96875 63.484375 C 61.636719 63.929688 62.253906 64.4375 62.824219 65.003906 C 63.390625 65.574219 63.898438 66.191406 64.34375 66.859375 C 64.789062 67.527344 65.167969 68.230469 65.472656 68.972656 C 65.78125 69.714844 66.011719 70.480469 66.167969 71.265625 C 66.328125 72.054688 66.40625 72.847656 66.40625 73.652344 Z M 66.40625 73.652344 " fill-opacity="1" fill-rule="nonzero"/><path fill="#136035" d="M 57.234375 153.140625 C 61.878906 153.140625 74.871094 154.546875 79.152344 160.9375 C 84.929688 169.617188 93.917969 202.515625 93.917969 202.851562 L 100.03125 201.261719 C 99.664062 199.855469 90.675781 167.019531 84.347656 157.574219 C 78.878906 149.5 66.160156 147.605469 60.289062 147.023438 L 60.289062 125.625 L 81.6875 125.625 C 82.691406 125.625 83.6875 125.527344 84.671875 125.332031 C 85.65625 125.136719 86.613281 124.84375 87.539062 124.460938 C 88.464844 124.078125 89.347656 123.605469 90.179688 123.046875 C 91.015625 122.492188 91.789062 121.855469 92.496094 121.148438 C 93.207031 120.4375 93.839844 119.664062 94.398438 118.832031 C 94.957031 117.996094 95.425781 117.117188 95.8125 116.1875 C 96.195312 115.261719 96.484375 114.304688 96.679688 113.320312 C 96.875 112.335938 96.972656 111.34375 96.972656 110.339844 C 96.972656 109.933594 96.898438 109.542969 96.742188 109.167969 C 96.585938 108.792969 96.367188 108.464844 96.078125 108.175781 C 95.792969 107.890625 95.460938 107.667969 95.085938 107.515625 C 94.710938 107.359375 94.324219 107.28125 93.917969 107.28125 L 59.984375 107.28125 C 59.808594 106.425781 59.5625 105.589844 59.246094 104.773438 C 58.925781 103.960938 58.542969 103.179688 58.089844 102.429688 C 57.636719 101.683594 57.125 100.976562 56.550781 100.316406 C 55.976562 99.65625 55.351562 99.050781 54.675781 98.496094 C 53.996094 97.945312 53.277344 97.453125 52.515625 97.023438 C 51.753906 96.59375 50.960938 96.230469 50.136719 95.9375 C 49.3125 95.644531 48.472656 95.425781 47.609375 95.277344 C 46.75 95.125 45.878906 95.050781 45.007812 95.050781 C 44.40625 95.050781 43.804688 95.082031 43.207031 95.140625 C 42.609375 95.199219 42.015625 95.289062 41.425781 95.40625 C 40.839844 95.523438 40.257812 95.667969 39.679688 95.84375 C 39.105469 96.015625 38.542969 96.21875 37.988281 96.449219 C 37.433594 96.679688 36.890625 96.933594 36.359375 97.21875 C 35.828125 97.5 35.316406 97.808594 34.816406 98.144531 C 34.316406 98.476562 33.835938 98.835938 33.371094 99.214844 C 32.90625 99.597656 32.460938 100 32.035156 100.425781 C 31.613281 100.851562 31.207031 101.292969 30.828125 101.757812 C 30.445312 102.222656 30.089844 102.707031 29.753906 103.203125 C 29.421875 103.703125 29.113281 104.21875 28.828125 104.75 C 28.546875 105.277344 28.289062 105.820312 28.058594 106.375 C 27.832031 106.929688 27.628906 107.496094 27.453125 108.070312 C 27.28125 108.644531 27.132812 109.226562 27.015625 109.816406 C 26.898438 110.40625 26.8125 111 26.753906 111.597656 C 26.695312 112.195312 26.664062 112.796875 26.664062 113.394531 L 26.664062 147.023438 C 26.664062 155.492188 31.769531 171.484375 51.121094 171.484375 L 67.414062 171.484375 L 81.933594 206.273438 L 87.558594 203.949219 L 72.273438 167.265625 C 72.039062 166.691406 71.667969 166.234375 71.15625 165.890625 C 70.644531 165.546875 70.078125 165.371094 69.460938 165.367188 L 51.121094 165.367188 C 33.421875 165.367188 32.777344 148.890625 32.777344 147.023438 L 32.777344 113.394531 C 32.777344 112.59375 32.855469 111.796875 33.011719 111.011719 C 33.167969 110.222656 33.402344 109.457031 33.707031 108.714844 C 34.015625 107.972656 34.394531 107.269531 34.839844 106.601562 C 35.285156 105.933594 35.792969 105.316406 36.359375 104.75 C 36.925781 104.179688 37.542969 103.675781 38.210938 103.226562 C 38.878906 102.78125 39.585938 102.40625 40.328125 102.097656 C 41.066406 101.789062 41.832031 101.558594 42.621094 101.402344 C 43.40625 101.246094 44.203125 101.167969 45.007812 101.167969 C 45.609375 101.167969 46.203125 101.226562 46.796875 101.34375 C 47.386719 101.460938 47.960938 101.632812 48.515625 101.863281 C 49.070312 102.09375 49.601562 102.378906 50.101562 102.710938 C 50.601562 103.046875 51.066406 103.425781 51.492188 103.851562 C 51.917969 104.277344 52.296875 104.742188 52.632812 105.242188 C 52.964844 105.742188 53.25 106.273438 53.480469 106.828125 C 53.710938 107.386719 53.882812 107.957031 54 108.550781 C 54.117188 109.140625 54.175781 109.738281 54.175781 110.339844 C 54.175781 110.742188 54.253906 111.132812 54.410156 111.507812 C 54.566406 111.882812 54.785156 112.214844 55.070312 112.5 C 55.359375 112.785156 55.6875 113.007812 56.0625 113.164062 C 56.4375 113.316406 56.828125 113.394531 57.234375 113.394531 L 90.339844 113.394531 C 90.023438 114.289062 89.582031 115.117188 89.007812 115.871094 C 88.433594 116.628906 87.761719 117.28125 86.988281 117.828125 C 86.210938 118.375 85.371094 118.792969 84.46875 119.082031 C 83.566406 119.367188 82.636719 119.511719 81.6875 119.511719 L 48.0625 119.511719 L 48.0625 125.625 L 54.175781 125.625 L 54.175781 150.082031 C 54.175781 150.488281 54.253906 150.878906 54.410156 151.253906 C 54.566406 151.628906 54.785156 151.957031 55.070312 152.246094 C 55.359375 152.53125 55.6875 152.75 56.0625 152.90625 C 56.4375 153.0625 56.828125 153.140625 57.234375 153.140625 Z M 57.234375 153.140625 " fill-opacity="1" fill-rule="nonzero"/><g clip-path="url(#c00ac37dbb)"><path fill="#136035" d="M 32.777344 183.710938 L 38.890625 183.710938 L 38.890625 211.226562 L 45.007812 211.226562 L 45.007812 183.710938 L 63.347656 183.710938 L 63.347656 177.597656 L 32.777344 177.597656 C 31.976562 177.597656 31.179688 177.519531 30.390625 177.363281 C 29.605469 177.207031 28.839844 176.972656 28.097656 176.667969 C 27.355469 176.359375 26.652344 175.984375 25.984375 175.535156 C 25.316406 175.089844 24.699219 174.582031 24.132812 174.015625 C 23.5625 173.449219 23.058594 172.832031 22.609375 172.164062 C 22.164062 171.496094 21.789062 170.789062 21.480469 170.046875 C 21.171875 169.304688 20.941406 168.542969 20.785156 167.753906 C 20.628906 166.96875 20.550781 166.171875 20.550781 165.367188 L 20.550781 119.511719 L 14.4375 119.511719 L 14.4375 165.367188 C 14.4375 165.96875 14.464844 166.570312 14.523438 167.167969 C 14.582031 167.765625 14.671875 168.359375 14.789062 168.949219 C 14.90625 169.535156 15.050781 170.117188 15.226562 170.695312 C 15.402344 171.269531 15.601562 171.832031 15.832031 172.386719 C 16.0625 172.945312 16.320312 173.484375 16.601562 174.015625 C 16.886719 174.546875 17.195312 175.058594 17.527344 175.558594 C 17.859375 176.058594 18.21875 176.542969 18.601562 177.003906 C 18.980469 177.46875 19.382812 177.914062 19.808594 178.339844 C 20.234375 178.765625 20.679688 179.167969 21.140625 179.546875 C 21.605469 179.929688 22.089844 180.285156 22.589844 180.621094 C 23.085938 180.953125 23.601562 181.261719 24.132812 181.546875 C 24.660156 181.828125 25.203125 182.085938 25.757812 182.316406 C 26.3125 182.546875 26.878906 182.746094 27.453125 182.921875 C 28.027344 183.097656 28.609375 183.242188 29.199219 183.359375 C 29.789062 183.476562 30.382812 183.566406 30.980469 183.625 C 31.578125 183.683594 32.175781 183.710938 32.777344 183.710938 Z M 32.777344 183.710938 " fill-opacity="1" fill-rule="nonzero"/></g><path fill="#136035" d="M 170.339844 55.308594 C 169.742188 55.308594 169.140625 55.339844 168.542969 55.398438 C 167.945312 55.457031 167.351562 55.542969 166.761719 55.660156 C 166.175781 55.777344 165.59375 55.925781 165.015625 56.097656 C 164.441406 56.273438 163.878906 56.476562 163.320312 56.703125 C 162.765625 56.933594 162.226562 57.191406 161.695312 57.472656 C 161.164062 57.757812 160.652344 58.066406 160.152344 58.398438 C 159.652344 58.734375 159.167969 59.089844 158.707031 59.472656 C 158.242188 59.851562 157.796875 60.257812 157.371094 60.679688 C 156.945312 61.105469 156.542969 61.550781 156.164062 62.015625 C 155.78125 62.480469 155.425781 62.960938 155.089844 63.460938 C 154.757812 63.960938 154.449219 64.476562 154.164062 65.003906 C 153.882812 65.535156 153.625 66.078125 153.394531 66.632812 C 153.164062 67.1875 152.964844 67.753906 152.789062 68.328125 C 152.613281 68.902344 152.46875 69.484375 152.351562 70.074219 C 152.234375 70.664062 152.148438 71.257812 152.089844 71.855469 C 152.027344 72.453125 152 73.050781 152 73.652344 C 152 74.253906 152.027344 74.851562 152.089844 75.449219 C 152.148438 76.046875 152.234375 76.640625 152.351562 77.230469 C 152.46875 77.820312 152.613281 78.402344 152.789062 78.976562 C 152.964844 79.550781 153.164062 80.117188 153.394531 80.671875 C 153.625 81.226562 153.882812 81.769531 154.164062 82.300781 C 154.449219 82.828125 154.757812 83.34375 155.089844 83.84375 C 155.425781 84.34375 155.78125 84.824219 156.164062 85.289062 C 156.542969 85.753906 156.945312 86.199219 157.371094 86.621094 C 157.796875 87.046875 158.242188 87.449219 158.707031 87.832031 C 159.167969 88.210938 159.652344 88.570312 160.152344 88.902344 C 160.652344 89.238281 161.164062 89.546875 161.695312 89.828125 C 162.226562 90.113281 162.765625 90.367188 163.320312 90.597656 C 163.878906 90.828125 164.441406 91.03125 165.015625 91.207031 C 165.59375 91.378906 166.175781 91.527344 166.761719 91.644531 C 167.351562 91.761719 167.945312 91.847656 168.542969 91.90625 C 169.140625 91.964844 169.742188 91.996094 170.339844 91.996094 C 170.941406 91.996094 171.542969 91.964844 172.140625 91.90625 C 172.738281 91.847656 173.332031 91.761719 173.917969 91.644531 C 174.507812 91.527344 175.089844 91.378906 175.664062 91.207031 C 176.242188 91.03125 176.804688 90.828125 177.359375 90.597656 C 177.914062 90.367188 178.457031 90.113281 178.988281 89.828125 C 179.515625 89.546875 180.03125 89.238281 180.53125 88.902344 C 181.03125 88.570312 181.511719 88.210938 181.976562 87.832031 C 182.441406 87.449219 182.886719 87.046875 183.3125 86.621094 C 183.734375 86.199219 184.136719 85.753906 184.519531 85.289062 C 184.902344 84.824219 185.257812 84.34375 185.59375 83.84375 C 185.925781 83.34375 186.234375 82.828125 186.515625 82.300781 C 186.800781 81.769531 187.058594 81.226562 187.285156 80.671875 C 187.515625 80.117188 187.71875 79.550781 187.894531 78.976562 C 188.066406 78.402344 188.214844 77.820312 188.332031 77.230469 C 188.449219 76.640625 188.535156 76.046875 188.59375 75.449219 C 188.652344 74.851562 188.683594 74.253906 188.683594 73.652344 C 188.683594 73.050781 188.652344 72.453125 188.59375 71.855469 C 188.535156 71.257812 188.449219 70.664062 188.332031 70.074219 C 188.214844 69.484375 188.066406 68.902344 187.894531 68.328125 C 187.71875 67.753906 187.515625 67.1875 187.285156 66.632812 C 187.058594 66.078125 186.800781 65.535156 186.515625 65.003906 C 186.234375 64.476562 185.925781 63.960938 185.59375 63.460938 C 185.257812 62.960938 184.902344 62.480469 184.519531 62.015625 C 184.136719 61.550781 183.734375 61.105469 183.3125 60.679688 C 182.886719 60.257812 182.441406 59.851562 181.976562 59.472656 C 181.511719 59.089844 181.03125 58.734375 180.53125 58.398438 C 180.03125 58.066406 179.515625 57.757812 178.988281 57.472656 C 178.457031 57.191406 177.914062 56.933594 177.359375 56.703125 C 176.804688 56.476562 176.242188 56.273438 175.664062 56.097656 C 175.089844 55.925781 174.507812 55.777344 173.917969 55.660156 C 173.332031 55.542969 172.738281 55.457031 172.140625 55.398438 C 171.542969 55.339844 170.941406 55.308594 170.339844 55.308594 Z M 170.339844 85.878906 C 169.539062 85.878906 168.742188 85.800781 167.957031 85.644531 C 167.167969 85.488281 166.402344 85.257812 165.660156 84.949219 C 164.921875 84.644531 164.214844 84.265625 163.546875 83.820312 C 162.878906 83.375 162.261719 82.867188 161.695312 82.300781 C 161.128906 81.730469 160.621094 81.113281 160.175781 80.445312 C 159.726562 79.777344 159.351562 79.074219 159.042969 78.332031 C 158.738281 77.589844 158.503906 76.824219 158.347656 76.039062 C 158.191406 75.25 158.113281 74.453125 158.113281 73.652344 C 158.113281 72.847656 158.191406 72.054688 158.347656 71.265625 C 158.503906 70.480469 158.738281 69.714844 159.042969 68.972656 C 159.351562 68.230469 159.726562 67.527344 160.175781 66.859375 C 160.621094 66.191406 161.128906 65.574219 161.695312 65.003906 C 162.261719 64.4375 162.878906 63.929688 163.546875 63.484375 C 164.214844 63.039062 164.921875 62.660156 165.660156 62.355469 C 166.402344 62.046875 167.167969 61.816406 167.957031 61.65625 C 168.742188 61.5 169.539062 61.421875 170.339844 61.421875 C 171.144531 61.421875 171.9375 61.5 172.726562 61.65625 C 173.515625 61.816406 174.277344 62.046875 175.019531 62.355469 C 175.761719 62.660156 176.46875 63.039062 177.136719 63.484375 C 177.800781 63.929688 178.421875 64.4375 178.988281 65.003906 C 179.554688 65.574219 180.0625 66.191406 180.507812 66.859375 C 180.953125 67.527344 181.332031 68.230469 181.636719 68.972656 C 181.945312 69.714844 182.175781 70.480469 182.335938 71.265625 C 182.492188 72.054688 182.570312 72.847656 182.570312 73.652344 C 182.570312 74.453125 182.492188 75.25 182.335938 76.039062 C 182.175781 76.824219 181.945312 77.589844 181.636719 78.332031 C 181.332031 79.074219 180.953125 79.777344 180.507812 80.445312 C 180.0625 81.113281 179.554688 81.730469 178.988281 82.300781 C 178.421875 82.867188 177.800781 83.375 177.136719 83.820312 C 176.46875 84.265625 175.761719 84.644531 175.019531 84.949219 C 174.277344 85.257812 173.515625 85.488281 172.726562 85.644531 C 171.9375 85.800781 171.144531 85.878906 170.339844 85.878906 Z M 170.339844 85.878906 " fill-opacity="1" fill-rule="nonzero"/><path fill="#136035" d="M 173.398438 165.367188 L 155.054688 165.367188 C 154.441406 165.371094 153.875 165.546875 153.363281 165.890625 C 152.851562 166.234375 152.480469 166.691406 152.246094 167.265625 L 136.960938 203.949219 L 142.585938 206.273438 L 157.105469 171.484375 L 173.398438 171.484375 C 192.75 171.484375 197.855469 155.492188 197.855469 147.023438 L 197.855469 113.394531 C 197.855469 112.796875 197.824219 112.195312 197.765625 111.597656 C 197.707031 111 197.617188 110.40625 197.5 109.816406 C 197.382812 109.226562 197.238281 108.644531 197.0625 108.070312 C 196.890625 107.496094 196.6875 106.929688 196.457031 106.375 C 196.226562 105.820312 195.972656 105.277344 195.6875 104.75 C 195.40625 104.21875 195.097656 103.703125 194.761719 103.203125 C 194.429688 102.707031 194.070312 102.222656 193.691406 101.757812 C 193.308594 101.292969 192.90625 100.851562 192.480469 100.425781 C 192.058594 100 191.613281 99.597656 191.148438 99.214844 C 190.683594 98.835938 190.203125 98.476562 189.703125 98.144531 C 189.203125 97.808594 188.6875 97.5 188.160156 97.21875 C 187.628906 96.933594 187.085938 96.679688 186.53125 96.449219 C 185.976562 96.21875 185.410156 96.015625 184.835938 95.84375 C 184.261719 95.667969 183.679688 95.523438 183.089844 95.40625 C 182.5 95.289062 181.90625 95.199219 181.308594 95.140625 C 180.710938 95.082031 180.113281 95.050781 179.511719 95.050781 C 178.636719 95.050781 177.769531 95.125 176.90625 95.277344 C 176.046875 95.425781 175.203125 95.644531 174.378906 95.9375 C 173.554688 96.230469 172.761719 96.59375 172.003906 97.023438 C 171.242188 97.453125 170.519531 97.945312 169.84375 98.496094 C 169.164062 99.050781 168.539062 99.65625 167.96875 100.316406 C 167.394531 100.976562 166.882812 101.683594 166.429688 102.429688 C 165.976562 103.179688 165.589844 103.960938 165.273438 104.773438 C 164.953125 105.589844 164.707031 106.425781 164.53125 107.28125 L 130.601562 107.28125 C 130.195312 107.28125 129.804688 107.359375 129.429688 107.515625 C 129.054688 107.667969 128.726562 107.890625 128.4375 108.175781 C 128.152344 108.464844 127.933594 108.792969 127.777344 109.167969 C 127.621094 109.542969 127.542969 109.933594 127.542969 110.339844 C 127.542969 111.34375 127.640625 112.335938 127.835938 113.320312 C 128.035156 114.304688 128.324219 115.261719 128.707031 116.1875 C 129.089844 117.117188 129.5625 117.996094 130.121094 118.832031 C 130.675781 119.664062 131.3125 120.4375 132.019531 121.148438 C 132.730469 121.855469 133.503906 122.492188 134.335938 123.046875 C 135.171875 123.605469 136.050781 124.078125 136.980469 124.460938 C 137.90625 124.84375 138.863281 125.136719 139.847656 125.332031 C 140.832031 125.527344 141.824219 125.625 142.828125 125.625 L 164.226562 125.625 L 164.226562 147.023438 C 158.359375 147.484375 145.640625 149.378906 140.292969 157.449219 C 133.964844 166.898438 125.007812 199.730469 124.609375 201.136719 L 130.480469 202.726562 C 130.480469 202.390625 139.648438 169.496094 145.367188 160.8125 C 149.613281 154.578125 162.636719 153.140625 167.285156 153.140625 C 167.691406 153.140625 168.078125 153.0625 168.453125 152.90625 C 168.828125 152.75 169.160156 152.53125 169.445312 152.246094 C 169.734375 151.957031 169.953125 151.628906 170.109375 151.253906 C 170.265625 150.878906 170.339844 150.488281 170.339844 150.082031 L 170.339844 125.625 L 176.457031 125.625 L 176.457031 119.511719 L 142.828125 119.511719 C 141.878906 119.511719 140.953125 119.367188 140.050781 119.082031 C 139.144531 118.792969 138.304688 118.375 137.53125 117.828125 C 136.757812 117.28125 136.082031 116.628906 135.511719 115.871094 C 134.9375 115.117188 134.492188 114.289062 134.175781 113.394531 L 167.285156 113.394531 C 167.691406 113.394531 168.078125 113.316406 168.453125 113.164062 C 168.828125 113.007812 169.160156 112.785156 169.445312 112.5 C 169.734375 112.214844 169.953125 111.882812 170.109375 111.507812 C 170.265625 111.132812 170.339844 110.742188 170.339844 110.339844 C 170.339844 109.738281 170.398438 109.140625 170.515625 108.550781 C 170.636719 107.957031 170.808594 107.386719 171.039062 106.828125 C 171.269531 106.273438 171.550781 105.742188 171.886719 105.242188 C 172.222656 104.742188 172.601562 104.277344 173.027344 103.851562 C 173.453125 103.425781 173.917969 103.046875 174.417969 102.710938 C 174.917969 102.378906 175.445312 102.09375 176.003906 101.863281 C 176.558594 101.632812 177.132812 101.460938 177.722656 101.34375 C 178.3125 101.226562 178.910156 101.167969 179.511719 101.167969 C 180.316406 101.167969 181.109375 101.246094 181.898438 101.402344 C 182.683594 101.558594 183.449219 101.789062 184.191406 102.097656 C 184.933594 102.40625 185.636719 102.78125 186.304688 103.226562 C 186.972656 103.675781 187.589844 104.179688 188.160156 104.75 C 188.726562 105.316406 189.234375 105.933594 189.679688 106.601562 C 190.125 107.269531 190.503906 107.972656 190.808594 108.714844 C 191.117188 109.457031 191.347656 110.222656 191.503906 111.011719 C 191.660156 111.796875 191.738281 112.59375 191.738281 113.394531 L 191.738281 147.023438 C 191.738281 148.890625 191.097656 165.367188 173.398438 165.367188 Z M 173.398438 165.367188 " fill-opacity="1" fill-rule="nonzero"/><g clip-path="url(#249283e300)"><path fill="#136035" d="M 203.96875 165.367188 C 203.96875 166.171875 203.890625 166.96875 203.734375 167.753906 C 203.578125 168.542969 203.34375 169.304688 203.039062 170.046875 C 202.730469 170.789062 202.351562 171.496094 201.90625 172.164062 C 201.460938 172.832031 200.953125 173.449219 200.386719 174.015625 C 199.820312 174.582031 199.199219 175.089844 198.535156 175.535156 C 197.867188 175.984375 197.160156 176.359375 196.417969 176.667969 C 195.675781 176.972656 194.914062 177.207031 194.125 177.363281 C 193.339844 177.519531 192.542969 177.597656 191.738281 177.597656 L 161.171875 177.597656 L 161.171875 183.710938 L 179.511719 183.710938 L 179.511719 211.226562 L 185.625 211.226562 L 185.625 183.710938 L 191.738281 183.710938 C 192.339844 183.710938 192.941406 183.683594 193.539062 183.625 C 194.136719 183.566406 194.730469 183.476562 195.320312 183.359375 C 195.90625 183.242188 196.488281 183.097656 197.0625 182.921875 C 197.640625 182.746094 198.203125 182.546875 198.757812 182.316406 C 199.3125 182.085938 199.855469 181.828125 200.386719 181.546875 C 200.917969 181.261719 201.429688 180.953125 201.929688 180.621094 C 202.429688 180.285156 202.910156 179.929688 203.375 179.546875 C 203.839844 179.167969 204.285156 178.765625 204.710938 178.339844 C 205.132812 177.914062 205.539062 177.46875 205.917969 177.003906 C 206.300781 176.542969 206.65625 176.058594 206.992188 175.558594 C 207.324219 175.058594 207.632812 174.546875 207.917969 174.015625 C 208.199219 173.484375 208.457031 172.945312 208.6875 172.386719 C 208.914062 171.832031 209.117188 171.269531 209.292969 170.695312 C 209.464844 170.117188 209.613281 169.535156 209.730469 168.949219 C 209.847656 168.359375 209.933594 167.765625 209.992188 167.167969 C 210.050781 166.570312 210.082031 165.96875 210.082031 165.367188 L 210.082031 119.511719 L 203.96875 119.511719 Z M 203.96875 165.367188 " fill-opacity="1" fill-rule="nonzero"/></g><g clip-path="url(#85900c9970)"><path fill="#136035" d="M 115.316406 211.226562 L 115.316406 137.855469 L 155.054688 137.855469 L 155.054688 131.738281 L 69.460938 131.738281 L 69.460938 137.855469 L 109.203125 137.855469 L 109.203125 211.226562 Z M 115.316406 211.226562 " fill-opacity="1" fill-rule="nonzero"/></g><path fill="#136035" d="M 124.488281 21.679688 C 121.523438 21.679688 118.640625 22.15625 115.835938 23.117188 C 114.863281 22.203125 113.832031 21.363281 112.738281 20.597656 C 111.644531 19.832031 110.5 19.152344 109.308594 18.554688 C 108.117188 17.953125 106.886719 17.445312 105.621094 17.027344 C 104.355469 16.605469 103.0625 16.28125 101.75 16.050781 C 100.433594 15.820312 99.113281 15.683594 97.777344 15.644531 C 96.445312 15.605469 95.113281 15.664062 93.789062 15.816406 C 92.464844 15.972656 91.15625 16.222656 89.867188 16.566406 C 88.578125 16.910156 87.320312 17.347656 86.097656 17.875 C 84.871094 18.402344 83.691406 19.015625 82.554688 19.714844 C 81.417969 20.414062 80.335938 21.191406 79.3125 22.046875 C 78.292969 22.90625 77.335938 23.832031 76.445312 24.828125 C 75.558594 25.824219 74.746094 26.878906 74.011719 27.992188 C 73.277344 29.105469 72.625 30.265625 72.058594 31.472656 C 71.496094 32.683594 71.019531 33.925781 70.632812 35.203125 C 70.25 36.480469 69.957031 37.777344 69.761719 39.097656 C 69.566406 40.417969 69.464844 41.746094 69.460938 43.078125 C 69.460938 44.273438 69.539062 45.464844 69.695312 46.648438 C 69.851562 47.832031 70.082031 49 70.390625 50.152344 C 70.699219 51.308594 71.078125 52.4375 71.535156 53.542969 C 71.988281 54.644531 72.511719 55.714844 73.109375 56.75 C 73.703125 57.789062 74.359375 58.78125 75.082031 59.730469 C 75.808594 60.679688 76.589844 61.582031 77.429688 62.429688 C 78.269531 63.277344 79.160156 64.066406 80.105469 64.800781 C 81.046875 65.53125 82.035156 66.199219 83.066406 66.804688 L 81.6875 76.28125 C 81.585938 76.875 81.65625 77.449219 81.894531 78.003906 C 82.132812 78.558594 82.503906 79.003906 83.003906 79.339844 C 83.539062 79.660156 84.121094 79.800781 84.746094 79.765625 C 85.292969 79.769531 85.800781 79.636719 86.273438 79.367188 L 102.628906 70.015625 C 103.664062 69.789062 104.683594 69.503906 105.6875 69.15625 C 107.511719 70.898438 109.539062 72.359375 111.765625 73.542969 C 113.992188 74.726562 116.335938 75.589844 118.800781 76.128906 L 135.15625 85.484375 C 135.640625 85.757812 136.160156 85.890625 136.714844 85.878906 C 137.339844 85.882812 137.910156 85.710938 138.425781 85.359375 C 138.929688 85.027344 139.296875 84.582031 139.535156 84.027344 C 139.773438 83.472656 139.84375 82.898438 139.742188 82.304688 L 138.394531 72.828125 C 139.675781 72.0625 140.890625 71.199219 142.03125 70.238281 C 143.171875 69.277344 144.226562 68.230469 145.199219 67.097656 C 146.167969 65.964844 147.042969 64.757812 147.816406 63.484375 C 148.589844 62.210938 149.257812 60.878906 149.816406 59.496094 C 150.375 58.113281 150.820312 56.691406 151.148438 55.238281 C 151.476562 53.78125 151.683594 52.308594 151.769531 50.820312 C 151.859375 49.328125 151.824219 47.84375 151.671875 46.359375 C 151.519531 44.875 151.246094 43.414062 150.855469 41.972656 C 150.464844 40.53125 149.957031 39.132812 149.339844 37.777344 C 148.71875 36.417969 147.996094 35.121094 147.164062 33.878906 C 146.332031 32.640625 145.410156 31.476562 144.390625 30.386719 C 143.371094 29.296875 142.269531 28.296875 141.085938 27.386719 C 139.902344 26.476562 138.65625 25.667969 137.339844 24.960938 C 136.027344 24.253906 134.664062 23.660156 133.253906 23.175781 C 131.84375 22.6875 130.402344 22.320312 128.929688 22.070312 C 127.460938 21.820312 125.980469 21.6875 124.488281 21.679688 Z M 100.980469 64.113281 C 100.644531 64.191406 100.332031 64.3125 100.03125 64.480469 L 88.691406 70.992188 L 89.453125 65.582031 C 89.484375 65.269531 89.46875 64.960938 89.40625 64.652344 C 89.339844 64.347656 89.234375 64.054688 89.078125 63.78125 C 88.925781 63.507812 88.734375 63.265625 88.507812 63.050781 C 88.28125 62.835938 88.023438 62.660156 87.742188 62.523438 C 86.984375 62.160156 86.253906 61.75 85.542969 61.300781 C 84.835938 60.851562 84.152344 60.359375 83.503906 59.828125 C 82.851562 59.296875 82.234375 58.730469 81.648438 58.125 C 81.066406 57.523438 80.519531 56.886719 80.007812 56.21875 C 79.5 55.550781 79.03125 54.855469 78.601562 54.132812 C 78.175781 53.410156 77.792969 52.664062 77.453125 51.894531 C 77.113281 51.125 76.820312 50.339844 76.570312 49.539062 C 76.324219 48.734375 76.125 47.917969 75.972656 47.09375 C 75.824219 46.265625 75.71875 45.433594 75.667969 44.59375 C 75.613281 43.757812 75.609375 42.917969 75.65625 42.078125 C 75.699219 41.238281 75.796875 40.40625 75.9375 39.578125 C 76.082031 38.75 76.273438 37.933594 76.515625 37.128906 C 76.753906 36.324219 77.042969 35.535156 77.375 34.765625 C 77.707031 33.992188 78.082031 33.242188 78.503906 32.515625 C 78.925781 31.789062 79.386719 31.089844 79.890625 30.417969 C 80.394531 29.742188 80.9375 29.101562 81.515625 28.496094 C 82.09375 27.886719 82.707031 27.3125 83.351562 26.777344 C 84 26.238281 84.675781 25.742188 85.378906 25.285156 C 86.085938 24.828125 86.8125 24.414062 87.566406 24.042969 C 88.320312 23.671875 89.09375 23.34375 89.886719 23.066406 C 90.679688 22.785156 91.484375 22.550781 92.304688 22.367188 C 93.121094 22.179688 93.949219 22.042969 94.785156 21.957031 C 95.621094 21.871094 96.460938 21.832031 97.300781 21.839844 C 98.140625 21.851562 98.976562 21.914062 99.808594 22.023438 C 100.640625 22.132812 101.464844 22.289062 102.28125 22.496094 C 103.09375 22.703125 103.894531 22.957031 104.679688 23.257812 C 105.464844 23.558594 106.226562 23.902344 106.972656 24.292969 C 107.714844 24.683594 108.433594 25.117188 109.125 25.59375 C 109.820312 26.066406 110.480469 26.582031 111.113281 27.136719 C 111.746094 27.6875 112.34375 28.277344 112.90625 28.902344 C 113.46875 29.523438 113.996094 30.179688 114.480469 30.863281 C 114.964844 31.550781 115.410156 32.261719 115.8125 33 C 116.214844 33.738281 116.570312 34.496094 116.882812 35.277344 C 117.195312 36.054688 117.460938 36.851562 117.683594 37.660156 C 117.902344 38.472656 118.070312 39.292969 118.195312 40.125 C 118.316406 40.957031 118.390625 41.792969 118.414062 42.632812 C 118.4375 43.472656 118.410156 44.3125 118.335938 45.148438 C 118.261719 45.984375 118.136719 46.8125 117.964844 47.636719 C 117.792969 48.457031 117.570312 49.269531 117.304688 50.066406 C 117.035156 50.859375 116.722656 51.640625 116.363281 52.398438 C 116.003906 53.15625 115.601562 53.894531 115.15625 54.605469 C 114.707031 55.316406 114.222656 56 113.695312 56.65625 C 113.167969 57.308594 112.605469 57.929688 112.003906 58.519531 C 111.40625 59.109375 110.773438 59.660156 110.109375 60.171875 C 109.445312 60.6875 108.75 61.160156 108.03125 61.59375 C 107.3125 62.023438 106.566406 62.414062 105.800781 62.757812 C 105.035156 63.101562 104.25 63.402344 103.449219 63.652344 C 102.648438 63.90625 101.835938 64.109375 101.007812 64.265625 Z M 133.65625 68.484375 C 133.375 68.621094 133.121094 68.796875 132.890625 69.011719 C 132.664062 69.226562 132.472656 69.472656 132.320312 69.746094 C 132.167969 70.019531 132.058594 70.308594 131.996094 70.613281 C 131.929688 70.921875 131.914062 71.230469 131.945312 71.542969 L 132.710938 76.953125 L 121.429688 70.59375 C 121.128906 70.4375 120.8125 70.324219 120.480469 70.257812 C 117.253906 69.617188 114.332031 68.304688 111.707031 66.316406 C 112.472656 65.832031 113.207031 65.308594 113.917969 64.753906 C 114.628906 64.195312 115.3125 63.605469 115.964844 62.980469 C 116.617188 62.355469 117.238281 61.703125 117.824219 61.015625 C 118.414062 60.332031 118.964844 59.617188 119.484375 58.878906 C 120.003906 58.140625 120.484375 57.375 120.925781 56.589844 C 121.367188 55.800781 121.773438 54.996094 122.136719 54.167969 C 122.5 53.339844 122.820312 52.496094 123.101562 51.640625 C 123.382812 50.78125 123.617188 49.910156 123.8125 49.027344 C 124.007812 48.148438 124.160156 47.257812 124.265625 46.359375 C 124.375 45.464844 124.4375 44.5625 124.457031 43.660156 C 124.472656 42.757812 124.449219 41.855469 124.378906 40.957031 C 124.308594 40.054688 124.195312 39.160156 124.035156 38.273438 C 123.878906 37.382812 123.675781 36.503906 123.429688 35.632812 C 123.1875 34.765625 122.898438 33.910156 122.570312 33.070312 C 122.242188 32.226562 121.871094 31.40625 121.460938 30.601562 C 121.050781 29.796875 120.601562 29.011719 120.117188 28.253906 C 121.554688 27.945312 123.011719 27.792969 124.488281 27.792969 C 125.6875 27.796875 126.882812 27.90625 128.066406 28.109375 C 129.25 28.316406 130.40625 28.621094 131.539062 29.023438 C 132.675781 29.421875 133.765625 29.917969 134.816406 30.503906 C 135.863281 31.085938 136.859375 31.757812 137.792969 32.507812 C 138.730469 33.261719 139.597656 34.089844 140.398438 34.988281 C 141.195312 35.886719 141.914062 36.84375 142.546875 37.863281 C 143.183594 38.882812 143.730469 39.949219 144.1875 41.0625 C 144.644531 42.171875 145.003906 43.316406 145.269531 44.488281 C 145.535156 45.660156 145.699219 46.847656 145.761719 48.046875 C 145.828125 49.246094 145.789062 50.445312 145.652344 51.640625 C 145.515625 52.832031 145.277344 54.007812 144.945312 55.160156 C 144.609375 56.316406 144.179688 57.433594 143.65625 58.515625 C 143.132812 59.597656 142.523438 60.628906 141.824219 61.605469 C 141.128906 62.585938 140.355469 63.5 139.503906 64.347656 C 138.652344 65.199219 137.734375 65.96875 136.753906 66.664062 C 135.773438 67.359375 134.742188 67.964844 133.65625 68.484375 Z M 133.65625 68.484375 " fill-opacity="1" fill-rule="nonzero"/><path fill="#136035" d="M 90.859375 43.078125 C 90.859375 43.484375 90.78125 43.875 90.628906 44.25 C 90.472656 44.625 90.25 44.953125 89.964844 45.242188 C 89.679688 45.527344 89.347656 45.75 88.972656 45.902344 C 88.597656 46.058594 88.207031 46.136719 87.804688 46.136719 C 87.398438 46.136719 87.007812 46.058594 86.632812 45.902344 C 86.257812 45.75 85.929688 45.527344 85.640625 45.242188 C 85.355469 44.953125 85.132812 44.625 84.980469 44.25 C 84.824219 43.875 84.746094 43.484375 84.746094 43.078125 C 84.746094 42.675781 84.824219 42.285156 84.980469 41.910156 C 85.132812 41.535156 85.355469 41.203125 85.640625 40.917969 C 85.929688 40.632812 86.257812 40.410156 86.632812 40.253906 C 87.007812 40.101562 87.398438 40.023438 87.804688 40.023438 C 88.207031 40.023438 88.597656 40.101562 88.972656 40.253906 C 89.347656 40.410156 89.679688 40.632812 89.964844 40.917969 C 90.25 41.203125 90.472656 41.535156 90.628906 41.910156 C 90.78125 42.285156 90.859375 42.675781 90.859375 43.078125 Z M 90.859375 43.078125 " fill-opacity="1" fill-rule="nonzero"/><path fill="#136035" d="M 100.03125 43.078125 C 100.03125 43.484375 99.953125 43.875 99.796875 44.25 C 99.644531 44.625 99.421875 44.953125 99.136719 45.242188 C 98.847656 45.527344 98.519531 45.75 98.144531 45.902344 C 97.769531 46.058594 97.378906 46.136719 96.972656 46.136719 C 96.570312 46.136719 96.179688 46.058594 95.804688 45.902344 C 95.429688 45.75 95.097656 45.527344 94.8125 45.242188 C 94.527344 44.953125 94.304688 44.625 94.148438 44.25 C 93.996094 43.875 93.917969 43.484375 93.917969 43.078125 C 93.917969 42.675781 93.996094 42.285156 94.148438 41.910156 C 94.304688 41.535156 94.527344 41.203125 94.8125 40.917969 C 95.097656 40.632812 95.429688 40.410156 95.804688 40.253906 C 96.179688 40.101562 96.570312 40.023438 96.972656 40.023438 C 97.378906 40.023438 97.769531 40.101562 98.144531 40.253906 C 98.519531 40.410156 98.847656 40.632812 99.136719 40.917969 C 99.421875 41.203125 99.644531 41.535156 99.796875 41.910156 C 99.953125 42.285156 100.03125 42.675781 100.03125 43.078125 Z M 100.03125 43.078125 " fill-opacity="1" fill-rule="nonzero"/><path fill="#136035" d="M 109.203125 43.078125 C 109.203125 43.484375 109.125 43.875 108.96875 44.25 C 108.8125 44.625 108.59375 44.953125 108.308594 45.242188 C 108.019531 45.527344 107.691406 45.75 107.316406 45.902344 C 106.941406 46.058594 106.550781 46.136719 106.144531 46.136719 C 105.738281 46.136719 105.351562 46.058594 104.976562 45.902344 C 104.601562 45.75 104.269531 45.527344 103.984375 45.242188 C 103.695312 44.953125 103.476562 44.625 103.320312 44.25 C 103.164062 43.875 103.089844 43.484375 103.089844 43.078125 C 103.089844 42.675781 103.164062 42.285156 103.320312 41.910156 C 103.476562 41.535156 103.695312 41.203125 103.984375 40.917969 C 104.269531 40.632812 104.601562 40.410156 104.976562 40.253906 C 105.351562 40.101562 105.738281 40.023438 106.144531 40.023438 C 106.550781 40.023438 106.941406 40.101562 107.316406 40.253906 C 107.691406 40.410156 108.019531 40.632812 108.308594 40.917969 C 108.59375 41.203125 108.8125 41.535156 108.96875 41.910156 C 109.125 42.285156 109.203125 42.675781 109.203125 43.078125 Z M 109.203125 43.078125 " fill-opacity="1" fill-rule="nonzero"/></svg>