<svg xmlns="http://www.w3.org/2000/svg" xmlns:xlink="http://www.w3.org/1999/xlink" width="300" zoomAndPan="magnify" viewBox="0 0 224.87999 225" height="300" preserveAspectRatio="xMidYMid meet" version="1.0"><defs><clipPath id="80070caf58"><path d="M 22.488281 22.546875 L 202.390625 22.546875 L 202.390625 202.453125 L 22.488281 202.453125 Z M 22.488281 22.546875 " clip-rule="nonzero"/></clipPath></defs><g clip-path="url(#80070caf58)"><path fill="#136035" d="M 112.460938 22.566406 C 62.859375 22.566406 22.507812 62.921875 22.507812 112.519531 C 22.507812 162.121094 62.859375 202.472656 112.460938 202.472656 C 162.0625 202.472656 202.414062 162.121094 202.414062 112.519531 C 202.414062 62.921875 162.0625 22.566406 112.460938 22.566406 Z M 30.886719 112.519531 C 30.886719 67.542969 67.476562 30.949219 112.460938 30.949219 C 116.457031 30.945312 120.433594 31.234375 124.390625 31.816406 C 128.347656 32.402344 132.238281 33.273438 136.0625 34.433594 C 139.890625 35.589844 143.613281 37.027344 147.226562 38.734375 C 150.839844 40.445312 154.308594 42.410156 157.632812 44.632812 L 67.355469 180.464844 C 64.5625 178.609375 61.898438 176.59375 59.351562 174.414062 C 56.808594 172.230469 54.410156 169.902344 52.152344 167.425781 C 49.898438 164.949219 47.800781 162.339844 45.867188 159.605469 C 43.929688 156.871094 42.171875 154.027344 40.585938 151.074219 C 39 148.121094 37.601562 145.082031 36.390625 141.957031 C 35.183594 138.832031 34.167969 135.648438 33.351562 132.398438 C 32.53125 129.148438 31.917969 125.859375 31.503906 122.535156 C 31.09375 119.210938 30.886719 115.871094 30.886719 112.519531 Z M 112.460938 194.089844 C 106.511719 194.097656 100.636719 193.457031 94.832031 192.171875 C 89.023438 190.882812 83.429688 188.980469 78.039062 186.464844 L 167.296875 52.179688 C 169.394531 54.082031 171.390625 56.089844 173.28125 58.199219 C 175.171875 60.3125 176.949219 62.515625 178.609375 64.8125 C 180.269531 67.109375 181.804688 69.488281 183.214844 71.945312 C 184.628906 74.402344 185.910156 76.925781 187.058594 79.515625 C 188.207031 82.109375 189.214844 84.753906 190.085938 87.449219 C 190.960938 90.144531 191.6875 92.878906 192.273438 95.652344 C 192.859375 98.425781 193.300781 101.222656 193.597656 104.039062 C 193.890625 106.859375 194.035156 109.6875 194.035156 112.519531 C 194.035156 157.5 157.441406 194.089844 112.460938 194.089844 Z M 112.460938 194.089844 " fill-opacity="1" fill-rule="nonzero"/></g></svg>