<svg xmlns="http://www.w3.org/2000/svg" xmlns:xlink="http://www.w3.org/1999/xlink" width="300" zoomAndPan="magnify" viewBox="0 0 224.87999 225" height="300" preserveAspectRatio="xMidYMid meet" version="1.0"><defs><clipPath id="62fc2d1358"><path d="M 179 60 L 207.519531 60 L 207.519531 96 L 179 96 Z M 179 60 " clip-rule="nonzero"/></clipPath><clipPath id="372054bf75"><path d="M 17.121094 112 L 63 112 L 63 212.792969 L 17.121094 212.792969 Z M 17.121094 112 " clip-rule="nonzero"/></clipPath><clipPath id="73d4f872fd"><path d="M 17.121094 70 L 45 70 L 45 106 L 17.121094 106 Z M 17.121094 70 " clip-rule="nonzero"/></clipPath><clipPath id="afcc702fa8"><path d="M 148 101 L 207.519531 101 L 207.519531 212.792969 L 148 212.792969 Z M 148 101 " clip-rule="nonzero"/></clipPath></defs><g clip-path="url(#62fc2d1358)"><path fill="#136035" d="M 193.671875 95.046875 C 186.035156 95.046875 179.824219 88.839844 179.824219 81.207031 L 179.824219 74.285156 C 179.824219 66.652344 186.035156 60.445312 193.671875 60.445312 C 201.304688 60.445312 207.515625 66.652344 207.515625 74.285156 L 207.515625 81.207031 C 207.515625 88.839844 201.304688 95.046875 193.671875 95.046875 Z M 193.671875 67.363281 C 189.855469 67.363281 186.75 70.46875 186.75 74.285156 L 186.75 81.207031 C 186.75 85.019531 189.855469 88.125 193.671875 88.125 C 197.488281 88.125 200.59375 85.019531 200.59375 81.207031 L 200.59375 74.285156 C 200.59375 70.46875 197.488281 67.363281 193.671875 67.363281 Z M 193.671875 67.363281 " fill-opacity="1" fill-rule="nonzero"/></g><g clip-path="url(#372054bf75)"><path fill="#136035" d="M 44.828125 212.703125 L 30.984375 212.703125 C 25.257812 212.703125 20.597656 208.046875 20.597656 202.320312 L 20.597656 168.125 C 20.597656 165.453125 19.960938 164.015625 19.164062 162.1875 C 18.210938 160.03125 17.140625 157.585938 17.140625 153.464844 L 17.140625 124.550781 C 17.140625 117.820312 22.613281 112.347656 29.347656 112.347656 C 34.316406 112.347656 38.789062 115.105469 41.011719 119.554688 L 46.105469 129.734375 L 57.984375 138.644531 C 60.585938 140.589844 62.140625 143.695312 62.140625 146.949219 C 62.140625 152.675781 57.484375 157.332031 51.757812 157.332031 C 49.488281 157.332031 47.335938 156.617188 45.523438 155.253906 L 30.542969 144.023438 L 34.691406 138.488281 L 49.679688 149.71875 C 50.28125 150.175781 50.996094 150.410156 51.757812 150.410156 C 53.667969 150.410156 55.21875 148.859375 55.21875 146.949219 C 55.21875 145.847656 54.714844 144.839844 53.832031 144.183594 L 40.644531 134.292969 L 34.820312 122.648438 C 33.777344 120.5625 31.683594 119.265625 29.351562 119.265625 C 26.4375 119.265625 24.066406 121.636719 24.066406 124.550781 L 24.066406 153.464844 C 24.066406 156.132812 24.703125 157.574219 25.503906 159.402344 C 26.453125 161.558594 27.523438 164 27.523438 168.125 L 27.523438 202.320312 C 27.523438 204.234375 29.078125 205.785156 30.988281 205.785156 L 44.832031 205.785156 C 44.832031 203.136719 43.140625 200.792969 40.632812 199.953125 L 34.453125 197.894531 L 34.453125 157.335938 L 41.375 157.335938 L 41.375 192.90625 L 42.824219 193.386719 C 48.171875 195.171875 51.757812 200.152344 51.757812 205.78125 C 51.757812 209.59375 48.652344 212.699219 44.835938 212.699219 Z M 44.828125 212.703125 " fill-opacity="1" fill-rule="nonzero"/></g><g clip-path="url(#73d4f872fd)"><path fill="#136035" d="M 30.984375 105.429688 C 23.347656 105.429688 17.140625 99.222656 17.140625 91.589844 L 17.140625 84.667969 C 17.140625 77.035156 23.347656 70.828125 30.984375 70.828125 C 38.621094 70.828125 44.828125 77.035156 44.828125 84.667969 L 44.828125 91.589844 C 44.828125 99.222656 38.621094 105.429688 30.984375 105.429688 Z M 30.984375 77.746094 C 27.167969 77.746094 24.0625 80.851562 24.0625 84.667969 L 24.0625 91.589844 C 24.0625 95.402344 27.167969 98.507812 30.984375 98.507812 C 34.800781 98.507812 37.90625 95.402344 37.90625 91.589844 L 37.90625 84.667969 C 37.90625 80.851562 34.800781 77.746094 30.984375 77.746094 Z M 30.984375 77.746094 " fill-opacity="1" fill-rule="nonzero"/></g><path fill="#136035" d="M 148.671875 129.652344 L 69.0625 129.652344 C 65.246094 129.652344 62.136719 126.546875 62.136719 122.734375 L 62.136719 115.8125 C 62.136719 111.996094 65.246094 108.890625 69.0625 108.890625 L 138.289062 108.890625 L 138.289062 115.8125 L 69.0625 115.8125 L 69.0625 122.734375 L 148.671875 122.734375 Z M 148.671875 129.652344 " fill-opacity="1" fill-rule="nonzero"/><path fill="#136035" d="M 165.980469 191.941406 L 96.75 191.941406 L 96.75 185.023438 L 165.980469 185.023438 L 165.980469 178.101562 L 55.214844 178.101562 L 55.214844 185.023438 L 75.984375 185.023438 L 75.984375 191.941406 L 55.214844 191.941406 C 51.398438 191.941406 48.292969 188.835938 48.292969 185.023438 L 48.292969 178.101562 C 48.292969 174.285156 51.398438 171.179688 55.214844 171.179688 L 165.980469 171.179688 C 169.796875 171.179688 172.902344 174.285156 172.902344 178.101562 L 172.902344 185.023438 C 172.902344 188.835938 169.796875 191.941406 165.980469 191.941406 Z M 165.980469 191.941406 " fill-opacity="1" fill-rule="nonzero"/><path fill="#136035" d="M 96.75 101.972656 L 89.828125 101.972656 L 89.828125 18.917969 C 89.828125 15.105469 92.933594 12 96.75 12 L 124.441406 12 C 128.257812 12 131.363281 15.105469 131.363281 18.917969 L 131.363281 88.128906 L 124.441406 88.128906 L 124.441406 18.917969 L 96.75 18.917969 Z M 96.75 101.972656 " fill-opacity="1" fill-rule="nonzero"/><path fill="#136035" d="M 124.441406 95.046875 L 131.363281 95.046875 L 131.363281 101.96875 L 124.441406 101.96875 Z M 124.441406 95.046875 " fill-opacity="1" fill-rule="nonzero"/><path fill="#136035" d="M 103.671875 29.300781 L 117.519531 29.300781 L 117.519531 36.21875 L 103.671875 36.21875 Z M 103.671875 29.300781 " fill-opacity="1" fill-rule="nonzero"/><path fill="#136035" d="M 103.671875 43.140625 L 117.519531 43.140625 L 117.519531 50.0625 L 103.671875 50.0625 Z M 103.671875 43.140625 " fill-opacity="1" fill-rule="nonzero"/><path fill="#136035" d="M 103.671875 56.984375 L 117.519531 56.984375 L 117.519531 63.90625 L 103.671875 63.90625 Z M 103.671875 56.984375 " fill-opacity="1" fill-rule="nonzero"/><path fill="#136035" d="M 79.441406 112.351562 L 72.519531 112.351562 L 72.519531 36.542969 C 72.519531 33.695312 74.226562 31.175781 76.867188 30.121094 L 92.003906 24.066406 L 94.574219 30.492188 L 79.441406 36.542969 Z M 79.441406 112.351562 " fill-opacity="1" fill-rule="nonzero"/><path fill="#136035" d="M 148.671875 95.046875 L 141.75 95.046875 L 141.75 36.542969 L 126.621094 30.492188 L 129.191406 24.066406 L 144.320312 30.117188 C 146.964844 31.175781 148.671875 33.695312 148.671875 36.542969 Z M 148.671875 95.046875 " fill-opacity="1" fill-rule="nonzero"/><path fill="#136035" d="M 61.222656 174.011719 L 69.96875 125.5625 L 76.785156 126.792969 L 68.039062 175.242188 Z M 61.222656 174.011719 " fill-opacity="1" fill-rule="nonzero"/><path fill="#136035" d="M 146.355469 137.644531 L 153.171875 136.410156 L 159.980469 174.015625 L 153.164062 175.25 Z M 146.355469 137.644531 " fill-opacity="1" fill-rule="nonzero"/><path fill="#136035" d="M 82.90625 185.019531 L 89.828125 185.019531 L 89.828125 191.9375 L 82.90625 191.9375 Z M 82.90625 185.019531 " fill-opacity="1" fill-rule="nonzero"/><g clip-path="url(#afcc702fa8)"><path fill="#136035" d="M 190.210938 212.703125 L 176.367188 212.703125 C 172.550781 212.703125 169.445312 209.597656 169.445312 205.785156 C 169.445312 200.15625 173.03125 195.175781 178.378906 193.394531 L 179.828125 192.910156 L 179.828125 133.117188 L 186.753906 133.117188 L 186.753906 197.898438 L 180.570312 199.960938 C 178.058594 200.796875 176.371094 203.136719 176.371094 205.789062 L 190.214844 205.789062 C 192.125 205.789062 193.679688 204.234375 193.679688 202.324219 L 193.679688 175.460938 C 193.679688 167.941406 195.671875 163.410156 197.433594 159.410156 C 199.132812 155.542969 200.601562 152.203125 200.601562 146.140625 L 200.601562 115.8125 C 200.601562 111.996094 197.492188 108.890625 193.679688 108.890625 L 187.894531 108.890625 C 186.613281 108.890625 185.328125 109.199219 184.183594 109.765625 L 172.90625 115.402344 L 160.605469 109.25 C 160.128906 109.011719 159.605469 108.890625 159.0625 108.890625 C 157.148438 108.890625 155.597656 110.441406 155.597656 112.355469 C 155.597656 113.671875 156.332031 114.859375 157.511719 115.449219 L 171.355469 122.371094 C 172.320312 122.855469 173.476562 122.855469 174.457031 122.371094 L 184.550781 117.324219 L 187.644531 123.515625 L 177.542969 128.5625 C 174.636719 130.011719 171.140625 130 168.257812 128.5625 L 154.414062 121.640625 C 150.871094 119.867188 148.675781 116.308594 148.675781 112.355469 C 148.675781 106.632812 153.335938 101.972656 159.0625 101.972656 C 160.691406 101.972656 162.25 102.339844 163.703125 103.066406 L 172.90625 107.667969 L 181.085938 103.578125 C 183.191406 102.527344 185.546875 101.972656 187.890625 101.972656 L 193.675781 101.972656 C 201.308594 101.972656 207.519531 108.183594 207.519531 115.816406 L 207.519531 146.144531 C 207.519531 153.660156 205.527344 158.191406 203.765625 162.195312 C 202.066406 166.058594 200.597656 169.398438 200.597656 175.464844 L 200.597656 202.328125 C 200.597656 208.054688 195.9375 212.710938 190.210938 212.710938 Z M 190.210938 212.703125 " fill-opacity="1" fill-rule="nonzero"/></g></svg>