<svg xmlns="http://www.w3.org/2000/svg" xmlns:xlink="http://www.w3.org/1999/xlink" width="300" zoomAndPan="magnify" viewBox="0 0 224.87999 225" height="300" preserveAspectRatio="xMidYMid meet" version="1.0"><defs><clipPath id="c8f08670bc"><path d="M 10.464844 60.238281 L 214.355469 60.238281 L 214.355469 164.433594 L 10.464844 164.433594 Z M 10.464844 60.238281 " clip-rule="nonzero"/></clipPath></defs><g clip-path="url(#c8f08670bc)"><path fill="#136035" d="M 162.136719 60.273438 L 62.683594 60.273438 C 33.894531 60.273438 10.472656 83.628906 10.472656 112.335938 C 10.472656 141.042969 33.894531 164.394531 62.683594 164.394531 L 162.136719 164.394531 C 190.925781 164.394531 214.351562 141.042969 214.351562 112.335938 C 214.351562 83.628906 190.925781 60.273438 162.136719 60.273438 Z M 162.136719 66.472656 C 187.539062 66.472656 208.136719 87.003906 208.136719 112.335938 C 208.136719 137.664062 187.539062 158.199219 162.136719 158.199219 L 62.683594 158.199219 C 37.28125 158.199219 16.6875 137.664062 16.6875 112.335938 C 16.6875 87.003906 37.28125 66.472656 62.683594 66.472656 L 162.136719 66.472656 " fill-opacity="1" fill-rule="nonzero"/></g><path fill="#136035" d="M 24.457031 112.335938 C 24.457031 90.941406 41.851562 73.601562 63.304688 73.601562 C 84.761719 73.601562 102.15625 90.941406 102.15625 112.335938 C 102.15625 133.730469 84.761719 151.070312 63.304688 151.070312 C 41.851562 151.070312 24.457031 133.730469 24.457031 112.335938 " fill-opacity="1" fill-rule="nonzero"/><path fill="#136035" d="M 120.554688 112.210938 C 120.554688 117.835938 123.035156 122.09375 128.160156 122.09375 C 133.71875 122.09375 135.6875 117.453125 135.6875 112.316406 C 135.6875 106.859375 133.445312 102.574219 128.054688 102.574219 C 122.832031 102.574219 120.554688 106.59375 120.554688 112.210938 Z M 142.144531 112.234375 C 142.144531 120.261719 137.3125 127.167969 127.921875 127.167969 C 118.847656 127.167969 114.097656 120.59375 114.097656 112.335938 C 114.097656 103.945312 119.34375 97.5 128.328125 97.5 C 136.785156 97.5 142.144531 103.410156 142.144531 112.234375 " fill-opacity="1" fill-rule="nonzero"/><path fill="#136035" d="M 147.609375 97.921875 L 167.792969 97.921875 L 167.792969 103.03125 L 153.714844 103.03125 L 153.714844 110.09375 L 166.898438 110.09375 L 166.898438 115.203125 L 153.714844 115.203125 L 153.714844 126.75 L 147.609375 126.75 L 147.609375 97.921875 " fill-opacity="1" fill-rule="nonzero"/><path fill="#136035" d="M 172.4375 97.921875 L 192.617188 97.921875 L 192.617188 103.03125 L 178.542969 103.03125 L 178.542969 110.09375 L 191.726562 110.09375 L 191.726562 115.203125 L 178.542969 115.203125 L 178.542969 126.75 L 172.4375 126.75 L 172.4375 97.921875 " fill-opacity="1" fill-rule="nonzero"/></svg>