<svg xmlns="http://www.w3.org/2000/svg" xmlns:xlink="http://www.w3.org/1999/xlink" width="300" zoomAndPan="magnify" viewBox="0 0 224.87999 225" height="300" preserveAspectRatio="xMidYMid meet" version="1.0"><defs><clipPath id="8831a46c14"><path d="M 8.878906 8.941406 L 212.769531 8.941406 L 212.769531 212.832031 L 8.878906 212.832031 Z M 8.878906 8.941406 " clip-rule="nonzero"/></clipPath></defs><g clip-path="url(#8831a46c14)"><path fill="#136035" d="M 110.824219 8.941406 C 54.523438 8.941406 8.878906 54.582031 8.878906 110.886719 C 8.878906 167.1875 54.523438 212.832031 110.824219 212.832031 C 167.128906 212.832031 212.769531 167.1875 212.769531 110.886719 C 212.769531 54.582031 167.128906 8.941406 110.824219 8.941406 Z M 110.824219 17.589844 C 162.269531 17.589844 204.121094 59.441406 204.121094 110.886719 C 204.121094 162.328125 162.269531 204.179688 110.824219 204.179688 C 59.382812 204.179688 17.53125 162.328125 17.53125 110.886719 C 17.53125 59.441406 59.382812 17.589844 110.824219 17.589844 " fill-opacity="1" fill-rule="nonzero"/></g><path fill="#136035" d="M 130.722656 110.886719 L 170.511719 150.675781 L 150.617188 170.574219 L 110.824219 130.78125 L 71.035156 170.574219 L 51.136719 150.675781 L 90.929688 110.886719 L 51.136719 71.09375 L 71.035156 51.199219 L 110.824219 90.988281 L 150.617188 51.199219 L 170.511719 71.09375 L 130.722656 110.886719 " fill-opacity="1" fill-rule="nonzero"/></svg>